<svg width="18" height="6" viewBox="0 0 18 6" fill="none" xmlns="http://www.w3.org/2000/svg">
<path fill-rule="evenodd" clip-rule="evenodd" d="M2.5 2C1.94772 2 1.5 2.44772 1.5 3C1.5 3.55228 1.94772 4 2.5 4V5C1.39543 5 0.5 4.10457 0.5 3C0.5 1.89543 1.39543 1 2.5 1C3.60457 1 4.5 1.89543 4.5 3V5H3.5V3C3.5 2.44772 3.05228 2 2.5 2Z" fill="#FAFF00"/>
<path fill-rule="evenodd" clip-rule="evenodd" d="M6.5 3C6.5 2.44772 6.05228 2 5.5 2C4.94772 2 4.5 2.44772 4.5 3V5H3.5V3C3.5 1.89543 4.39543 1 5.5 1C6.60457 1 7.5 1.89543 7.5 3V5H6.5V3Z" fill="white"/>
<path d="M4.5 1H3.5V5H4.5V1Z" fill="white"/>
<path fill-rule="evenodd" clip-rule="evenodd" d="M8.5 3C8.5 2.44772 8.94772 2 9.5 2C10.0523 2 10.5 2.44772 10.5 3V5H11.5V3C11.5 1.89543 10.6046 1 9.5 1C8.39543 1 7.5 1.89543 7.5 3H8.5Z" fill="white"/>
<path d="M8.5 1H7.5V5H8.5V1Z" fill="white"/>
<path fill-rule="evenodd" clip-rule="evenodd" d="M13.5 3C13.5 2.44772 13.0523 2 12.5 2C11.9477 2 11.5 2.44772 11.5 3V5H10.5V3C10.5 1.89543 11.3954 1 12.5 1C13.6046 1 14.5 1.89543 14.5 3V5H13.5V3Z" fill="white"/>
<path fill-rule="evenodd" clip-rule="evenodd" d="M7.5 3C7.5 3.55228 7.94772 4 8.5 4V5C7.39543 5 6.5 4.10457 6.5 3V2.5H7.5V3Z" fill="#FAFF00"/>
<path d="M7 2C7.27614 2 7.5 1.77614 7.5 1.5C7.5 1.22386 7.27614 1 7 1C6.72386 1 6.5 1.22386 6.5 1.5C6.5 1.77614 6.72386 2 7 2Z" fill="#FAFF00"/>
<path fill-rule="evenodd" clip-rule="evenodd" d="M16.5 3C16.5 2.44772 16.0523 2 15.5 2C14.9477 2 14.5 2.44772 14.5 3C14.5 3.55228 14.9477 4 15.5 4V5C14.3954 5 13.5 4.10457 13.5 3C13.5 1.89543 14.3954 1 15.5 1C16.6046 1 17.5 1.89543 17.5 3V4H16.5H15.5V3H16.5Z" fill="#FAFF00"/>
</svg>
