<svg width="86" height="56" viewBox="0 0 86 56" fill="none" xmlns="http://www.w3.org/2000/svg">
<g id="ARROWFRAME" clip-path="url(#clip0_1_2)">
<path id="Arrow 1" d="M70.6191 15.2126C71.2049 14.6268 71.2049 13.6771 70.6191 13.0913L61.0731 3.54534C60.4873 2.95955 59.5376 2.95955 58.9518 3.54534C58.366 4.13113 58.366 5.08087 58.9518 5.66666L67.4371 14.1519L58.9518 22.6372C58.366 23.223 58.366 24.1728 58.9518 24.7585C59.5376 25.3443 60.4873 25.3443 61.0731 24.7585L70.6191 15.2126ZM16.4416 15.6519H69.5584V12.6519H16.4416V15.6519Z" fill="white"/>
<path id="IT1" d="M13.3949 45.22C13.4382 45.0577 13.5482 44.9766 13.725 44.9766H14.0496C14.1397 44.9766 14.2029 45.0108 14.2389 45.0794C14.2786 45.1479 14.2876 45.229 14.266 45.3228L12.3724 52.7565C12.3291 52.9188 12.2191 53 12.0424 53H11.7177C11.6276 53 11.5626 52.9675 11.523 52.9026C11.4833 52.8341 11.4743 52.7529 11.4959 52.6592L13.3949 45.22ZM16.6512 45.6745C16.6512 45.6745 16.0903 47.8693 14.9686 52.2588C15.0335 52.266 15.203 52.2696 15.4771 52.2696C15.9424 52.2696 16.3734 52.0009 16.7702 51.4635C17.167 50.9261 17.4862 50.1975 17.7278 49.2777C18.0633 47.9793 18.0867 47.0271 17.7982 46.4211C17.7585 46.3381 17.708 46.2444 17.6467 46.1398C17.4663 45.8476 17.1345 45.6925 16.6512 45.6745ZM15.7368 45.7015L15.1688 45.7665C15.0281 45.7665 14.9686 45.6817 14.9902 45.5122L15.0335 45.1984C15.0515 45.083 15.1147 45.0126 15.2229 44.9874C15.5186 44.9297 15.9388 44.9008 16.4835 44.9008C17.2409 44.9008 17.8126 45.1046 18.1985 45.5122C18.5844 45.9197 18.7936 46.5095 18.8261 47.2813C18.8694 48.3345 18.6367 49.4689 18.1282 50.6844C17.8108 51.4382 17.4393 52.0081 17.0137 52.394C16.5412 52.8269 15.9695 53.0433 15.2986 53.0433C14.9018 53.0433 14.6025 53.0289 14.4005 53C14.2021 52.9711 14.0795 52.9152 14.0326 52.8323C13.9857 52.7457 13.9839 52.6177 14.0272 52.4482L15.7368 45.7015ZM21.5136 53C21.5136 53 20.6281 53 18.8572 53C18.767 53 18.7021 52.9675 18.6624 52.9026C18.6227 52.8341 18.6137 52.7529 18.6354 52.6592L20.3937 45.7448H19.95C19.8382 45.7448 19.7697 45.7286 19.7445 45.6961C19.7192 45.6601 19.721 45.5789 19.7499 45.4527L19.8202 45.1984C19.8454 45.101 19.8761 45.0397 19.9122 45.0144C19.9482 44.9892 20.0168 44.9766 20.1178 44.9766H23.7318C23.8364 44.9766 23.9032 44.9964 23.932 45.0361C23.9645 45.0721 23.9681 45.1443 23.9428 45.2525L23.8617 45.5338C23.8292 45.6745 23.7372 45.7448 23.5858 45.7448H21.2972L20.6534 48.2714H22.6119C22.6768 48.2714 22.7237 48.2967 22.7526 48.3472C22.7814 48.394 22.7868 48.4536 22.7688 48.5257L22.6876 48.8016C22.6516 48.9567 22.5416 49.0343 22.3576 49.0343H20.4586L19.6417 52.2372H21.7679C21.8328 52.2372 21.8797 52.2624 21.9086 52.3129C21.9374 52.3598 21.9428 52.4193 21.9248 52.4914L21.8491 52.7674C21.813 52.9225 21.7012 53 21.5136 53ZM24.5141 50.5978L23.4429 52.7782C23.3635 52.9441 23.2264 53.018 23.0317 53L22.7774 52.9784C22.6475 52.9748 22.5628 52.9261 22.5231 52.8323C22.4834 52.7385 22.4906 52.6465 22.5448 52.5564L26.2346 45.4418C26.3897 45.1461 26.5934 44.9982 26.8459 44.9982L27.2896 44.9874C27.423 44.9874 27.5276 45.0325 27.6034 45.1226C27.6791 45.2128 27.7116 45.3463 27.7007 45.523L27.3112 52.7565C27.304 52.9188 27.194 53 26.9812 53L26.6025 52.9892C26.4221 52.9892 26.3374 52.89 26.3482 52.6916L26.4888 50.5978H24.5141ZM24.909 49.7971H26.5429L26.7972 45.945L24.909 49.7971ZM36.5784 45.7773C36.5784 45.7773 36.0122 45.7773 34.8796 45.7773L33.0942 52.7565C33.0509 52.9188 32.9409 53 32.7642 53H32.445C32.3548 53 32.2899 52.9675 32.2502 52.9026C32.2105 52.8341 32.2015 52.7529 32.2232 52.6592L33.9761 45.7773H32.2232C32.014 45.7773 31.9328 45.6925 31.9797 45.523L32.0554 45.1984C32.0771 45.1046 32.1095 45.0451 32.1528 45.0198C32.1997 44.991 32.2773 44.9766 32.3855 44.9766H36.7083C36.9319 44.9766 37.0203 45.0812 36.9734 45.2904L36.9193 45.5446C36.8904 45.6997 36.7768 45.7773 36.5784 45.7773ZM37.1243 51.6691C37.2469 52.0911 37.4435 52.3021 37.714 52.3021C38.1072 52.3021 38.4516 52.1091 38.7474 51.7232C39.1081 51.2218 39.4543 50.4319 39.7861 49.3535C40.0999 48.3327 40.2154 47.4815 40.1324 46.7998C40.0927 46.4896 40.0134 46.2462 39.8943 46.0694C39.7753 45.8891 39.622 45.7989 39.4345 45.7989C39.0269 45.7989 38.6644 46.0045 38.347 46.4157C37.9611 46.9279 37.6058 47.7466 37.2812 48.872C36.9602 49.9937 36.9079 50.9261 37.1243 51.6691ZM36.0855 50.5978C36.0855 49.6023 36.32 48.5582 36.7888 47.4653C37.3046 46.275 37.9286 45.4869 38.6608 45.101C38.9277 44.9603 39.2018 44.89 39.4832 44.89C39.7645 44.89 40.0837 44.9928 40.4408 45.1984C40.6752 45.339 40.8357 45.5627 40.9223 45.8693C41.0089 46.1758 41.0521 46.6231 41.0521 47.211C41.0521 47.7953 40.9223 48.5798 40.6626 49.5645C40.2081 51.2994 39.5048 52.394 38.5526 52.8485C38.2713 52.9856 37.9737 53.0541 37.6599 53.0541C37.411 53.0541 37.1531 52.9838 36.8862 52.8431C36.3524 52.5618 36.0855 51.8133 36.0855 50.5978ZM45.6603 48.7313L46.3528 48.6988C46.8541 48.6772 47.2383 48.4608 47.5052 48.0496C47.7612 47.6564 47.8893 47.1208 47.8893 46.4427C47.8893 46.2516 47.8244 46.0911 47.6945 45.9612C47.5683 45.8314 47.3915 45.7647 47.1643 45.761C46.9371 45.7574 46.69 45.7538 46.4231 45.7502L45.6603 48.7313ZM45.5196 45.7448C45.4042 45.7448 45.2924 45.7448 45.1842 45.7448C45.0759 45.7448 45.0002 45.7142 44.9569 45.6528C44.9136 45.5879 44.9028 45.514 44.9245 45.431L44.9786 45.1984C44.993 45.1335 45.0273 45.0812 45.0814 45.0415C45.1355 44.9982 45.186 44.9766 45.2328 44.9766H47.1156C47.6242 44.9766 48.0318 45.1046 48.3383 45.3607C48.6449 45.6132 48.7982 45.9883 48.7982 46.486C48.7982 46.9838 48.7026 47.4509 48.5115 47.8873C48.3239 48.3237 48.1165 48.6357 47.8893 48.8233C47.6657 49.0072 47.4943 49.1298 47.3753 49.1912C47.2563 49.2489 47.1264 49.3012 46.9858 49.3481L47.4943 52.6213C47.534 52.8738 47.4529 53 47.2509 53H46.8722C46.7748 53 46.7044 52.9711 46.6612 52.9134C46.6215 52.8557 46.5926 52.7547 46.5746 52.6105L46.158 49.4833L45.4655 49.4941L44.6323 52.7565C44.589 52.9188 44.479 53 44.3023 53H43.9831C43.8929 53 43.828 52.9675 43.7883 52.9026C43.7486 52.8341 43.7396 52.7529 43.7612 52.6592L45.5196 45.7448ZM51.6308 53C51.6308 53 50.7453 53 48.9744 53C48.8842 53 48.8193 52.9675 48.7796 52.9026C48.7399 52.8341 48.7309 52.7529 48.7525 52.6592L50.5109 45.7448H50.0672C49.9554 45.7448 49.8869 45.7286 49.8616 45.6961C49.8364 45.6601 49.8382 45.5789 49.8671 45.4527L49.9374 45.1984C49.9626 45.101 49.9933 45.0397 50.0294 45.0144C50.0654 44.9892 50.134 44.9766 50.235 44.9766H53.849C53.9536 44.9766 54.0203 44.9964 54.0492 45.0361C54.0817 45.0721 54.0853 45.1443 54.06 45.2525L53.9789 45.5338C53.9464 45.6745 53.8544 45.7448 53.7029 45.7448H51.4144L50.7706 48.2714H52.7291C52.794 48.2714 52.8409 48.2967 52.8698 48.3472C52.8986 48.394 52.904 48.4536 52.886 48.5257L52.8048 48.8016C52.7688 48.9567 52.6588 49.0343 52.4748 49.0343H50.5758L49.7588 52.2372H51.8851C51.95 52.2372 51.9969 52.2624 52.0258 52.3129C52.0546 52.3598 52.06 52.4193 52.042 52.4914L51.9662 52.7674C51.9302 52.9225 51.8184 53 51.6308 53ZM54.6313 50.5978L53.56 52.7782C53.4807 52.9441 53.3436 53.018 53.1489 53L52.8946 52.9784C52.7647 52.9748 52.68 52.9261 52.6403 52.8323C52.6006 52.7385 52.6078 52.6465 52.6619 52.5564L56.3518 45.4418C56.5068 45.1461 56.7106 44.9982 56.9631 44.9982L57.4068 44.9874C57.5402 44.9874 57.6448 45.0325 57.7206 45.1226C57.7963 45.2128 57.8288 45.3463 57.8179 45.523L57.4284 52.7565C57.4212 52.9188 57.3112 53 57.0984 53L56.7197 52.9892C56.5393 52.9892 56.4545 52.89 56.4654 52.6916L56.606 50.5978H54.6313ZM55.0262 49.7971H56.6601L56.9144 45.945L55.0262 49.7971ZM61.4819 53C61.4819 53 60.472 53 58.4521 53C58.3619 53 58.297 52.9675 58.2573 52.9026C58.2177 52.8341 58.2086 52.7529 58.2303 52.6592L60.1293 45.22C60.1726 45.0577 60.2826 44.9766 60.4593 44.9766H60.7839C60.8741 44.9766 60.9372 45.0108 60.9733 45.0794C61.013 45.1479 61.022 45.229 61.0004 45.3228L59.2366 52.2372H61.747C61.8155 52.2372 61.8642 52.2624 61.8931 52.3129C61.9219 52.3598 61.9273 52.4193 61.9093 52.4914L61.8335 52.7674C61.7975 52.9225 61.6802 53 61.4819 53ZM64.3949 45.22C64.4382 45.0577 64.5482 44.9766 64.725 44.9766H65.0496C65.1397 44.9766 65.2029 45.0108 65.2389 45.0794C65.2786 45.1479 65.2876 45.229 65.266 45.3228L63.3724 52.7565C63.3291 52.9188 63.2191 53 63.0424 53H62.7177C62.6276 53 62.5626 52.9675 62.523 52.9026C62.4833 52.8341 62.4743 52.7529 62.4959 52.6592L64.3949 45.22ZM70.5511 45.7773C70.5511 45.7773 69.9848 45.7773 68.8523 45.7773L67.0669 52.7565C67.0236 52.9188 66.9136 53 66.7368 53H66.4176C66.3275 53 66.2625 52.9675 66.2229 52.9026C66.1832 52.8341 66.1742 52.7529 66.1958 52.6592L67.9487 45.7773H66.1958C65.9866 45.7773 65.9055 45.6925 65.9523 45.523L66.0281 45.1984C66.0497 45.1046 66.0822 45.0451 66.1255 45.0198C66.1724 44.991 66.2499 44.9766 66.3581 44.9766H70.6809C70.9046 44.9766 70.9929 45.0812 70.946 45.2904L70.8919 45.5446C70.8631 45.6997 70.7495 45.7773 70.5511 45.7773ZM72.3305 48.8395C73.362 47.3066 74.1014 46.0676 74.5487 45.1226C74.5956 45.0144 74.7056 44.9657 74.8787 44.9766L75.225 45.0198C75.3115 45.0271 75.3693 45.0667 75.3981 45.1389C75.4306 45.211 75.4161 45.3048 75.3548 45.4202C74.4892 46.9387 73.5352 48.3904 72.4928 49.7755L71.7299 52.7565C71.6867 52.9188 71.5767 53 71.3999 53H71.0807C70.9905 53 70.9256 52.9675 70.8859 52.9026C70.8463 52.8341 70.8372 52.7529 70.8589 52.6592L71.6326 49.6023C71.6326 49.1154 71.5748 48.4229 71.4594 47.5248C71.3476 46.6231 71.2502 46.0243 71.1673 45.7286C71.0843 45.4292 71.0681 45.2326 71.1186 45.1389C71.1691 45.0451 71.2484 44.9946 71.3566 44.9874L71.665 44.9441C71.7696 44.9369 71.8436 44.9495 71.8868 44.982C71.9337 45.0144 71.968 45.0902 71.9896 45.2092C72.2205 46.5762 72.3341 47.7863 72.3305 48.8395Z" fill="black"/>
</g>
<defs>
<clipPath id="clip0_1_2">
<rect width="86" height="56" fill="white"/>
</clipPath>
</defs>
</svg>
