<svg width="86" height="56" viewBox="0 0 86 56" fill="none" xmlns="http://www.w3.org/2000/svg">
<g id="BRAINFRAME" clip-path="url(#clip0_1_40)">
<path id="HEAD SHAPE" d="M35.4635 56C35.5801 54.096 35.6267 50.0548 34.8806 49.1222C34.1346 48.1896 32.5492 47.5679 31.8497 47.3736L28.8188 46.9073C26.2931 46.9461 21.8244 45.8348 24.1559 41.0786L22.5822 38.8637C22.5822 38.5334 22.8386 37.7213 23.8645 37.1151C24.8903 36.5089 23.0873 36.1631 22.0576 36.066C21.805 36.1631 21.6845 35.7046 23.2233 33.0933C23.3982 33.1068 22.172 33.0934 19.3085 31.598C19.017 31.7467 18.9801 30.1324 24.1559 22.4852C23.0901 15.2087 25.3521 0.544265 42.9292 0.275771C60.5419 0.00673504 64.5266 13.3869 65.1142 20C65.2608 22.614 65.2509 33.3507 59.2742 40.492L59.8063 56" stroke="white"/>
<g id="BRAIN-SHAPE">
<path d="M43.9791 12.3557C43.9791 16.0143 41.0132 18.9802 37.3546 18.9802C33.6959 18.9802 30.73 16.0143 30.73 12.3557C30.73 8.69704 33.6959 5.73113 37.3546 5.73113C41.0132 5.73113 43.9791 8.69704 43.9791 12.3557Z" fill="#EBFF00"/>
<path d="M50.2348 8.67204C50.2348 12.1269 47.434 14.9277 43.9791 14.9277C40.5242 14.9277 37.7235 12.1269 37.7235 8.67204C37.7235 5.21714 40.5242 2.41638 43.9791 2.41638C47.434 2.41638 50.2348 5.21714 50.2348 8.67204Z" fill="#EBFF00"/>
<path d="M57.3406 12.3557C57.3406 15.7477 54.5909 18.4975 51.1988 18.4975C47.8068 18.4975 45.057 15.7477 45.057 12.3557C45.057 8.96366 47.8068 6.21388 51.1988 6.21388C54.5909 6.21388 57.3406 8.96366 57.3406 12.3557Z" fill="#EBFF00"/>
<path d="M59.8817 17.462C59.8817 20.5432 57.3839 23.041 54.3027 23.041C51.2215 23.041 48.7237 20.5432 48.7237 17.462C48.7237 14.3808 51.2215 11.883 54.3027 11.883C57.3839 11.883 59.8817 14.3808 59.8817 17.462Z" fill="#EBFF00"/>
<path d="M43.9791 18.4407C43.9791 20.9814 41.7442 23.041 38.9874 23.041C36.2305 23.041 33.9956 20.9814 33.9956 18.4407C33.9956 15.9001 36.2305 13.8405 38.9874 13.8405C41.7442 13.8405 43.9791 15.9001 43.9791 18.4407Z" fill="#EBFF00"/>
<path d="M38.9594 18.2194H54.7239V23.041H38.9594V18.2194Z" fill="#EBFF00"/>
<path d="M40.5268 11.8906H50.1787V15.5153V19.14H40.5268V11.8906Z" fill="#EBFF00"/>
</g>
<g id="BRAIN">
<path id="Vector 1" d="M49.8051 23.0362H38.9536C37.3215 23.0215 34.0573 22.0304 34.0573 18.1839C29.205 15.9342 29.0726 5.65624 38.4243 5.83268C40.2752 1.02402 47.9245 1.10181 49.8051 6.27381C52.2606 5.92092 57.1893 6.75903 57.2599 12.9346C60.9212 14.1698 61.4064 22.0481 54.3486 23.0362V28.5757" stroke="black"/>
<path id="Vector 4" d="M38.5741 5.84949C41.5083 5.84949 43.9823 8.32348 43.9823 11.0276" stroke="black"/>
<path id="Vector 7" d="M34.0763 18.6841C34.0312 17.1058 35.243 13.929 38.8686 14.3889" stroke="black"/>
<path id="Vector 8" d="M37.3134 12.0103C42.5421 11.2343 44.3603 16.9636 37.3134 17.8827" stroke="black"/>
<path id="Vector 9" d="M56.5333 15.0385C54.653 13.5471 52.3333 14.6621 51.4938 16.4488C50.7525 18.0267 51.1654 20.1285 54.0547 21.4216" stroke="black"/>
<path id="Vector 10" d="M47.8523 8.79352C47.6396 9.7297 48.0056 11.934 51.1716 13.2617" stroke="black"/>
<path id="Vector 11" d="M50.0384 9.45452C51.5703 8.60345 54.4555 7.89706 53.7405 11.8801" stroke="black"/>
<path id="Vector 12" d="M41.2782 19.1237C43.0229 18.145 46.308 17.2343 45.491 21.4216" stroke="black"/>
<path id="Vector 13" d="M43.4488 13.2617C45.3637 13.3893 49.1169 15.0234 48.8105 20.5384" stroke="black"/>
<path id="Vector 14" d="M34.1544 14.9105C30.1969 11.4637 37.4736 4.69762 41.9417 9.67639" stroke="black"/>
<path id="Vector 15" d="M42.6966 4.58517C42.9094 5.7131 44.2285 7.75825 47.8031 6.91538" stroke="black"/>
<path id="Vector 16" d="M57.4785 17.0914C55.3082 16.0701 54.0316 18.9292 56.0742 20.4106" stroke="black"/>
</g>
</g>
<defs>
<clipPath id="clip0_1_40">
<rect width="86" height="56" fill="white"/>
</clipPath>
</defs>
</svg>
