<svg width="86" height="56" viewBox="0 0 86 56" fill="none" xmlns="http://www.w3.org/2000/svg">
<g id="CODEFRAME" clip-path="url(#clip0_1_2)">
<path id="CODETEXT" d="M21.1165 47.6466C21.286 47.7693 21.4321 47.9929 21.5548 48.3175C21.681 48.6385 21.7513 48.9162 21.7658 49.1507C21.7838 49.3851 21.7946 49.524 21.7982 49.5673C21.8054 49.6647 21.7297 49.7368 21.571 49.7837L21.2626 49.8757C21.1905 49.8937 21.1147 49.8739 21.0354 49.8161C20.956 49.7548 20.9145 49.6737 20.9109 49.5727C20.8532 49.0064 20.727 48.6042 20.5322 48.3662C20.4348 48.3301 20.3266 48.3121 20.2076 48.3121C19.8469 48.2941 19.4844 48.5501 19.1201 49.0803C18.7558 49.6069 18.4438 50.3265 18.1842 51.239C17.8451 52.3968 17.773 53.3455 17.9677 54.0849C18.0759 54.496 18.2401 54.7287 18.4601 54.7828C19.0011 54.7359 19.4484 54.3373 19.8018 53.5871C19.8126 53.5655 19.8271 53.5348 19.8451 53.4951C19.8668 53.4519 19.8812 53.4248 19.8884 53.414C19.8956 53.3996 19.9064 53.3779 19.9209 53.3491C19.9389 53.3166 19.9515 53.2986 19.9587 53.295C19.9659 53.2877 19.9768 53.2751 19.9912 53.2571C20.0056 53.239 20.0182 53.23 20.0291 53.23C20.0435 53.23 20.0579 53.2282 20.0723 53.2246C20.0904 53.2174 20.1084 53.2174 20.1264 53.2246C20.1481 53.2318 20.1715 53.239 20.1968 53.2463C20.222 53.2499 20.2491 53.2589 20.2779 53.2733L20.6296 53.4194C20.6981 53.4446 20.7324 53.5023 20.7324 53.5925C20.736 53.6791 20.7126 53.7693 20.6621 53.863C20.3158 54.4906 19.9786 54.9361 19.6503 55.1994C19.3221 55.4591 18.9145 55.5889 18.4276 55.5889C18.204 55.5889 17.9677 55.5114 17.7189 55.3563C17.3185 55.111 17.0787 54.5826 16.9993 53.7711C16.9236 52.9559 17.0155 52.038 17.2752 51.0172C17.4411 50.3427 17.6828 49.7314 18.0002 49.1831C18.3176 48.6313 18.6855 48.1949 19.1039 47.8739C19.5259 47.5528 19.9533 47.3923 20.3861 47.3923C20.4763 47.3923 20.5971 47.4176 20.7486 47.4681C20.9037 47.5186 21.0264 47.5781 21.1165 47.6466ZM22.7093 55.1831C22.1936 54.6349 22.1052 53.7115 22.4442 52.4131L23.6399 47.7224C23.6832 47.5601 23.795 47.4789 23.9754 47.4789H24.2946C24.3847 47.4789 24.4497 47.5132 24.4893 47.5817C24.529 47.6502 24.538 47.7314 24.5164 47.8252L23.2666 52.7647C22.9095 54.1606 23.1602 54.8585 24.0186 54.8585C24.3757 54.8585 24.6895 54.7124 24.96 54.4203C25.2305 54.1245 25.4596 53.6142 25.6471 52.8892L26.9672 47.7224C27.0105 47.5601 27.1205 47.4789 27.2973 47.4789H27.5732C27.6634 47.4789 27.7265 47.5132 27.7625 47.5817C27.7986 47.6502 27.8058 47.7314 27.7842 47.8252L26.4911 52.9649C26.2098 54.1119 25.7517 54.8748 25.1169 55.2535C24.7526 55.4699 24.3234 55.5781 23.8293 55.5781C23.3387 55.5781 22.9654 55.4464 22.7093 55.1831ZM30.5418 47.3599C31.0215 47.3599 31.3605 47.5565 31.5589 47.9496C31.7573 48.3427 31.8565 48.9072 31.8565 49.643C31.8565 49.827 31.7952 49.937 31.6725 49.973L31.283 50.0975C31.2217 50.1155 31.1622 50.1047 31.1045 50.065C31.0467 50.0253 31.0179 49.9586 31.0179 49.8648C31.0179 48.8874 30.8592 48.3247 30.5418 48.1768C30.3939 48.1011 30.2172 48.1137 30.0116 48.2147C29.806 48.3121 29.5968 48.5501 29.384 48.9289C29.1712 49.304 29.0576 49.7332 29.0431 50.2165C29.0359 50.4113 29.0684 50.561 29.1405 50.6656C29.2127 50.7666 29.3533 50.8531 29.5625 50.9253L30.017 51.0822C30.4534 51.23 30.7402 51.4104 30.8772 51.6232C30.9999 51.8179 31.0612 52.1335 31.0612 52.57C31.0612 53.0028 30.9439 53.4681 30.7095 53.9658C30.4787 54.4636 30.1649 54.8748 29.7681 55.1994C29.3714 55.5204 28.9566 55.6809 28.5237 55.6809C27.6509 55.6809 27.2145 54.9721 27.2145 53.5546V53.5168C27.2145 53.2354 27.2704 53.0803 27.3822 53.0515L27.7934 52.9216C27.8655 52.8928 27.925 52.8982 27.9719 52.9379C28.0224 52.9776 28.0476 53.0425 28.0476 53.1326C28.0476 53.7134 28.0819 54.1516 28.1504 54.4473C28.219 54.7395 28.3326 54.9253 28.4913 55.0046C28.6031 55.0299 28.7474 55.0046 28.9241 54.9289C29.2235 54.7954 29.4922 54.5195 29.7302 54.1011C30.0224 53.5961 30.1631 53.0244 30.1522 52.386C30.1486 52.1913 30.0404 52.0362 29.8276 51.9207C29.7194 51.8666 29.5661 51.8089 29.3678 51.7476L28.9025 51.6015C28.6933 51.5402 28.5129 51.423 28.3614 51.2499C28.21 51.0767 28.1342 50.8423 28.1342 50.5465C28.1342 50.2508 28.1937 49.9153 28.3127 49.5402C28.4354 49.1615 28.5977 48.8098 28.7997 48.4852C29.0053 48.1606 29.2614 47.8919 29.5679 47.6791C29.8781 47.4663 30.2027 47.3599 30.5418 47.3599ZM37.1238 48.2796C37.1238 48.2796 36.5575 48.2796 35.425 48.2796L33.6396 55.2589C33.5963 55.4212 33.4863 55.5023 33.3095 55.5023H32.9903C32.9002 55.5023 32.8352 55.4699 32.7956 55.405C32.7559 55.3364 32.7469 55.2553 32.7685 55.1615L34.5214 48.2796H32.7685C32.5593 48.2796 32.4782 48.1949 32.525 48.0253L32.6008 47.7007C32.6224 47.6069 32.6549 47.5474 32.6982 47.5222C32.7451 47.4933 32.8226 47.4789 32.9308 47.4789H37.2536C37.4773 47.4789 37.5656 47.5835 37.5187 47.7927L37.4646 48.047C37.4358 48.2021 37.3222 48.2796 37.1238 48.2796ZM37.6696 54.1714C37.7923 54.5934 37.9888 54.8044 38.2594 54.8044C38.6525 54.8044 38.997 54.6115 39.2927 54.2255C39.6534 53.7242 39.9997 52.9343 40.3315 51.8558C40.6453 50.8351 40.7607 49.9839 40.6778 49.3022C40.6381 48.992 40.5587 48.7485 40.4397 48.5718C40.3207 48.3914 40.1674 48.3013 39.9798 48.3013C39.5723 48.3013 39.2098 48.5069 38.8924 48.918C38.5064 49.4302 38.1512 50.249 37.8265 51.3743C37.5055 52.496 37.4532 53.4284 37.6696 54.1714ZM36.6309 53.1002C36.6309 52.1047 36.8653 51.0605 37.3342 49.9676C37.85 48.7774 38.474 47.9893 39.2062 47.6033C39.4731 47.4627 39.7472 47.3923 40.0285 47.3923C40.3099 47.3923 40.6291 47.4951 40.9861 47.7007C41.2206 47.8414 41.3811 48.065 41.4677 48.3716C41.5542 48.6782 41.5975 49.1254 41.5975 49.7134C41.5975 50.2977 41.4677 51.0822 41.208 52.0668C40.7535 53.8017 40.0502 54.8964 39.0979 55.3509C38.8166 55.4879 38.5191 55.5565 38.2053 55.5565C37.9564 55.5565 37.6985 55.4861 37.4316 55.3455C36.8978 55.0641 36.6309 54.3157 36.6309 53.1002ZM43.3075 47.7224C43.3507 47.5637 43.4571 47.4825 43.6267 47.4789H43.9837C44.1388 47.4789 44.2272 47.5637 44.2489 47.7332C44.4508 49.8757 44.514 51.4374 44.4382 52.4185L47.2732 47.6899C47.3526 47.5492 47.4626 47.4789 47.6032 47.4789H47.9711C48.0505 47.4861 48.1082 47.5222 48.1443 47.5871C48.1839 47.652 48.1929 47.7314 48.1713 47.8252L46.2777 55.2589C46.2344 55.4212 46.1226 55.5023 45.9423 55.5023H45.6231C45.5329 55.5023 45.468 55.4699 45.4283 55.405C45.3886 55.3364 45.3796 55.2553 45.4012 55.1615L46.6781 50.1516C46.422 50.6024 46.0631 51.1922 45.6014 51.9207C45.1397 52.6457 44.8476 53.1074 44.725 53.3058C44.5374 53.6051 44.3516 53.7494 44.1677 53.7386L43.9459 53.7278C43.7439 53.717 43.6519 53.5691 43.67 53.2841C43.7204 52.5014 43.6988 51.432 43.605 50.0758L42.2849 55.2589C42.2416 55.4212 42.1316 55.5023 41.9549 55.5023H41.6303C41.5401 55.5023 41.4752 55.4699 41.4355 55.405C41.3958 55.3364 41.3868 55.2553 41.4085 55.1615L43.3075 47.7224ZM55.0775 47.6466C55.247 47.7693 55.3931 47.9929 55.5157 48.3175C55.6419 48.6385 55.7123 48.9162 55.7267 49.1507C55.7447 49.3851 55.7556 49.524 55.7592 49.5673C55.7664 49.6647 55.6906 49.7368 55.5319 49.7837L55.2235 49.8757C55.1514 49.8937 55.0757 49.8739 54.9963 49.8161C54.917 49.7548 54.8755 49.6737 54.8719 49.5727C54.8142 49.0064 54.6879 48.6042 54.4932 48.3662C54.3958 48.3301 54.2876 48.3121 54.1685 48.3121C53.8079 48.2941 53.4454 48.5501 53.0811 49.0803C52.7168 49.6069 52.4048 50.3265 52.1451 51.239C51.806 52.3968 51.7339 53.3455 51.9287 54.0849C52.0369 54.496 52.201 54.7287 52.421 54.7828C52.962 54.7359 53.4093 54.3373 53.7628 53.5871C53.7736 53.5655 53.788 53.5348 53.806 53.4951C53.8277 53.4519 53.8421 53.4248 53.8493 53.414C53.8565 53.3996 53.8674 53.3779 53.8818 53.3491C53.8998 53.3166 53.9125 53.2986 53.9197 53.295C53.9269 53.2877 53.9377 53.2751 53.9521 53.2571C53.9666 53.239 53.9792 53.23 53.99 53.23C54.0044 53.23 54.0189 53.2282 54.0333 53.2246C54.0513 53.2174 54.0693 53.2174 54.0874 53.2246C54.109 53.2318 54.1325 53.239 54.1577 53.2463C54.183 53.2499 54.21 53.2589 54.2389 53.2733L54.5905 53.4194C54.6591 53.4446 54.6933 53.5023 54.6933 53.5925C54.6969 53.6791 54.6735 53.7693 54.623 53.863C54.2767 54.4906 53.9395 54.9361 53.6113 55.1994C53.2831 55.4591 52.8755 55.5889 52.3886 55.5889C52.1649 55.5889 51.9287 55.5114 51.6798 55.3563C51.2794 55.111 51.0396 54.5826 50.9602 53.7711C50.8845 52.9559 50.9765 52.038 51.2362 51.0172C51.4021 50.3427 51.6437 49.7314 51.9611 49.1831C52.2785 48.6313 52.6464 48.1949 53.0648 47.8739C53.4868 47.5528 53.9143 47.3923 54.3471 47.3923C54.4372 47.3923 54.5581 47.4176 54.7096 47.4681C54.8647 47.5186 54.9873 47.5781 55.0775 47.6466ZM56.4079 54.1714C56.5306 54.5934 56.7271 54.8044 56.9976 54.8044C57.3908 54.8044 57.7352 54.6115 58.031 54.2255C58.3917 53.7242 58.7379 52.9343 59.0698 51.8558C59.3836 50.8351 59.499 49.9839 59.416 49.3022C59.3764 48.992 59.297 48.7485 59.178 48.5718C59.059 48.3914 58.9057 48.3013 58.7181 48.3013C58.3105 48.3013 57.948 48.5069 57.6306 48.918C57.2447 49.4302 56.8894 50.249 56.5648 51.3743C56.2438 52.496 56.1915 53.4284 56.4079 54.1714ZM55.3691 53.1002C55.3691 52.1047 55.6036 51.0605 56.0725 49.9676C56.5883 48.7774 57.2122 47.9893 57.9444 47.6033C58.2113 47.4627 58.4855 47.3923 58.7668 47.3923C59.0481 47.3923 59.3673 47.4951 59.7244 47.7007C59.9589 47.8414 60.1194 48.065 60.2059 48.3716C60.2925 48.6782 60.3358 49.1254 60.3358 49.7134C60.3358 50.2977 60.2059 51.0822 59.9462 52.0668C59.4918 53.8017 58.7884 54.8964 57.8362 55.3509C57.5549 55.4879 57.2573 55.5565 56.9435 55.5565C56.6947 55.5565 56.4368 55.4861 56.1699 55.3455C55.6361 55.0641 55.3691 54.3157 55.3691 53.1002ZM62.8411 48.1768C62.8411 48.1768 62.2802 50.3716 61.1585 54.7611C61.2234 54.7684 61.3929 54.772 61.667 54.772C62.1323 54.772 62.5633 54.5033 62.9601 53.9658C63.3568 53.4284 63.676 52.6998 63.9177 51.7801C64.2531 50.4816 64.2766 49.5294 63.988 48.9234C63.9484 48.8405 63.8979 48.7467 63.8365 48.6421C63.6562 48.35 63.3244 48.1949 62.8411 48.1768ZM61.9267 48.2039L61.3586 48.2688C61.218 48.2688 61.1585 48.184 61.1801 48.0145L61.2234 47.7007C61.2414 47.5853 61.3045 47.515 61.4127 47.4897C61.7085 47.432 62.1287 47.4032 62.6733 47.4032C63.4308 47.4032 64.0025 47.6069 64.3884 48.0145C64.7743 48.4221 64.9835 49.0118 65.016 49.7837C65.0593 50.8369 64.8266 51.9712 64.3181 53.1868C64.0007 53.9406 63.6292 54.5105 63.2035 54.8964C62.731 55.3292 62.1594 55.5456 61.4885 55.5456C61.0917 55.5456 60.7924 55.5312 60.5904 55.5023C60.392 55.4735 60.2694 55.4176 60.2225 55.3346C60.1756 55.2481 60.1738 55.12 60.2171 54.9505L61.9267 48.2039ZM67.7035 55.5023C67.7035 55.5023 66.818 55.5023 65.0471 55.5023C64.9569 55.5023 64.892 55.4699 64.8523 55.405C64.8126 55.3364 64.8036 55.2553 64.8252 55.1615L66.5836 48.2472H66.1399C66.0281 48.2472 65.9596 48.2309 65.9343 48.1985C65.9091 48.1624 65.9109 48.0812 65.9398 47.955L66.0101 47.7007C66.0353 47.6033 66.066 47.542 66.1021 47.5168C66.1381 47.4915 66.2067 47.4789 66.3077 47.4789H69.9217C70.0263 47.4789 70.093 47.4987 70.1219 47.5384C70.1544 47.5745 70.158 47.6466 70.1327 47.7548L70.0516 48.0362C70.0191 48.1768 69.9271 48.2472 69.7756 48.2472H67.4871L66.8433 50.7738H68.8018C68.8667 50.7738 68.9136 50.799 68.9425 50.8495C68.9713 50.8964 68.9767 50.9559 68.9587 51.028L68.8775 51.304C68.8415 51.4591 68.7315 51.5366 68.5475 51.5366H66.6485L65.8315 54.7395H67.9578C68.0227 54.7395 68.0696 54.7647 68.0985 54.8152C68.1273 54.8621 68.1327 54.9216 68.1147 54.9938L68.0389 55.2697C68.0029 55.4248 67.8911 55.5023 67.7035 55.5023Z" fill="#EBFF00"/>
<g id="CODE">
<path id="Vector 1" d="M37.5 8.5H45.5" stroke="white"/>
<path id="Vector 2" d="M41.5 10.5L53.5 10.5" stroke="white"/>
<path id="Vector 3" d="M45.5 12.5L59.5 12.5" stroke="white"/>
<path id="Vector 4" d="M45.5 14.5H59.5" stroke="white"/>
<path id="Vector 6" d="M41.5 16.5H53.5" stroke="white"/>
<path id="Vector 7" d="M37.5 18.5H45.5" stroke="white"/>
<path id="Vector 17" d="M37.5 20.5H45.5" stroke="white"/>
<path id="Vector 24" d="M49.5 26.5H66.5" stroke="white"/>
<path id="Vector 25" d="M49.5 28.5H66.5" stroke="white"/>
<path id="Vector 18" d="M41.5 22.5L53.5 22.5" stroke="white"/>
<path id="Vector 19" d="M45.5 24.5L57.5 24.5" stroke="white"/>
<path id="Vector 22" d="M45.5 30.5H57.5" stroke="white"/>
<path id="Vector 23" d="M41.5 32.5H53.5" stroke="white"/>
<path id="Vector 16" d="M37.5 34.5H45.5" stroke="white"/>
</g>
<g id="OUTLINE">
<path id="Vector 27" d="M33 38V5" stroke="white"/>
<path id="Vector 30" d="M19 14H33" stroke="white"/>
<rect id="Rectangle 1" x="18.5" y="4.5" width="52" height="34" stroke="white"/>
</g>
<g id="DIRECTORY">
<rect id="Rectangle 2" x="20" y="16" width="2" height="2" fill="#EBFF00"/>
<path id="Vector 29" d="M23 17H29" stroke="white"/>
<rect id="Rectangle 2_2" x="22" y="19" width="2" height="2" fill="#EBFF00"/>
<rect id="Rectangle 2_3" x="22" y="22" width="2" height="2" fill="#EBFF00"/>
<rect id="Rectangle 2_4" x="20" y="25" width="2" height="2" fill="#EBFF00"/>
<path id="Vector 29_2" d="M23 26H30.5" stroke="white"/>
<rect id="Rectangle 3" x="20" y="28" width="2" height="2" fill="#EBFF00"/>
<path id="Vector 30_2" d="M23 29H30.5" stroke="white"/>
<rect id="Rectangle 2_5" x="20" y="31" width="2" height="2" fill="#EBFF00"/>
<path id="Vector 29_3" d="M23 32H30.5" stroke="white"/>
<path id="Vector 36" d="M23 32H30.5" stroke="white"/>
<rect id="Rectangle 3_2" x="22" y="34" width="2" height="2" fill="#EBFF00"/>
<path id="Vector 39" d="M25 20H31" stroke="white"/>
<path id="Vector 38" d="M25 23H31" stroke="white"/>
<path id="Vector 40" d="M25 35H31" stroke="white"/>
</g>
<g id="TLLINES">
<path id="Vector 33" d="M21 9H30.5" stroke="#EBFF00"/>
<path id="Vector 34" d="M21 11H30.5" stroke="#EBFF00"/>
<path id="Vector 35" d="M21 7H30.5" stroke="#EBFF00"/>
</g>
</g>
<defs>
<clipPath id="clip0_1_2">
<rect width="86" height="56" fill="white"/>
</clipPath>
</defs>
</svg>
