<svg width="86" height="56" viewBox="0 0 86 56" fill="none" xmlns="http://www.w3.org/2000/svg">
<g id="COMPUTERFRAME" clip-path="url(#clip0_2_2)">
<path id="CT1" d="M9.95985 47.1443C10.1294 47.2669 10.2754 47.4905 10.3981 47.8151C10.5243 48.1362 10.5947 48.4139 10.6091 48.6483C10.6271 48.8828 10.6379 49.0216 10.6415 49.0649C10.6488 49.1623 10.573 49.2344 10.4143 49.2813L10.1059 49.3733C10.0338 49.3913 9.95804 49.3715 9.87869 49.3138C9.79934 49.2525 9.75786 49.1713 9.75425 49.0703C9.69655 48.5041 9.57031 48.1019 9.37554 47.8638C9.27815 47.8278 9.16994 47.8097 9.05092 47.8097C8.69023 47.7917 8.32774 48.0478 7.96345 48.578C7.59916 49.1046 7.28717 49.8242 7.02747 50.7367C6.68843 51.8945 6.61629 52.8431 6.81106 53.5825C6.91927 53.9937 7.08338 54.2263 7.3034 54.2804C7.84443 54.2335 8.29168 53.835 8.64515 53.0848C8.65597 53.0631 8.6704 53.0325 8.68843 52.9928C8.71007 52.9495 8.7245 52.9225 8.73171 52.9116C8.73893 52.8972 8.74975 52.8756 8.76417 52.8467C8.78221 52.8142 8.79483 52.7962 8.80205 52.7926C8.80926 52.7854 8.82008 52.7728 8.83451 52.7547C8.84894 52.7367 8.86156 52.7277 8.87238 52.7277C8.88681 52.7277 8.90123 52.7259 8.91566 52.7223C8.9337 52.7151 8.95173 52.7151 8.96976 52.7223C8.99141 52.7295 9.01485 52.7367 9.0401 52.7439C9.06535 52.7475 9.0924 52.7565 9.12125 52.771L9.47292 52.917C9.54145 52.9423 9.57572 53 9.57572 53.0902C9.57932 53.1767 9.55588 53.2669 9.50538 53.3607C9.15912 53.9883 8.82188 54.4337 8.49366 54.697C8.16544 54.9567 7.75786 55.0866 7.27094 55.0866C7.04731 55.0866 6.81106 55.009 6.56219 54.8539C6.16183 54.6087 5.92197 54.0803 5.84262 53.2687C5.76688 52.4536 5.85885 51.5356 6.11855 50.5149C6.28446 49.8404 6.52612 49.229 6.84352 48.6808C7.16093 48.1289 7.52883 47.6925 7.94722 47.3715C8.36922 47.0505 8.79664 46.89 9.22946 46.89C9.31963 46.89 9.44046 46.9152 9.59195 46.9657C9.74704 47.0162 9.86967 47.0757 9.95985 47.1443ZM11.2903 53.6691C11.4129 54.0911 11.6095 54.3021 11.88 54.3021C12.2732 54.3021 12.6176 54.1091 12.9134 53.7232C13.2741 53.2218 13.6203 52.4319 13.9522 51.3535C14.266 50.3327 14.3814 49.4815 14.2984 48.7998C14.2587 48.4896 14.1794 48.2462 14.0604 48.0694C13.9413 47.8891 13.788 47.7989 13.6005 47.7989C13.1929 47.7989 12.8304 48.0045 12.513 48.4157C12.1271 48.9279 11.7718 49.7466 11.4472 50.872C11.1262 51.9937 11.0739 52.9261 11.2903 53.6691ZM10.2515 52.5978C10.2515 51.6023 10.486 50.5582 10.9549 49.4653C11.4706 48.275 12.0946 47.4869 12.8268 47.101C13.0937 46.9603 13.3678 46.89 13.6492 46.89C13.9305 46.89 14.2497 46.9928 14.6068 47.1984C14.8412 47.339 15.0018 47.5627 15.0883 47.8693C15.1749 48.1758 15.2182 48.6231 15.2182 49.211C15.2182 49.7953 15.0883 50.5798 14.8286 51.5645C14.3742 53.2994 13.6708 54.394 12.7186 54.8485C12.4373 54.9856 12.1397 55.0541 11.8259 55.0541C11.577 55.0541 11.3192 54.9838 11.0522 54.8431C10.5184 54.5618 10.2515 53.8133 10.2515 52.5978ZM16.9281 47.22C16.9714 47.0613 17.0778 46.9802 17.2473 46.9766H17.5828C17.7307 46.9766 17.8262 47.092 17.8695 47.3228L18.8488 52.9333L20.3041 47.22C20.3474 47.0577 20.4592 46.9766 20.6396 46.9766H20.9588C21.049 46.9766 21.1139 47.0108 21.1536 47.0794C21.1932 47.1479 21.2022 47.229 21.1806 47.3228L19.287 54.7565C19.2437 54.9188 19.1319 55 18.9516 55H18.5566C18.4628 55 18.4033 54.9567 18.3781 54.8702C18.3637 54.8161 18.3528 54.771 18.3456 54.7349C18.342 54.6988 18.3384 54.6736 18.3348 54.6592L17.3555 49.0703L15.9056 54.7565C15.8623 54.9188 15.7523 55 15.5756 55H15.2509C15.1608 55 15.0958 54.9675 15.0562 54.9026C15.0165 54.8341 15.0075 54.7529 15.0291 54.6592L16.9281 47.22ZM26.3421 47.7773C26.3421 47.7773 25.7758 47.7773 24.6433 47.7773L22.8579 54.7565C22.8146 54.9188 22.7046 55 22.5279 55H22.2086C22.1185 55 22.0535 54.9675 22.0139 54.9026C21.9742 54.8341 21.9652 54.7529 21.9868 54.6592L23.7398 47.7773H21.9868C21.7776 47.7773 21.6965 47.6925 21.7434 47.523L21.8191 47.1984C21.8407 47.1046 21.8732 47.0451 21.9165 47.0198C21.9634 46.991 22.0409 46.9766 22.1491 46.9766H26.4719C26.6956 46.9766 26.7839 47.0812 26.737 47.2904L26.6829 47.5446C26.6541 47.6997 26.5405 47.7773 26.3421 47.7773ZM28.5976 55C28.5976 55 27.7121 55 25.9412 55C25.851 55 25.7861 54.9675 25.7464 54.9026C25.7067 54.8341 25.6977 54.7529 25.7193 54.6592L27.4777 47.7448H27.034C26.9222 47.7448 26.8537 47.7286 26.8284 47.6961C26.8032 47.6601 26.805 47.5789 26.8339 47.4527L26.9042 47.1984C26.9294 47.101 26.9601 47.0397 26.9962 47.0144C27.0322 46.9892 27.1008 46.9766 27.2018 46.9766H30.8158C30.9204 46.9766 30.9871 46.9964 31.016 47.0361C31.0485 47.0721 31.0521 47.1443 31.0268 47.2525L30.9457 47.5338C30.9132 47.6745 30.8212 47.7448 30.6697 47.7448H28.3812L27.7374 50.2714H29.6959C29.7608 50.2714 29.8077 50.2967 29.8366 50.3472C29.8654 50.394 29.8708 50.4536 29.8528 50.5257L29.7716 50.8016C29.7356 50.9567 29.6256 51.0343 29.4416 51.0343H27.5426L26.7256 54.2372H28.8519C28.9168 54.2372 28.9637 54.2624 28.9926 54.3129C29.0214 54.3598 29.0268 54.4193 29.0088 54.4914L28.933 54.7674C28.897 54.9225 28.7852 55 28.5976 55ZM31.9984 47.22C32.0417 47.0613 32.1481 46.9802 32.3176 46.9766H32.6531C32.801 46.9766 32.8965 47.092 32.9398 47.3228L33.9191 52.9333L35.3745 47.22C35.4177 47.0577 35.5295 46.9766 35.7099 46.9766H36.0291C36.1193 46.9766 36.1842 47.0108 36.2239 47.0794C36.2635 47.1479 36.2726 47.229 36.2509 47.3228L34.3573 54.7565C34.314 54.9188 34.2022 55 34.0219 55H33.6269C33.5332 55 33.4736 54.9567 33.4484 54.8702C33.434 54.8161 33.4231 54.771 33.4159 54.7349C33.4123 54.6988 33.4087 54.6736 33.4051 54.6592L32.4259 49.0703L30.9759 54.7565C30.9326 54.9188 30.8226 55 30.6459 55H30.3213C30.2311 55 30.1662 54.9675 30.1265 54.9026C30.0868 54.8341 30.0778 54.7529 30.0994 54.6592L31.9984 47.22ZM41.4124 47.7773C41.4124 47.7773 40.8461 47.7773 39.7136 47.7773L37.9282 54.7565C37.8849 54.9188 37.7749 55 37.5982 55H37.279C37.1888 55 37.1239 54.9675 37.0842 54.9026C37.0445 54.8341 37.0355 54.7529 37.0571 54.6592L38.8101 47.7773H37.0571C36.8479 47.7773 36.7668 47.6925 36.8137 47.523L36.8894 47.1984C36.9111 47.1046 36.9435 47.0451 36.9868 47.0198C37.0337 46.991 37.1112 46.9766 37.2194 46.9766H41.5423C41.7659 46.9766 41.8543 47.0812 41.8074 47.2904L41.7533 47.5446C41.7244 47.6997 41.6108 47.7773 41.4124 47.7773ZM48.0809 47.1443C48.2505 47.2669 48.3965 47.4905 48.5192 47.8151C48.6454 48.1362 48.7157 48.4139 48.7302 48.6483C48.7482 48.8828 48.759 49.0216 48.7626 49.0649C48.7698 49.1623 48.6941 49.2344 48.5354 49.2813L48.227 49.3733C48.1549 49.3913 48.0791 49.3715 47.9998 49.3138C47.9204 49.2525 47.879 49.1713 47.8753 49.0703C47.8176 48.5041 47.6914 48.1019 47.4966 47.8638C47.3992 47.8278 47.291 47.8097 47.172 47.8097C46.8113 47.7917 46.4488 48.0478 46.0845 48.578C45.7203 49.1046 45.4083 49.8242 45.1486 50.7367C44.8095 51.8945 44.7374 52.8431 44.9322 53.5825C45.0404 53.9937 45.2045 54.2263 45.4245 54.2804C45.9655 54.2335 46.4128 53.835 46.7662 53.0848C46.7771 53.0631 46.7915 53.0325 46.8095 52.9928C46.8312 52.9495 46.8456 52.9225 46.8528 52.9116C46.86 52.8972 46.8708 52.8756 46.8853 52.8467C46.9033 52.8142 46.9159 52.7962 46.9231 52.7926C46.9304 52.7854 46.9412 52.7728 46.9556 52.7547C46.97 52.7367 46.9827 52.7277 46.9935 52.7277C47.0079 52.7277 47.0223 52.7259 47.0368 52.7223C47.0548 52.7151 47.0728 52.7151 47.0909 52.7223C47.1125 52.7295 47.1359 52.7367 47.1612 52.7439C47.1864 52.7475 47.2135 52.7565 47.2423 52.771L47.594 52.917C47.6625 52.9423 47.6968 53 47.6968 53.0902C47.7004 53.1767 47.677 53.2669 47.6265 53.3607C47.2802 53.9883 46.943 54.4337 46.6148 54.697C46.2865 54.9567 45.879 55.0866 45.392 55.0866C45.1684 55.0866 44.9322 55.009 44.6833 54.8539C44.2829 54.6087 44.0431 54.0803 43.9637 53.2687C43.888 52.4536 43.9799 51.5356 44.2396 50.5149C44.4056 49.8404 44.6472 49.229 44.9646 48.6808C45.282 48.1289 45.6499 47.6925 46.0683 47.3715C46.4903 47.0505 46.9177 46.89 47.3506 46.89C47.4407 46.89 47.5616 46.9152 47.713 46.9657C47.8681 47.0162 47.9908 47.0757 48.0809 47.1443ZM50.2364 50.7313L50.9289 50.6988C51.4303 50.6772 51.8144 50.4608 52.0813 50.0496C52.3374 49.6564 52.4655 49.1208 52.4655 48.4427C52.4655 48.2516 52.4005 48.0911 52.2707 47.9612C52.1445 47.8314 51.9677 47.7647 51.7405 47.761C51.5133 47.7574 51.2662 47.7538 50.9993 47.7502L50.2364 50.7313ZM50.0958 47.7448C49.9803 47.7448 49.8685 47.7448 49.7603 47.7448C49.6521 47.7448 49.5764 47.7142 49.5331 47.6528C49.4898 47.5879 49.479 47.514 49.5006 47.431L49.5547 47.1984C49.5692 47.1335 49.6034 47.0812 49.6575 47.0415C49.7116 46.9982 49.7621 46.9766 49.809 46.9766H51.6918C52.2004 46.9766 52.6079 47.1046 52.9145 47.3607C53.2211 47.6132 53.3744 47.9883 53.3744 48.486C53.3744 48.9838 53.2788 49.4509 53.0876 49.8873C52.9001 50.3237 52.6927 50.6357 52.4655 50.8233C52.2418 51.0072 52.0705 51.1298 51.9515 51.1912C51.8325 51.2489 51.7026 51.3012 51.5619 51.3481L52.0705 54.6213C52.1102 54.8738 52.029 55 51.8271 55H51.4483C51.3509 55 51.2806 54.9711 51.2373 54.9134C51.1977 54.8557 51.1688 54.7547 51.1508 54.6105L50.7342 51.4833L50.0417 51.4941L49.2085 54.7565C49.1652 54.9188 49.0552 55 48.8784 55H48.5592C48.4691 55 48.4041 54.9675 48.3645 54.9026C48.3248 54.8341 48.3158 54.7529 48.3374 54.6592L50.0958 47.7448ZM56.207 55C56.207 55 55.3215 55 53.5505 55C53.4604 55 53.3954 54.9675 53.3558 54.9026C53.3161 54.8341 53.3071 54.7529 53.3287 54.6592L55.0871 47.7448H54.6434C54.5316 47.7448 54.4631 47.7286 54.4378 47.6961C54.4126 47.6601 54.4144 47.5789 54.4432 47.4527L54.5136 47.1984C54.5388 47.101 54.5695 47.0397 54.6055 47.0144C54.6416 46.9892 54.7101 46.9766 54.8111 46.9766H58.4252C58.5298 46.9766 58.5965 46.9964 58.6254 47.0361C58.6578 47.0721 58.6614 47.1443 58.6362 47.2525L58.555 47.5338C58.5226 47.6745 58.4306 47.7448 58.2791 47.7448H55.9906L55.3467 50.2714H57.3053C57.3702 50.2714 57.4171 50.2967 57.4459 50.3472C57.4748 50.394 57.4802 50.4536 57.4622 50.5257L57.381 50.8016C57.3449 50.9567 57.2349 51.0343 57.051 51.0343H55.152L54.335 54.2372H56.4613C56.5262 54.2372 56.5731 54.2624 56.6019 54.3129C56.6308 54.3598 56.6362 54.4193 56.6182 54.4914L56.5424 54.7674C56.5063 54.9225 56.3945 55 56.207 55ZM59.2075 52.5978L58.1362 54.7782C58.0569 54.9441 57.9198 55.018 57.725 55L57.4708 54.9784C57.3409 54.9748 57.2561 54.9261 57.2165 54.8323C57.1768 54.7385 57.184 54.6465 57.2381 54.5564L60.9279 47.4418C61.083 47.1461 61.2868 46.9982 61.5393 46.9982L61.9829 46.9874C62.1164 46.9874 62.221 47.0325 62.2967 47.1226C62.3725 47.2128 62.4049 47.3463 62.3941 47.523L62.0046 54.7565C61.9974 54.9188 61.8873 55 61.6745 55L61.2958 54.9892C61.1155 54.9892 61.0307 54.89 61.0415 54.6916L61.1822 52.5978H59.2075ZM59.6024 51.7971H61.2363L61.4906 47.945L59.6024 51.7971ZM67.8499 47.7773C67.8499 47.7773 67.2836 47.7773 66.1511 47.7773L64.3657 54.7565C64.3224 54.9188 64.2124 55 64.0357 55H63.7165C63.6263 55 63.5614 54.9675 63.5217 54.9026C63.482 54.8341 63.473 54.7529 63.4946 54.6592L65.2476 47.7773H63.4946C63.2854 47.7773 63.2043 47.6925 63.2512 47.523L63.3269 47.1984C63.3486 47.1046 63.381 47.0451 63.4243 47.0198C63.4712 46.991 63.5487 46.9766 63.6569 46.9766H67.9798C68.2034 46.9766 68.2918 47.0812 68.2449 47.2904L68.1908 47.5446C68.1619 47.6997 68.0483 47.7773 67.8499 47.7773ZM69.0883 47.22C69.1316 47.0577 69.2416 46.9766 69.4183 46.9766H69.7429C69.8331 46.9766 69.8962 47.0108 69.9323 47.0794C69.972 47.1479 69.981 47.229 69.9593 47.3228L68.0657 54.7565C68.0225 54.9188 67.9124 55 67.7357 55H67.4111C67.3209 55 67.256 54.9675 67.2163 54.9026C67.1767 54.8341 67.1676 54.7529 67.1893 54.6592L69.0883 47.22ZM70.8567 53.6691C70.9793 54.0911 71.1759 54.3021 71.4464 54.3021C71.8396 54.3021 72.184 54.1091 72.4798 53.7232C72.8405 53.2218 73.1867 52.4319 73.5186 51.3535C73.8324 50.3327 73.9478 49.4815 73.8648 48.7998C73.8251 48.4896 73.7458 48.2462 73.6268 48.0694C73.5077 47.8891 73.3545 47.7989 73.1669 47.7989C72.7593 47.7989 72.3968 48.0045 72.0794 48.4157C71.6935 48.9279 71.3382 49.7466 71.0136 50.872C70.6926 51.9937 70.6403 52.9261 70.8567 53.6691ZM69.8179 52.5978C69.8179 51.6023 70.0524 50.5582 70.5213 49.4653C71.037 48.275 71.661 47.4869 72.3932 47.101C72.6601 46.9603 72.9343 46.89 73.2156 46.89C73.4969 46.89 73.8161 46.9928 74.1732 47.1984C74.4077 47.339 74.5682 47.5627 74.6547 47.8693C74.7413 48.1758 74.7846 48.6231 74.7846 49.211C74.7846 49.7953 74.6547 50.5798 74.395 51.5645C73.9406 53.2994 73.2372 54.394 72.285 54.8485C72.0037 54.9856 71.7061 55.0541 71.3923 55.0541C71.1434 55.0541 70.8856 54.9838 70.6187 54.8431C70.0848 54.5618 69.8179 53.8133 69.8179 52.5978ZM76.4945 47.22C76.5378 47.0613 76.6442 46.9802 76.8137 46.9766H77.1492C77.2971 46.9766 77.3926 47.092 77.4359 47.3228L78.4152 52.9333L79.8705 47.22C79.9138 47.0577 80.0256 46.9766 80.206 46.9766H80.5252C80.6154 46.9766 80.6803 47.0108 80.72 47.0794C80.7596 47.1479 80.7687 47.229 80.747 47.3228L78.8534 54.7565C78.8101 54.9188 78.6983 55 78.518 55H78.123C78.0292 55 77.9697 54.9567 77.9445 54.8702C77.9301 54.8161 77.9192 54.771 77.912 54.7349C77.9084 54.6988 77.9048 54.6736 77.9012 54.6592L76.9219 49.0703L75.472 54.7565C75.4287 54.9188 75.3187 55 75.142 55H74.8173C74.7272 55 74.6623 54.9675 74.6226 54.9026C74.5829 54.8341 74.5739 54.7529 74.5955 54.6592L76.4945 47.22Z" fill="#EBFF00"/>
<path id="OUTER-SCREEN" d="M13 5.07581C13 4.48166 13.4461 4 13.9964 4H71.0037C71.5539 4 72 4.48166 72 5.07581V36.9242C72 37.5183 71.5539 38 71.0036 38H13.9964C13.4461 38 13 37.5183 13 36.9242V5.07581Z" fill="white"/>
<g id="INNER-SCREEN">
<rect id="Rectangle 1" x="14.2593" y="5.25926" width="56.6667" height="31.4815" rx="1" fill="black"/>
<rect id="Rectangle 2" x="16.6846" y="7.71723" width="23.0408" height="8.60289" fill="#FAFF00"/>
<rect id="Rectangle 3" x="44.5761" y="7.71723" width="23.0408" height="25.8087" fill="#FAFF00"/>
<path id="Vector 4" d="M21.666 26.6143H28.3357" stroke="white"/>
<path id="Vector 5" d="M18.028 28.5532H28.3357" stroke="white"/>
<path id="Vector 6" d="M16.6846 30.4921L28.3357 30.5211" stroke="white"/>
<path id="Vector 1" d="M16.6846 18.4088H34.2684" stroke="white"/>
<path id="Vector 2" d="M16.6846 20.342H39.7254" stroke="white"/>
<path id="Vector 3" d="M16.6846 22.2751H30.024" stroke="white"/>
<ellipse id="Ellipse 1" cx="34.8747" cy="27.381" rx="4.8507" ry="4.91594" fill="#FAFF00"/>
<path id="Vector 7" d="M47.2067 17.3411L57.9155 6.48825L70.0423 18.7781" stroke="black"/>
<path id="Vector 8" d="M68.8296 30.4534L60.3409 21.8506L56.0965 26.152L42.1508 12.0187" stroke="black"/>
</g>
</g>
<defs>
<clipPath id="clip0_2_2">
<rect width="86" height="56" fill="white"/>
</clipPath>
</defs>
</svg>
