<svg width="74" height="39" viewBox="0 0 74 39" fill="none" xmlns="http://www.w3.org/2000/svg">
<path d="M33.9391 14.5461H25.0613C24.9429 13.6346 24.7003 12.8119 24.3333 12.078C23.9664 11.3441 23.481 10.7168 22.8774 10.1959C22.2737 9.6751 21.5575 9.27856 20.7289 9.00631C19.9122 8.72222 19.0066 8.58017 18.0123 8.58017C16.2486 8.58017 14.7275 9.01222 13.4491 9.87634C12.1825 10.7404 11.206 11.9893 10.5194 13.6228C9.84468 15.2563 9.50732 17.2331 9.50732 19.5532C9.50732 21.968 9.8506 23.9921 10.5372 25.6256C11.2355 27.2473 12.2121 28.4725 13.4668 29.3011C14.7334 30.1178 16.2308 30.5262 17.959 30.5262C18.9297 30.5262 19.8115 30.4019 20.6046 30.1533C21.4095 29.9047 22.1139 29.5437 22.7176 29.0702C23.3331 28.5849 23.8362 27.999 24.2268 27.3124C24.6292 26.614 24.9074 25.8269 25.0613 24.9509L33.9391 25.0042C33.7853 26.614 33.3177 28.2002 32.5364 29.7627C31.767 31.3252 30.7076 32.7516 29.3582 34.0418C28.0087 35.3202 26.3634 36.3382 24.4221 37.0958C22.4926 37.8534 20.2791 38.2322 17.7815 38.2322C14.4908 38.2322 11.5433 37.5101 8.93914 36.066C6.34681 34.61 4.29899 32.4912 2.79568 29.7094C1.29236 26.9277 0.540705 23.5423 0.540705 19.5532C0.540705 15.5522 1.3042 12.1609 2.83119 9.37918C4.35818 6.59745 6.42375 4.48453 9.02792 3.0404C11.6321 1.59627 14.5499 0.874204 17.7815 0.874204C19.9832 0.874204 22.0192 1.18197 23.8894 1.7975C25.7597 2.40119 27.4051 3.28898 28.8255 4.46085C30.246 5.62089 31.4001 7.04726 32.2879 8.73997C33.1756 10.4327 33.7261 12.368 33.9391 14.5461ZM47.2248 1.37136L55.3569 28.0049H55.6588L63.7909 1.37136H73.6275L61.3584 37.735H49.6574L37.3882 1.37136H47.2248Z" fill="black"/>
</svg>
