<svg width="84" height="84" viewBox="0 0 84 84" fill="none" xmlns="http://www.w3.org/2000/svg">
<g id="DLOGOMENU">
<circle id="Circle" cx="42" cy="42" r="38.8564" stroke="#EBFF00"/>
<g id="Group 1">
<path id="DRight" d="M24.5 42L24.5 44C25.1081 44 30.1554 44 31 44C31.5068 44 31.3919 44 32 44C32.6081 44 31.9189 44 33 44C34.2163 44 32.709 44 34.35 44H49.65C51.3167 44 50.1336 44 51.0143 44C51.895 44 51.0675 44 52 44C53.4247 44 51.7826 44 53 44C54.2174 44 58.0465 44 59.5 44L59.5 43.6651V42C57.8107 42 54.4675 42 53 42C51.1259 42 53.8197 42 52 42C50.3398 42 52.6643 42 51.0143 42C49.3643 42 51.85 42 49.65 42H34.35C32.0167 42 34.6893 42 33 42C31.6824 42 33.0811 42 32 42C30.9189 42 32.4528 42 31 42C29.4797 42 26.1217 42 24.5 42ZM24.5 61.6L59.5 61.6V58.55L24.5 58.55V61.6Z" fill="white"/>
<path id="DLeft" d="M24.5 22.4L24.5 25.4C25.1081 25.4 30.1554 25.4 31 25.4C31.5068 25.4 31.3919 25.4 32 25.4C32.6081 25.4 31.9189 25.4 33 25.4C34.2163 25.4 32.709 25.4 34.35 25.4H49.65C51.3167 25.4 50.1336 25.4 51.0143 25.4C51.895 25.4 51.0675 25.4 52 25.4C53.4247 25.4 51.7826 25.4 53 25.4C54.2174 25.4 58.0465 25.4 59.5 25.4V24.0651V22.4C57.8107 22.4 54.4675 22.4 53 22.4C51.1259 22.4 53.8197 22.4 52 22.4C50.3398 22.4 52.6643 22.4 51.0143 22.4C49.3643 22.4 51.85 22.4 49.65 22.4H34.35C32.0167 22.4 34.6893 22.4 33 22.4C31.6824 22.4 33.0811 22.4 32 22.4C30.9189 22.4 32.4528 22.4 31 22.4C29.4797 22.4 26.1217 22.4 24.5 22.4ZM24.5 42L59.5 42V40H42L24.5 40V42Z" fill="#EBFF00"/>
</g>
</g>
</svg>
