<svg width="84" height="84" viewBox="0 0 84 84" fill="none" xmlns="http://www.w3.org/2000/svg">
<g id="DLOGOSMALL2">
<circle id="Circle" cx="42" cy="42" r="38.8564" stroke="#EBFF00"/>
<g id="Group 1">
<path id="DRight" d="M56 59.5V56.55C56 55.7235 56 55.0816 56 54.3383C56 53.595 56 53.0207 56 52.311C56 50.6557 56 51.2183 56 50.1599C56 49.1016 56 48.0133 56 46.3466V43.12C56 41.4533 56 40.5201 56 39.439C56 38.3579 56 36.4997 56 35.3172C56 34.1347 56 29.7088 56 31.0935C56 32.3103 56 28.3574 56 27.45V24.5C57.9333 24.5 58.5137 24.5 60.3043 24.5C62.0949 24.5 59.3083 24.5 60.7611 24.5C62.2138 24.5 59.8479 24.5 61.2331 24.5C62.348 24.5 61.5834 24.5 62 24.5V59.5C61.252 59.5 61.7039 59.5 60.8491 59.5C59.5021 59.5 61.7051 59.5 60.4099 59.5C58.9593 59.5 61.696 59.5 59.768 59.5C58.0066 59.5 57.7667 59.5 56 59.5ZM41.8956 59.5V24.5H44.9456V59.5H41.8956Z" fill="black"/>
<path id="DLeft" d="M28 59.5V56.55C28 55.7235 28 55.0816 28 54.3383C28 53.595 28 53.0207 28 52.311C28 50.6557 28 51.2183 28 50.1599C28 49.1016 28 48.0133 28 46.3466V43.12C28 41.4534 28 40.5201 28 39.439C28 38.3579 28 36.4997 28 35.3172C28 34.1347 28 29.7088 28 31.0935C28 32.3103 28 28.3574 28 27.45V24.5C26.0667 24.5 25.4863 24.5 23.6957 24.5C21.9051 24.5 24.6917 24.5 23.2389 24.5C21.7861 24.5 24.1521 24.5 22.7669 24.5C21.652 24.5 22.4166 24.5 22 24.5V59.5C22.748 59.5 22.2961 59.5 23.1509 59.5C24.4978 59.5 22.2949 59.5 23.5901 59.5C25.0407 59.5 22.304 59.5 24.232 59.5C25.9934 59.5 26.2333 59.5 28 59.5ZM42.1044 59.5V24.5H39.0544V59.5H42.1044Z" fill="#EBFF00"/>
</g>
</g>
</svg>
