<svg width="84" height="84" viewBox="0 0 84 84" fill="none" xmlns="http://www.w3.org/2000/svg">
<g id="DLOGOSMALL">
<circle id="Circle" cx="42" cy="42" r="38.8564" stroke="#EBFF00"/>
<g id="Group 1">
<path id="DRight" d="M49.35 57.5V54.55C50.8167 54.55 52.2167 54.5 53.55 54.4C54.8833 54.3 56.0833 54.05 57.15 53.65C58.2167 53.2167 59.05 52.5333 59.65 51.6C60.2833 50.6333 60.6 49.3167 60.6 47.65V32.35C60.6 30.6833 60.2833 29.3833 59.65 28.45C59.05 27.5167 58.2333 26.8333 57.2 26.4C56.1667 25.9667 54.9667 25.7 53.6 25.6C52.2667 25.5 50.85 25.45 49.35 25.45V22.5C51.2833 22.5 53.1 22.6167 54.8 22.85C56.5 23.05 58 23.4833 59.3 24.15C60.6333 24.8167 61.6833 25.8 62.45 27.1C63.2167 28.4 63.6 30.15 63.6 32.35V47.65C63.6 49.9833 63.2 51.8167 62.4 53.15C61.6 54.4833 60.5 55.4667 59.1 56.1C57.7333 56.7 56.2 57.0833 54.5 57.25C52.8333 57.4167 51.1167 57.5 49.35 57.5ZM44 57.5V22.5H47.05V57.5H44Z" fill="black"/>
<path id="DLeft" d="M34.65 57.5V54.55C33.1833 54.55 31.7833 54.5 30.45 54.4C29.1167 54.3 27.9167 54.05 26.85 53.65C25.7833 53.2167 24.95 52.5333 24.35 51.6C23.7167 50.6333 23.4 49.3167 23.4 47.65V32.35C23.4 30.6833 23.7167 29.3833 24.35 28.45C24.95 27.5167 25.7667 26.8333 26.8 26.4C27.8333 25.9667 29.0333 25.7 30.4 25.6C31.7333 25.5 33.15 25.45 34.65 25.45V22.5C32.7167 22.5 30.9 22.6167 29.2 22.85C27.5 23.05 26 23.4833 24.7 24.15C23.3667 24.8167 22.3167 25.8 21.55 27.1C20.7833 28.4 20.4 30.15 20.4 32.35V47.65C20.4 49.9833 20.8 51.8167 21.6 53.15C22.4 54.4833 23.5 55.4667 24.9 56.1C26.2667 56.7 27.8 57.0833 29.5 57.25C31.1667 57.4167 32.8833 57.5 34.65 57.5ZM40 57.5V22.5H36.95V57.5H40Z" fill="#EBFF00"/>
</g>
</g>
</svg>
