<svg width="86" height="56" viewBox="0 0 86 56" fill="none" xmlns="http://www.w3.org/2000/svg">
<g id="DOMAINFRAME" clip-path="url(#clip0_1_2)">
<path id="DomainT1" d="M24.2215 47.6745C24.2215 47.6745 23.6606 49.8693 22.5389 54.2588C22.6038 54.266 22.7733 54.2696 23.0475 54.2696C23.5127 54.2696 23.9438 54.0009 24.3405 53.4635C24.7373 52.9261 25.0565 52.1975 25.2981 51.2777C25.6336 49.9793 25.657 49.0271 25.3685 48.4211C25.3288 48.3381 25.2783 48.2444 25.217 48.1398C25.0366 47.8476 24.7048 47.6925 24.2215 47.6745ZM23.3071 47.7015L22.7391 47.7665C22.5984 47.7665 22.5389 47.6817 22.5605 47.5122L22.6038 47.1984C22.6218 47.083 22.685 47.0126 22.7932 46.9874C23.0889 46.9297 23.5091 46.9008 24.0538 46.9008C24.8112 46.9008 25.3829 47.1046 25.7688 47.5122C26.1548 47.9197 26.364 48.5095 26.3964 49.2813C26.4397 50.3345 26.2071 51.4689 25.6985 52.6844C25.3811 53.4382 25.0096 54.0081 24.584 54.394C24.1115 54.8269 23.5398 55.0433 22.8689 55.0433C22.4722 55.0433 22.1728 55.0289 21.9708 55C21.7724 54.9711 21.6498 54.9152 21.6029 54.8323C21.556 54.7457 21.5542 54.6177 21.5975 54.4482L23.3071 47.7015ZM28.0668 47.22C28.1101 47.0613 28.2165 46.9802 28.386 46.9766H28.7214C28.8693 46.9766 28.9649 47.092 29.0082 47.3228L29.9874 52.9333L31.4428 47.22C31.4861 47.0577 31.5979 46.9766 31.7783 46.9766H32.0975C32.1876 46.9766 32.2526 47.0108 32.2922 47.0794C32.3319 47.1479 32.3409 47.229 32.3193 47.3228L30.4257 54.7565C30.3824 54.9188 30.2706 55 30.0902 55H29.6953C29.6015 55 29.542 54.9567 29.5168 54.8702C29.5023 54.8161 29.4915 54.771 29.4843 54.7349C29.4807 54.6988 29.4771 54.6736 29.4735 54.6592L28.4942 49.0703L27.0443 54.7565C27.001 54.9188 26.891 55 26.7142 55H26.3896C26.2994 55 26.2345 54.9675 26.1948 54.9026C26.1552 54.8341 26.1461 54.7529 26.1678 54.6592L28.0668 47.22ZM35.598 46.8575C36.0777 46.8575 36.4167 47.0541 36.6151 47.4472C36.8135 47.8404 36.9127 48.4049 36.9127 49.1407C36.9127 49.3246 36.8514 49.4346 36.7287 49.4707L36.3392 49.5951C36.2779 49.6132 36.2184 49.6023 36.1607 49.5627C36.103 49.523 36.0741 49.4563 36.0741 49.3625C36.0741 48.385 35.9154 47.8224 35.598 47.6745C35.4501 47.5987 35.2734 47.6114 35.0678 47.7124C34.8622 47.8097 34.653 48.0478 34.4402 48.4265C34.2274 48.8016 34.1138 49.2308 34.0993 49.7142C34.0921 49.9089 34.1246 50.0586 34.1967 50.1632C34.2689 50.2642 34.4095 50.3508 34.6187 50.4229L35.0732 50.5798C35.5096 50.7277 35.7964 50.908 35.9334 51.1208C36.0561 51.3156 36.1174 51.6312 36.1174 52.0676C36.1174 52.5005 36.0002 52.9657 35.7657 53.4635C35.5349 53.9612 35.2211 54.3724 34.8243 54.697C34.4276 55.018 34.0128 55.1785 33.58 55.1785C32.7071 55.1785 32.2707 54.4698 32.2707 53.0523V53.0144C32.2707 52.7331 32.3266 52.578 32.4384 52.5491L32.8496 52.4193C32.9217 52.3904 32.9812 52.3959 33.0281 52.4355C33.0786 52.4752 33.1039 52.5401 33.1039 52.6303C33.1039 53.211 33.1381 53.6492 33.2066 53.945C33.2752 54.2372 33.3888 54.4229 33.5475 54.5023C33.6593 54.5275 33.8036 54.5023 33.9803 54.4265C34.2797 54.2931 34.5484 54.0171 34.7865 53.5987C35.0786 53.0938 35.2193 52.5221 35.2085 51.8837C35.2048 51.6889 35.0966 51.5338 34.8838 51.4184C34.7756 51.3643 34.6223 51.3066 34.424 51.2453L33.9587 51.0992C33.7495 51.0379 33.5691 50.9206 33.4177 50.7475C33.2662 50.5744 33.1904 50.3399 33.1904 50.0442C33.1904 49.7484 33.2499 49.413 33.369 49.0379C33.4916 48.6592 33.6539 48.3075 33.8559 47.9829C34.0615 47.6583 34.3176 47.3895 34.6241 47.1767C34.9343 46.9639 35.2589 46.8575 35.598 46.8575ZM43.3324 46.8575C43.8121 46.8575 44.1511 47.0541 44.3495 47.4472C44.5479 47.8404 44.6471 48.4049 44.6471 49.1407C44.6471 49.3246 44.5857 49.4346 44.4631 49.4707L44.0736 49.5951C44.0123 49.6132 43.9527 49.6023 43.895 49.5627C43.8373 49.523 43.8085 49.4563 43.8085 49.3625C43.8085 48.385 43.6498 47.8224 43.3324 47.6745C43.1845 47.5987 43.0078 47.6114 42.8022 47.7124C42.5966 47.8097 42.3874 48.0478 42.1746 48.4265C41.9618 48.8016 41.8481 49.2308 41.8337 49.7142C41.8265 49.9089 41.859 50.0586 41.9311 50.1632C42.0032 50.2642 42.1439 50.3508 42.3531 50.4229L42.8076 50.5798C43.244 50.7277 43.5307 50.908 43.6678 51.1208C43.7904 51.3156 43.8518 51.6312 43.8518 52.0676C43.8518 52.5005 43.7345 52.9657 43.5001 53.4635C43.2692 53.9612 42.9555 54.3724 42.5587 54.697C42.1619 55.018 41.7472 55.1785 41.3143 55.1785C40.4415 55.1785 40.005 54.4698 40.005 53.0523V53.0144C40.005 52.7331 40.061 52.578 40.1728 52.5491L40.5839 52.4193C40.6561 52.3904 40.7156 52.3959 40.7625 52.4355C40.813 52.4752 40.8382 52.5401 40.8382 52.6303C40.8382 53.211 40.8725 53.6492 40.941 53.945C41.0096 54.2372 41.1232 54.4229 41.2819 54.5023C41.3937 54.5275 41.538 54.5023 41.7147 54.4265C42.0141 54.2931 42.2828 54.0171 42.5208 53.5987C42.813 53.0938 42.9536 52.5221 42.9428 51.8837C42.9392 51.6889 42.831 51.5338 42.6182 51.4184C42.51 51.3643 42.3567 51.3066 42.1583 51.2453L41.6931 51.0992C41.4839 51.0379 41.3035 50.9206 41.152 50.7475C41.0005 50.5744 40.9248 50.3399 40.9248 50.0442C40.9248 49.7484 40.9843 49.413 41.1033 49.0379C41.226 48.6592 41.3883 48.3075 41.5903 47.9829C41.7958 47.6583 42.0519 47.3895 42.3585 47.1767C42.6687 46.9639 42.9933 46.8575 43.3324 46.8575ZM47.4003 55C47.4003 55 46.5149 55 44.7439 55C44.6537 55 44.5888 54.9675 44.5491 54.9026C44.5094 54.8341 44.5004 54.7529 44.5221 54.6592L46.2804 47.7448H45.8368C45.725 47.7448 45.6564 47.7286 45.6312 47.6961C45.6059 47.6601 45.6077 47.5789 45.6366 47.4527L45.7069 47.1984C45.7322 47.101 45.7628 47.0397 45.7989 47.0144C45.835 46.9892 45.9035 46.9766 46.0045 46.9766H49.6186C49.7232 46.9766 49.7899 46.9964 49.8187 47.0361C49.8512 47.0721 49.8548 47.1443 49.8296 47.2525L49.7484 47.5338C49.7159 47.6745 49.624 47.7448 49.4725 47.7448H47.1839L46.5401 50.2714H48.4986C48.5635 50.2714 48.6104 50.2967 48.6393 50.3472C48.6681 50.394 48.6736 50.4536 48.6555 50.5257L48.5744 50.8016C48.5383 50.9567 48.4283 51.0343 48.2443 51.0343H46.3453L45.5284 54.2372H47.6546C47.7195 54.2372 47.7664 54.2624 47.7953 54.3129C47.8241 54.3598 47.8296 54.4193 47.8115 54.4914L47.7358 54.7674C47.6997 54.9225 47.5879 55 47.4003 55ZM54.4964 47.7773C54.4964 47.7773 53.9301 47.7773 52.7976 47.7773L51.0122 54.7565C50.9689 54.9188 50.8589 55 50.6821 55H50.3629C50.2728 55 50.2078 54.9675 50.1682 54.9026C50.1285 54.8341 50.1195 54.7529 50.1411 54.6592L51.8941 47.7773H50.1411C49.9319 47.7773 49.8508 47.6925 49.8977 47.523L49.9734 47.1984C49.995 47.1046 50.0275 47.0451 50.0708 47.0198C50.1177 46.991 50.1952 46.9766 50.3034 46.9766H54.6262C54.8499 46.9766 54.9382 47.0812 54.8913 47.2904L54.8372 47.5446C54.8084 47.6997 54.6948 47.7773 54.4964 47.7773ZM55.1992 54.6808C54.6834 54.1326 54.595 53.2092 54.934 51.9107L56.1297 47.22C56.173 47.0577 56.2848 46.9766 56.4652 46.9766H56.7844C56.8745 46.9766 56.9395 47.0108 56.9791 47.0794C57.0188 47.1479 57.0278 47.229 57.0062 47.3228L55.7564 52.2624C55.3993 53.6583 55.65 54.3562 56.5084 54.3562C56.8655 54.3562 57.1793 54.2101 57.4498 53.9179C57.7203 53.6222 57.9494 53.1118 58.1369 52.3868L59.457 47.22C59.5003 47.0577 59.6103 46.9766 59.7871 46.9766H60.063C60.1532 46.9766 60.2163 47.0108 60.2524 47.0794C60.2884 47.1479 60.2956 47.229 60.274 47.3228L58.9809 52.4626C58.6996 53.6096 58.2415 54.3724 57.6067 54.7511C57.2424 54.9675 56.8132 55.0757 56.3191 55.0757C55.8285 55.0757 55.4552 54.9441 55.1992 54.6808ZM61.1975 50.9206L61.8143 50.8882C62.4022 50.8665 62.8098 50.6447 63.037 50.2227C63.1813 49.9558 63.2895 49.651 63.3616 49.3084C63.4374 48.9621 63.4752 48.6736 63.4752 48.4427C63.4752 48.0063 63.2246 47.7773 62.7232 47.7556C62.5609 47.7484 62.3228 47.743 62.009 47.7394L61.1975 50.9206ZM61.1109 47.734C60.9883 47.734 60.8711 47.734 60.7593 47.734C60.6511 47.734 60.5753 47.7033 60.532 47.642C60.4888 47.5771 60.4779 47.5032 60.4996 47.4202L60.5645 47.1984C60.5789 47.1335 60.6132 47.0812 60.6673 47.0415C60.7214 46.9982 60.7719 46.9766 60.8188 46.9766H62.5555C63.1506 46.9766 63.6015 47.101 63.9081 47.3499C64.2182 47.5987 64.3733 48.0063 64.3733 48.5726C64.3733 48.991 64.2832 49.4527 64.1028 49.9576C63.9261 50.4626 63.7133 50.8106 63.4644 51.0018C63.3418 51.0956 63.2552 51.1605 63.2047 51.1966C63.1578 51.229 63.0424 51.2885 62.8585 51.3751C62.6745 51.4617 62.4924 51.523 62.312 51.5591C61.9333 51.6348 61.4969 51.6763 61.0027 51.6835L60.2182 54.7565C60.175 54.9188 60.0649 55 59.8882 55H59.569C59.4788 55 59.4139 54.9675 59.3742 54.9026C59.3346 54.8341 59.3255 54.7529 59.3472 54.6592L61.1109 47.734Z" fill="#FAFF00"/>
<path id="Subtract" fill-rule="evenodd" clip-rule="evenodd" d="M55.0515 8.47537C52.2207 5.23649 48.1053 3.14903 43.5 3.00766V3.04019C45.7882 3.40931 47.7728 6.29224 48.9283 10.4881C50.8222 10.1457 52.513 9.64604 53.9129 9.03359C54.3215 8.85483 54.7013 8.6682 55.0515 8.47537ZM42.5 3.00766V3.04019C40.2118 3.40931 38.2272 6.29224 37.0717 10.4881C35.1778 10.1457 33.487 9.64604 32.0871 9.03359C31.6785 8.85483 31.2987 8.6682 30.9485 8.47537C33.7793 5.23649 37.8947 3.14903 42.5 3.00766ZM40.9703 4.97631C41.4974 4.46679 42.0105 4.17559 42.5 4.05946V10.9966C40.9475 10.9751 39.4585 10.8544 38.0645 10.6503C38.326 9.71744 38.6291 8.85815 38.9664 8.08711C39.5668 6.71479 40.2559 5.66703 40.9703 4.97631ZM43.5 4.05946V10.9966C45.0525 10.9751 46.5415 10.8544 47.9355 10.6503C47.674 9.71744 47.3709 8.85815 47.0336 8.08711C46.4332 6.71479 45.7441 5.66703 45.0297 4.97631C44.5026 4.46679 43.9895 4.17559 43.5 4.05946ZM37.8132 11.624C39.2899 11.8453 40.864 11.9747 42.5 11.9966V19.5H37.0034C37.0012 19.334 37 19.1674 37 19C37 16.3108 37.2981 13.7988 37.8132 11.624ZM36.0034 19.5C36.0011 19.334 36 19.1673 36 19C36 16.2735 36.2984 13.7062 36.8245 11.4596C34.2352 10.9852 31.9914 10.2215 30.3045 9.26087C28.232 11.9584 27 15.3353 27 19C27 19.1673 27.0026 19.334 27.0077 19.5H36.0034ZM27.0694 20.5H36.0304C36.1506 23.4568 36.6229 26.1801 37.3504 28.4489C35.1228 28.8168 33.1321 29.3959 31.5059 30.1304C29.0428 27.5874 27.4161 24.2294 27.0694 20.5ZM37.0312 20.5H42.5V28.0034C41.062 28.0227 39.6717 28.125 38.3534 28.2998C37.6329 26.1116 37.154 23.4364 37.0312 20.5ZM43.5 20.5V28.0034C44.938 28.0227 46.3283 28.125 47.6466 28.2998C48.3671 26.1116 48.846 23.4364 48.9688 20.5H43.5ZM49.9696 20.5C49.8494 23.4568 49.3771 26.1801 48.6496 28.4489C50.8772 28.8168 52.8679 29.3959 54.4941 30.1304C56.9572 27.5874 58.5839 24.2294 58.9306 20.5H49.9696ZM58.9923 19.5H49.9966C49.9989 19.334 50 19.1673 50 19C50 16.2735 49.7016 13.7062 49.1755 11.4596C51.7648 10.9852 54.0086 10.2215 55.6955 9.26087C57.768 11.9584 59 15.3353 59 19C59 19.1673 58.9974 19.334 58.9923 19.5ZM48.9966 19.5H43.5V11.9966C45.136 11.9747 46.7101 11.8453 48.1868 11.624C48.7019 13.7988 49 16.3108 49 19C49 19.1674 48.9988 19.334 48.9966 19.5ZM38.6985 29.2635C39.9069 29.1116 41.1805 29.0216 42.5 29.0034V33.9405C42.0105 33.8244 41.4974 33.5332 40.9703 33.0237C40.2559 32.333 39.5668 31.2852 38.9664 29.9129C38.8745 29.7029 38.7852 29.4863 38.6985 29.2635ZM43.5 29.0034V33.9405C43.9895 33.8244 44.5026 33.5332 45.0297 33.0237C45.7441 32.333 46.4332 31.2852 47.0336 29.9129C47.1255 29.7029 47.2148 29.4863 47.3015 29.2635C46.0931 29.1116 44.8195 29.0216 43.5 29.0034ZM37.6833 29.4079C38.8656 32.5605 40.5754 34.6493 42.5 34.9598V34.9923C38.5749 34.8718 35.0056 33.3376 32.2842 30.8817C33.7965 30.2438 35.631 29.7348 37.6833 29.4079ZM48.3167 29.4079C47.1344 32.5605 45.4246 34.6493 43.5 34.9598V34.9923C47.4251 34.8718 50.9944 33.3376 53.7158 30.8817C52.2035 30.2438 50.369 29.7348 48.3167 29.4079Z" fill="#FAFF00"/>
<rect id="Rectangle 1" x="18" y="14" width="50" height="11" rx="1" fill="white"/>
<path id="DomainT2" d="M34.8937 16.3159L35.9737 20.3659L36.9187 16.3159H38.6737L36.9637 22.6159H35.2537L34.1737 18.7009L33.0937 22.6159H31.3837L29.6737 16.3159H31.4287L32.3737 20.3659L33.4537 16.3159H34.8937ZM43.7179 16.3159L44.7979 20.3659L45.7429 16.3159H47.4979L45.7879 22.6159H44.0779L42.9979 18.7009L41.9179 22.6159H40.2079L38.4979 16.3159H40.2529L41.1979 20.3659L42.2779 16.3159H43.7179ZM52.5421 16.3159L53.6221 20.3659L54.5671 16.3159H56.3221L54.6121 22.6159H52.9021L51.8221 18.7009L50.7421 22.6159H49.0321L47.3221 16.3159H49.0771L50.0221 20.3659L51.1021 16.3159H52.5421Z" fill="black"/>
</g>
<defs>
<clipPath id="clip0_1_2">
<rect width="86" height="56" fill="white"/>
</clipPath>
</defs>
</svg>
