<svg width="100" height="100" viewBox="0 0 100 100" fill="none" xmlns="http://www.w3.org/2000/svg">
<g id="Frame" clip-path="url(#clip0_1_2)">
<path id="DRight" d="M57.35 55V52.05C58.8167 52.05 60.2167 52 61.55 51.9C62.8833 51.8 64.0833 51.55 65.15 51.15C66.2167 50.7167 67.05 50.0333 67.65 49.1C68.2833 48.1333 68.6 46.8167 68.6 45.15V29.85C68.6 28.1833 68.2833 26.8833 67.65 25.95C67.05 25.0167 66.2333 24.3333 65.2 23.9C64.1667 23.4667 62.9667 23.2 61.6 23.1C60.2667 23 58.85 22.95 57.35 22.95V20C59.2833 20 61.1 20.1167 62.8 20.35C64.5 20.55 66 20.9833 67.3 21.65C68.6333 22.3167 69.6833 23.3 70.45 24.6C71.2167 25.9 71.6 27.65 71.6 29.85V45.15C71.6 47.4833 71.2 49.3167 70.4 50.65C69.6 51.9833 68.5 52.9667 67.1 53.6C65.7333 54.2 64.2 54.5833 62.5 54.75C60.8333 54.9167 59.1167 55 57.35 55ZM52 55V20H55.05V55H52Z" fill="black"/>
<circle id="Circle" cx="50" cy="50" r="49.5" stroke="#EBFF00"/>
<g id="Text">
<path d="M19.008 67.212H22.104C24.288 67.212 25.38 67.956 25.38 69.444V72.888C25.38 74.296 24.292 75 22.116 75H19.008V67.212ZM22.032 74.208C23.52 74.208 24.264 73.76 24.264 72.864V69.432C24.264 69.144 24.204 68.9 24.084 68.7C23.964 68.5 23.796 68.352 23.58 68.256C23.364 68.168 23.14 68.108 22.908 68.076C22.676 68.036 22.404 68.016 22.092 68.016H20.172V74.208H22.032ZM30.1885 75.12C29.7645 75.12 29.3925 75.092 29.0725 75.036C28.7605 74.98 28.4525 74.884 28.1485 74.748C27.8285 74.604 27.5805 74.384 27.4045 74.088C27.2365 73.792 27.1525 73.432 27.1525 73.008V67.212H28.2685V72.996C28.2685 73.484 28.4325 73.832 28.7605 74.04C29.0885 74.24 29.5725 74.34 30.2125 74.34C30.8525 74.34 31.3285 74.24 31.6405 74.04C31.9605 73.832 32.1205 73.484 32.1205 72.996V67.212H33.2365V73.008C33.2365 74.416 32.2205 75.12 30.1885 75.12ZM35.2619 67.212H37.9979C38.6859 67.212 39.2219 67.256 39.6059 67.344C39.9979 67.424 40.2819 67.572 40.4579 67.788C40.6419 68.004 40.7339 68.32 40.7339 68.736V70.08C40.7339 70.544 40.5419 70.904 40.1579 71.16C39.7819 71.408 39.3019 71.532 38.7179 71.532L41.2139 75H39.7859L37.5539 71.676H36.4259V75H35.2619V67.212ZM37.9499 70.908C38.5259 70.908 38.9379 70.84 39.1859 70.704C39.4419 70.56 39.5699 70.304 39.5699 69.936V68.856C39.5699 68.272 39.0659 67.98 38.0579 67.98H36.4259V70.908H37.9499ZM45.1119 67.212H46.4559L49.4799 75H48.2679L47.3799 72.636H44.0439L43.1679 75H42.0159L45.1119 67.212ZM47.0919 71.832L45.7719 68.316H45.6639L44.3439 71.832H47.0919ZM50.6721 67.212H52.0761L56.3121 73.644V67.212H57.3321V75H55.9281L51.6921 68.46V75H50.6721V67.212Z" fill="black"/>
<path d="M59.3439 67.212H62.4399C64.6239 67.212 65.7159 67.956 65.7159 69.444V72.888C65.7159 74.296 64.6279 75 62.4519 75H59.3439V67.212ZM62.3679 74.208C63.8559 74.208 64.5999 73.76 64.5999 72.864V69.432C64.5999 69.144 64.5399 68.9 64.4199 68.7C64.2999 68.5 64.1319 68.352 63.9159 68.256C63.6999 68.168 63.4759 68.108 63.2439 68.076C63.0119 68.036 62.7399 68.016 62.4279 68.016H60.5079V74.208H62.3679ZM67.4885 67.212H72.7205V68.028H68.6525V70.572H72.3245V71.388H68.6525V74.184H72.8405V75H67.4885V67.212ZM73.6214 67.212H74.8334L77.3294 73.896H77.4374L79.9334 67.212H81.0854L77.9894 75H76.6454L73.6214 67.212Z" fill="#EBFF00"/>
</g>
<path id="DLeft" d="M42.65 55V52.05C41.1833 52.05 39.7833 52 38.45 51.9C37.1167 51.8 35.9167 51.55 34.85 51.15C33.7833 50.7167 32.95 50.0333 32.35 49.1C31.7167 48.1333 31.4 46.8167 31.4 45.15V29.85C31.4 28.1833 31.7167 26.8833 32.35 25.95C32.95 25.0167 33.7667 24.3333 34.8 23.9C35.8333 23.4667 37.0333 23.2 38.4 23.1C39.7333 23 41.15 22.95 42.65 22.95V20C40.7167 20 38.9 20.1167 37.2 20.35C35.5 20.55 34 20.9833 32.7 21.65C31.3667 22.3167 30.3167 23.3 29.55 24.6C28.7833 25.9 28.4 27.65 28.4 29.85V45.15C28.4 47.4833 28.8 49.3167 29.6 50.65C30.4 51.9833 31.5 52.9667 32.9 53.6C34.2667 54.2 35.8 54.5833 37.5 54.75C39.1667 54.9167 40.8833 55 42.65 55ZM48 55V20H44.95V55H48Z" fill="#EBFF00"/>
</g>
<defs>
<clipPath id="clip0_1_2">
<rect width="100" height="100" fill="white"/>
</clipPath>
</defs>
</svg>
