<svg width="86" height="56" viewBox="0 0 86 56" fill="none" xmlns="http://www.w3.org/2000/svg">
<g id="GRAPHICSFRAME" clip-path="url(#clip0_1_2)">
<path id="GT1" d="M11.577 47.1443C11.7466 47.2669 11.8926 47.4905 12.0153 47.8151C12.1415 48.1362 12.2118 48.4139 12.2263 48.6483C12.2443 48.8828 12.2551 49.0216 12.2587 49.0649C12.2659 49.1623 12.1902 49.2344 12.0315 49.2813L11.7231 49.3733C11.651 49.3913 11.5752 49.3715 11.4959 49.3138C11.4165 49.2525 11.375 49.1713 11.3714 49.0703C11.3137 48.5041 11.1875 48.1019 10.9927 47.8638C10.8953 47.8278 10.7871 47.8097 10.6681 47.8097C10.3074 47.7917 9.94493 48.0478 9.58064 48.578C9.21635 49.1046 8.90436 49.8242 8.64466 50.7367C8.30562 51.8945 8.23348 52.8431 8.42825 53.5825C8.53646 53.9937 8.70057 54.2263 8.92059 54.2804C9.46161 54.2335 9.90886 53.835 10.2623 53.0848C10.2732 53.0631 10.2876 53.0325 10.3056 52.9928C10.3273 52.9495 10.3417 52.9225 10.3489 52.9116C10.3561 52.8972 10.3669 52.8756 10.3814 52.8467C10.3994 52.8142 10.412 52.7962 10.4192 52.7926C10.4264 52.7854 10.4373 52.7728 10.4517 52.7547C10.4661 52.7367 10.4787 52.7277 10.4896 52.7277C10.504 52.7277 10.5184 52.7259 10.5328 52.7223C10.5509 52.7151 10.5689 52.7151 10.587 52.7223C10.6086 52.7295 10.632 52.7367 10.6573 52.7439C10.6825 52.7475 10.7096 52.7565 10.7384 52.771L11.0901 52.917C11.1586 52.9423 11.1929 53 11.1929 53.0902C11.1965 53.1767 11.1731 53.2669 11.1226 53.3607C10.7763 53.9883 10.4391 54.4337 10.1108 54.697C9.78262 54.9567 9.37505 55.0866 8.88812 55.0866C8.6645 55.0866 8.42825 55.009 8.17938 54.8539C7.77902 54.6087 7.53916 54.0803 7.45981 53.2687C7.38407 52.4536 7.47604 51.5356 7.73573 50.5149C7.90165 49.8404 8.14331 49.229 8.46071 48.6808C8.77812 48.1289 9.14601 47.6925 9.56441 47.3715C9.98641 47.0505 10.4138 46.89 10.8466 46.89C10.9368 46.89 11.0576 46.9152 11.2091 46.9657C11.3642 47.0162 11.4869 47.0757 11.577 47.1443ZM13.1699 54.6808C12.6541 54.1326 12.5657 53.2092 12.9047 51.9107L14.1004 47.22C14.1437 47.0577 14.2555 46.9766 14.4359 46.9766H14.7551C14.8452 46.9766 14.9102 47.0108 14.9498 47.0794C14.9895 47.1479 14.9985 47.229 14.9769 47.3228L13.7271 52.2624C13.37 53.6583 13.6207 54.3562 14.4791 54.3562C14.8362 54.3562 15.15 54.2101 15.4205 53.9179C15.691 53.6222 15.9201 53.1118 16.1076 52.3868L17.4277 47.22C17.471 47.0577 17.581 46.9766 17.7578 46.9766H18.0337C18.1239 46.9766 18.187 47.0108 18.2231 47.0794C18.2591 47.1479 18.2663 47.229 18.2447 47.3228L16.9516 52.4626C16.6703 53.6096 16.2122 54.3724 15.5774 54.7511C15.2131 54.9675 14.7839 55.0757 14.2898 55.0757C13.7992 55.0757 13.4259 54.9441 13.1699 54.6808ZM21.0023 46.8575C21.482 46.8575 21.821 47.0541 22.0194 47.4472C22.2178 47.8404 22.317 48.4049 22.317 49.1407C22.317 49.3246 22.2557 49.4346 22.133 49.4707L21.7435 49.5951C21.6822 49.6132 21.6227 49.6023 21.565 49.5627C21.5072 49.523 21.4784 49.4563 21.4784 49.3625C21.4784 48.385 21.3197 47.8224 21.0023 47.6745C20.8544 47.5987 20.6777 47.6114 20.4721 47.7124C20.2665 47.8097 20.0573 48.0478 19.8445 48.4265C19.6317 48.8016 19.5181 49.2308 19.5036 49.7142C19.4964 49.9089 19.5289 50.0586 19.601 50.1632C19.6732 50.2642 19.8138 50.3508 20.023 50.4229L20.4775 50.5798C20.9139 50.7277 21.2007 50.908 21.3377 51.1208C21.4604 51.3156 21.5217 51.6312 21.5217 52.0676C21.5217 52.5005 21.4045 52.9657 21.17 53.4635C20.9392 53.9612 20.6254 54.3724 20.2286 54.697C19.8319 55.018 19.4171 55.1785 18.9843 55.1785C18.1114 55.1785 17.675 54.4698 17.675 53.0523V53.0144C17.675 52.7331 17.7309 52.578 17.8427 52.5491L18.2539 52.4193C18.326 52.3904 18.3855 52.3959 18.4324 52.4355C18.4829 52.4752 18.5082 52.5401 18.5082 52.6303C18.5082 53.211 18.5424 53.6492 18.6109 53.945C18.6795 54.2372 18.7931 54.4229 18.9518 54.5023C19.0636 54.5275 19.2079 54.5023 19.3846 54.4265C19.684 54.2931 19.9527 54.0171 20.1907 53.5987C20.4829 53.0938 20.6236 52.5221 20.6127 51.8837C20.6091 51.6889 20.5009 51.5338 20.2881 51.4184C20.1799 51.3643 20.0266 51.3066 19.8283 51.2453L19.363 51.0992C19.1538 51.0379 18.9734 50.9206 18.8219 50.7475C18.6705 50.5744 18.5947 50.3399 18.5947 50.0442C18.5947 49.7484 18.6542 49.413 18.7733 49.0379C18.8959 48.6592 19.0582 48.3075 19.2602 47.9829C19.4658 47.6583 19.7219 47.3895 20.0284 47.1767C20.3386 46.9639 20.6632 46.8575 21.0023 46.8575ZM27.5843 47.7773C27.5843 47.7773 27.018 47.7773 25.8855 47.7773L24.1001 54.7565C24.0568 54.9188 23.9468 55 23.77 55H23.4508C23.3607 55 23.2957 54.9675 23.2561 54.9026C23.2164 54.8341 23.2074 54.7529 23.229 54.6592L24.9819 47.7773H23.229C23.0198 47.7773 22.9387 47.6925 22.9855 47.523L23.0613 47.1984C23.0829 47.1046 23.1154 47.0451 23.1587 47.0198C23.2056 46.991 23.2831 46.9766 23.3913 46.9766H27.7141C27.9378 46.9766 28.0261 47.0812 27.9792 47.2904L27.9251 47.5446C27.8963 47.6997 27.7827 47.7773 27.5843 47.7773ZM28.1301 53.6691C28.2528 54.0911 28.4493 54.3021 28.7199 54.3021C29.113 54.3021 29.4575 54.1091 29.7532 53.7232C30.1139 53.2218 30.4602 52.4319 30.792 51.3535C31.1058 50.3327 31.2212 49.4815 31.1383 48.7998C31.0986 48.4896 31.0192 48.2462 30.9002 48.0694C30.7812 47.8891 30.6279 47.7989 30.4403 47.7989C30.0328 47.7989 29.6703 48.0045 29.3529 48.4157C28.9669 48.9279 28.6117 49.7466 28.287 50.872C27.966 51.9937 27.9137 52.9261 28.1301 53.6691ZM27.0914 52.5978C27.0914 51.6023 27.3258 50.5582 27.7947 49.4653C28.3105 48.275 28.9345 47.4869 29.6667 47.101C29.9336 46.9603 30.2077 46.89 30.489 46.89C30.7704 46.89 31.0896 46.9928 31.4466 47.1984C31.6811 47.339 31.8416 47.5627 31.9282 47.8693C32.0147 48.1758 32.058 48.6231 32.058 49.211C32.058 49.7953 31.9282 50.5798 31.6685 51.5645C31.214 53.2994 30.5107 54.394 29.5585 54.8485C29.2771 54.9856 28.9796 55.0541 28.6658 55.0541C28.4169 55.0541 28.159 54.9838 27.8921 54.8431C27.3583 54.5618 27.0914 53.8133 27.0914 52.5978ZM33.768 47.22C33.8113 47.0613 33.9177 46.9802 34.0872 46.9766H34.4443C34.5994 46.9766 34.6877 47.0613 34.7094 47.2308C34.9113 49.3733 34.9745 50.9351 34.8987 51.9161L37.7337 47.1876C37.8131 47.0469 37.9231 46.9766 38.0637 46.9766H38.4316C38.511 46.9838 38.5687 47.0198 38.6048 47.0848C38.6444 47.1497 38.6535 47.229 38.6318 47.3228L36.7382 54.7565C36.6949 54.9188 36.5831 55 36.4028 55H36.0836C35.9934 55 35.9285 54.9675 35.8888 54.9026C35.8491 54.8341 35.8401 54.7529 35.8617 54.6592L37.1386 49.6492C36.8825 50.1001 36.5236 50.6898 36.0619 51.4184C35.6003 52.1434 35.3081 52.605 35.1855 52.8034C34.9979 53.1028 34.8122 53.2471 34.6282 53.2362L34.4064 53.2254C34.2044 53.2146 34.1124 53.0667 34.1305 52.7818C34.181 51.9991 34.1593 50.9297 34.0655 49.5735L32.7454 54.7565C32.7021 54.9188 32.5921 55 32.4154 55H32.0908C32.0006 55 31.9357 54.9675 31.896 54.9026C31.8563 54.8341 31.8473 54.7529 31.869 54.6592L33.768 47.22ZM43.5416 51.2344C43.5416 51.2344 44.2143 51.2344 45.5596 51.2344C45.6786 51.2344 45.7111 51.3156 45.657 51.4779L45.6029 51.6673C45.5957 51.6925 45.5722 51.7665 45.5326 51.8891C45.4965 52.0081 45.4226 52.2119 45.3107 52.5005C45.1989 52.789 45.0853 53.0559 44.9699 53.3012C44.8545 53.5464 44.7192 53.7863 44.5641 54.0207C44.4126 54.2552 44.2557 54.4445 44.0934 54.5888C43.7291 54.9062 43.2981 55.0649 42.8004 55.0649C42.519 55.0649 42.2503 54.9802 41.9942 54.8106C41.5181 54.4968 41.2801 53.7628 41.2801 52.6087C41.2801 52.0027 41.3721 51.3336 41.556 50.6014C41.74 49.8656 41.9852 49.2254 42.2918 48.6808C42.602 48.1326 42.9627 47.6979 43.3739 47.3769C43.785 47.0523 44.207 46.89 44.6399 46.89C44.9284 46.89 45.1737 46.9693 45.3757 47.128C45.5813 47.2831 45.7526 47.5645 45.8896 47.972C46.0303 48.3796 46.1006 48.6862 46.1006 48.8918C46.1006 49.0974 46.0267 49.2272 45.8788 49.2813L45.4947 49.395C45.4189 49.413 45.3558 49.4022 45.3053 49.3625C45.2584 49.3192 45.2296 49.1839 45.2188 48.9567C45.2079 48.7259 45.1502 48.4896 45.0456 48.248C44.9446 48.0027 44.8094 47.8602 44.6399 47.8206C44.2972 47.7268 43.9185 47.9504 43.5037 48.4914C43.0925 49.0289 42.7553 49.7773 42.492 50.7367C42.171 51.8945 42.0988 52.8485 42.2756 53.5987C42.373 54.0243 42.5226 54.2444 42.7246 54.2588C43.1106 54.3021 43.4478 54.1091 43.7363 53.6799C44.0646 53.1966 44.3134 52.6321 44.483 51.9865H43.4226C43.2783 51.9865 43.2332 51.8837 43.2873 51.6781L43.3793 51.3643C43.3937 51.3102 43.4117 51.2759 43.4334 51.2615C43.455 51.2435 43.4911 51.2344 43.5416 51.2344ZM47.6583 50.7313L48.3508 50.6988C48.8522 50.6772 49.2363 50.4608 49.5032 50.0496C49.7593 49.6564 49.8873 49.1208 49.8873 48.4427C49.8873 48.2516 49.8224 48.0911 49.6926 47.9612C49.5663 47.8314 49.3896 47.7647 49.1624 47.761C48.9351 47.7574 48.6881 47.7538 48.4212 47.7502L47.6583 50.7313ZM47.5176 47.7448C47.4022 47.7448 47.2904 47.7448 47.1822 47.7448C47.074 47.7448 46.9982 47.7142 46.955 47.6528C46.9117 47.5879 46.9009 47.514 46.9225 47.431L46.9766 47.1984C46.991 47.1335 47.0253 47.0812 47.0794 47.0415C47.1335 46.9982 47.184 46.9766 47.2309 46.9766H49.1137C49.6222 46.9766 50.0298 47.1046 50.3364 47.3607C50.643 47.6132 50.7963 47.9883 50.7963 48.486C50.7963 48.9838 50.7007 49.4509 50.5095 49.8873C50.322 50.3237 50.1146 50.6357 49.8873 50.8233C49.6637 51.0072 49.4924 51.1298 49.3734 51.1912C49.2543 51.2489 49.1245 51.3012 48.9838 51.3481L49.4924 54.6213C49.5321 54.8738 49.4509 55 49.2489 55H48.8702C48.7728 55 48.7025 54.9711 48.6592 54.9134C48.6195 54.8557 48.5907 54.7547 48.5726 54.6105L48.156 51.4833L47.4635 51.4941L46.6304 54.7565C46.5871 54.9188 46.4771 55 46.3003 55H45.9811C45.8909 55 45.826 54.9675 45.7863 54.9026C45.7467 54.8341 45.7377 54.7529 45.7593 54.6592L47.5176 47.7448ZM52.2114 52.5978L51.1401 54.7782C51.0608 54.9441 50.9237 55.018 50.7289 55L50.4747 54.9784C50.3448 54.9748 50.2601 54.9261 50.2204 54.8323C50.1807 54.7385 50.1879 54.6465 50.242 54.5564L53.9318 47.4418C54.0869 47.1461 54.2907 46.9982 54.5432 46.9982L54.9868 46.9874C55.1203 46.9874 55.2249 47.0325 55.3006 47.1226C55.3764 47.2128 55.4088 47.3463 55.398 47.523L55.0085 54.7565C55.0013 54.9188 54.8913 55 54.6784 55L54.2997 54.9892C54.1194 54.9892 54.0346 54.89 54.0454 54.6916L54.1861 52.5978H52.2114ZM52.6063 51.7971H54.2402L54.4945 47.945L52.6063 51.7971ZM57.6877 50.9206L58.3045 50.8882C58.8924 50.8665 59.3 50.6447 59.5272 50.2227C59.6715 49.9558 59.7797 49.651 59.8518 49.3084C59.9276 48.9621 59.9655 48.6736 59.9655 48.4427C59.9655 48.0063 59.7148 47.7773 59.2134 47.7556C59.0511 47.7484 58.8131 47.743 58.4993 47.7394L57.6877 50.9206ZM57.6012 47.734C57.4785 47.734 57.3613 47.734 57.2495 47.734C57.1413 47.734 57.0656 47.7033 57.0223 47.642C56.979 47.5771 56.9682 47.5032 56.9898 47.4202L57.0547 47.1984C57.0692 47.1335 57.1034 47.0812 57.1575 47.0415C57.2116 46.9982 57.2621 46.9766 57.309 46.9766H59.0457C59.6408 46.9766 60.0917 47.101 60.3983 47.3499C60.7085 47.5987 60.8636 48.0063 60.8636 48.5726C60.8636 48.991 60.7734 49.4527 60.5931 49.9576C60.4163 50.4626 60.2035 50.8106 59.9546 51.0018C59.832 51.0956 59.7454 51.1605 59.6949 51.1966C59.6481 51.229 59.5326 51.2885 59.3487 51.3751C59.1647 51.4617 58.9826 51.523 58.8023 51.5591C58.4235 51.6348 57.9871 51.6763 57.493 51.6835L56.7085 54.7565C56.6652 54.9188 56.5552 55 56.3784 55H56.0592C55.9691 55 55.9041 54.9675 55.8645 54.9026C55.8248 54.8341 55.8158 54.7529 55.8374 54.6592L57.6012 47.734ZM62.6998 47.22C62.7431 47.0577 62.8531 46.9766 63.0298 46.9766H63.3544C63.4446 46.9766 63.5095 47.0108 63.5492 47.0794C63.5889 47.1479 63.5979 47.229 63.5762 47.3228L62.8134 50.3039H65.4482L66.2327 47.22C66.276 47.0577 66.3878 46.9766 66.5681 46.9766H66.8873C66.9775 46.9766 67.0424 47.0108 67.0821 47.0794C67.1218 47.1479 67.1308 47.229 67.1091 47.3228L65.2155 54.7565C65.1723 54.9188 65.0605 55 64.8801 55H64.5609C64.4707 55 64.4058 54.9675 64.3661 54.9026C64.3265 54.8341 64.3174 54.7529 64.3391 54.6592L65.2534 51.0667H62.6186L61.6772 54.7565C61.6339 54.9188 61.5239 55 61.3472 55H61.028C60.9378 55 60.8729 54.9675 60.8332 54.9026C60.7935 54.8341 60.7845 54.7529 60.8062 54.6592L62.6998 47.22ZM68.5844 47.22C68.6277 47.0577 68.7377 46.9766 68.9144 46.9766H69.239C69.3292 46.9766 69.3923 47.0108 69.4284 47.0794C69.4681 47.1479 69.4771 47.229 69.4554 47.3228L67.5618 54.7565C67.5186 54.9188 67.4085 55 67.2318 55H66.9072C66.817 55 66.7521 54.9675 66.7124 54.9026C66.6727 54.8341 66.6637 54.7529 66.6854 54.6592L68.5844 47.22ZM73.6044 47.1443C73.7739 47.2669 73.92 47.4905 74.0426 47.8151C74.1688 48.1362 74.2392 48.4139 74.2536 48.6483C74.2716 48.8828 74.2825 49.0216 74.2861 49.0649C74.2933 49.1623 74.2175 49.2344 74.0588 49.2813L73.7505 49.3733C73.6783 49.3913 73.6026 49.3715 73.5232 49.3138C73.4439 49.2525 73.4024 49.1713 73.3988 49.0703C73.3411 48.5041 73.2148 48.1019 73.0201 47.8638C72.9227 47.8278 72.8145 47.8097 72.6954 47.8097C72.3348 47.7917 71.9723 48.0478 71.608 48.578C71.2437 49.1046 70.9317 49.8242 70.672 50.7367C70.333 51.8945 70.2608 52.8431 70.4556 53.5825C70.5638 53.9937 70.7279 54.2263 70.9479 54.2804C71.489 54.2335 71.9362 53.835 72.2897 53.0848C72.3005 53.0631 72.3149 53.0325 72.333 52.9928C72.3546 52.9495 72.369 52.9225 72.3762 52.9116C72.3835 52.8972 72.3943 52.8756 72.4087 52.8467C72.4267 52.8142 72.4394 52.7962 72.4466 52.7926C72.4538 52.7854 72.4646 52.7728 72.479 52.7547C72.4935 52.7367 72.5061 52.7277 72.5169 52.7277C72.5313 52.7277 72.5458 52.7259 72.5602 52.7223C72.5782 52.7151 72.5963 52.7151 72.6143 52.7223C72.6359 52.7295 72.6594 52.7367 72.6846 52.7439C72.7099 52.7475 72.7369 52.7565 72.7658 52.771L73.1175 52.917C73.186 52.9423 73.2202 53 73.2202 53.0902C73.2239 53.1767 73.2004 53.2669 73.1499 53.3607C72.8037 53.9883 72.4664 54.4337 72.1382 54.697C71.81 54.9567 71.4024 55.0866 70.9155 55.0866C70.6918 55.0866 70.4556 55.009 70.2067 54.8539C69.8064 54.6087 69.5665 54.0803 69.4872 53.2687C69.4114 52.4536 69.5034 51.5356 69.7631 50.5149C69.929 49.8404 70.1707 49.229 70.4881 48.6808C70.8055 48.1289 71.1734 47.6925 71.5918 47.3715C72.0138 47.0505 72.4412 46.89 72.874 46.89C72.9642 46.89 73.085 46.9152 73.2365 46.9657C73.3916 47.0162 73.5142 47.0757 73.6044 47.1443ZM77.5453 46.8575C78.025 46.8575 78.364 47.0541 78.5624 47.4472C78.7608 47.8404 78.86 48.4049 78.86 49.1407C78.86 49.3246 78.7986 49.4346 78.676 49.4707L78.2865 49.5951C78.2252 49.6132 78.1656 49.6023 78.1079 49.5627C78.0502 49.523 78.0214 49.4563 78.0214 49.3625C78.0214 48.385 77.8627 47.8224 77.5453 47.6745C77.3974 47.5987 77.2206 47.6114 77.0151 47.7124C76.8095 47.8097 76.6003 48.0478 76.3875 48.4265C76.1747 48.8016 76.061 49.2308 76.0466 49.7142C76.0394 49.9089 76.0719 50.0586 76.144 50.1632C76.2161 50.2642 76.3568 50.3508 76.566 50.4229L77.0205 50.5798C77.4569 50.7277 77.7436 50.908 77.8807 51.1208C78.0033 51.3156 78.0646 51.6312 78.0646 52.0676C78.0646 52.5005 77.9474 52.9657 77.713 53.4635C77.4821 53.9612 77.1683 54.3724 76.7716 54.697C76.3748 55.018 75.96 55.1785 75.5272 55.1785C74.6544 55.1785 74.2179 54.4698 74.2179 53.0523V53.0144C74.2179 52.7331 74.2738 52.578 74.3857 52.5491L74.7968 52.4193C74.869 52.3904 74.9285 52.3959 74.9754 52.4355C75.0259 52.4752 75.0511 52.5401 75.0511 52.6303C75.0511 53.211 75.0854 53.6492 75.1539 53.945C75.2224 54.2372 75.3361 54.4229 75.4948 54.5023C75.6066 54.5275 75.7508 54.5023 75.9276 54.4265C76.227 54.2931 76.4957 54.0171 76.7337 53.5987C77.0259 53.0938 77.1665 52.5221 77.1557 51.8837C77.1521 51.6889 77.0439 51.5338 76.8311 51.4184C76.7229 51.3643 76.5696 51.3066 76.3712 51.2453L75.9059 51.0992C75.6967 51.0379 75.5164 50.9206 75.3649 50.7475C75.2134 50.5744 75.1377 50.3399 75.1377 50.0442C75.1377 49.7484 75.1972 49.413 75.3162 49.0379C75.4389 48.6592 75.6012 48.3075 75.8031 47.9829C76.0087 47.6583 76.2648 47.3895 76.5714 47.1767C76.8816 46.9639 77.2062 46.8575 77.5453 46.8575Z" fill="black"/>
<path id="GV2" d="M43 9.61804L44.7696 15.0643L44.8819 15.4098H45.2451H50.9717L46.3388 18.7758L46.0449 18.9894L46.1572 19.3348L47.9268 24.7812L43.2939 21.4152L43 21.2016L42.7061 21.4152L38.0732 24.7812L39.8428 19.3348L39.9551 18.9894L39.6612 18.7758L35.0283 15.4098H40.7549H41.1181L41.2304 15.0643L43 9.61804Z" stroke="black"/>
<circle id="GV1" cx="43" cy="18" r="15.5" stroke="black"/>
</g>
<defs>
<clipPath id="clip0_1_2">
<rect width="86" height="56" fill="white"/>
</clipPath>
</defs>
</svg>
