<svg width="47" height="25" viewBox="0 0 47 25" fill="none" xmlns="http://www.w3.org/2000/svg">
<path d="M46.0607 13.0607C46.6464 12.4749 46.6464 11.5251 46.0607 10.9393L36.5147 1.3934C35.9289 0.807612 34.9792 0.807612 34.3934 1.3934C33.8076 1.97918 33.8076 2.92893 34.3934 3.51472L42.8787 12L34.3934 20.4853C33.8076 21.0711 33.8076 22.0208 34.3934 22.6066C34.9792 23.1924 35.9289 23.1924 36.5147 22.6066L46.0607 13.0607ZM2 13.5H45V10.5H2V13.5Z" fill="white"/>
<path d="M0.93934 10.9393C0.353553 11.5251 0.353553 12.4749 0.93934 13.0607L10.4853 22.6066C11.0711 23.1924 12.0208 23.1924 12.6066 22.6066C13.1924 22.0208 13.1924 21.0711 12.6066 20.4853L4.12132 12L12.6066 3.51472C13.1924 2.92893 13.1924 1.97918 12.6066 1.3934C12.0208 0.807612 11.0711 0.807612 10.4853 1.3934L0.93934 10.9393ZM45 10.5H2V13.5H45V10.5Z" fill="white"/>
</svg>
