<svg width="86" height="56" viewBox="0 0 86 56" fill="none" xmlns="http://www.w3.org/2000/svg">
<g id="HOSTINGFRAME" clip-path="url(#clip0_1_2)">
<path id="HT1" d="M14.3482 47.22C14.3915 47.0577 14.5015 46.9766 14.6782 46.9766H15.0028C15.093 46.9766 15.1579 47.0108 15.1976 47.0794C15.2373 47.1479 15.2463 47.229 15.2247 47.3228L14.4618 50.3039H17.0966L17.8811 47.22C17.9244 47.0577 18.0362 46.9766 18.2166 46.9766H18.5358C18.6259 46.9766 18.6909 47.0108 18.7305 47.0794C18.7702 47.1479 18.7792 47.229 18.7576 47.3228L16.864 54.7565C16.8207 54.9188 16.7089 55 16.5285 55H16.2093C16.1192 55 16.0542 54.9675 16.0146 54.9026C15.9749 54.8341 15.9659 54.7529 15.9875 54.6592L16.9019 51.0667H14.2671L13.3257 54.7565C13.2824 54.9188 13.1724 55 12.9956 55H12.6764C12.5863 55 12.5213 54.9675 12.4817 54.9026C12.442 54.8341 12.433 54.7529 12.4546 54.6592L14.3482 47.22ZM19.5403 53.6691C19.6629 54.0911 19.8595 54.3021 20.13 54.3021C20.5232 54.3021 20.8676 54.1091 21.1634 53.7232C21.5241 53.2218 21.8703 52.4319 22.2022 51.3535C22.516 50.3327 22.6314 49.4815 22.5484 48.7998C22.5087 48.4896 22.4294 48.2462 22.3104 48.0694C22.1913 47.8891 22.038 47.7989 21.8505 47.7989C21.4429 47.7989 21.0804 48.0045 20.763 48.4157C20.3771 48.9279 20.0218 49.7466 19.6972 50.872C19.3762 51.9937 19.3239 52.9261 19.5403 53.6691ZM18.5015 52.5978C18.5015 51.6023 18.736 50.5582 19.2049 49.4653C19.7206 48.275 20.3446 47.4869 21.0768 47.101C21.3437 46.9603 21.6178 46.89 21.8992 46.89C22.1805 46.89 22.4997 46.9928 22.8568 47.1984C23.0912 47.339 23.2518 47.5627 23.3383 47.8693C23.4249 48.1758 23.4682 48.6231 23.4682 49.211C23.4682 49.7953 23.3383 50.5798 23.0786 51.5645C22.6242 53.2994 21.9208 54.394 20.9686 54.8485C20.6873 54.9856 20.3897 55.0541 20.0759 55.0541C19.827 55.0541 19.5692 54.9838 19.3022 54.8431C18.7684 54.5618 18.5015 53.8133 18.5015 52.5978ZM26.9906 46.8575C27.4703 46.8575 27.8093 47.0541 28.0077 47.4472C28.2061 47.8404 28.3053 48.4049 28.3053 49.1407C28.3053 49.3246 28.244 49.4346 28.1213 49.4707L27.7318 49.5951C27.6705 49.6132 27.6109 49.6023 27.5532 49.5627C27.4955 49.523 27.4667 49.4563 27.4667 49.3625C27.4667 48.385 27.308 47.8224 26.9906 47.6745C26.8427 47.5987 26.666 47.6114 26.4604 47.7124C26.2548 47.8097 26.0456 48.0478 25.8328 48.4265C25.62 48.8016 25.5064 49.2308 25.4919 49.7142C25.4847 49.9089 25.5172 50.0586 25.5893 50.1632C25.6614 50.2642 25.8021 50.3508 26.0113 50.4229L26.4658 50.5798C26.9022 50.7277 27.1889 50.908 27.326 51.1208C27.4486 51.3156 27.51 51.6312 27.51 52.0676C27.51 52.5005 27.3927 52.9657 27.1583 53.4635C26.9275 53.9612 26.6137 54.3724 26.2169 54.697C25.8201 55.018 25.4054 55.1785 24.9725 55.1785C24.0997 55.1785 23.6632 54.4698 23.6632 53.0523V53.0144C23.6632 52.7331 23.7192 52.578 23.831 52.5491L24.2421 52.4193C24.3143 52.3904 24.3738 52.3959 24.4207 52.4355C24.4712 52.4752 24.4964 52.5401 24.4964 52.6303C24.4964 53.211 24.5307 53.6492 24.5992 53.945C24.6678 54.2372 24.7814 54.4229 24.9401 54.5023C25.0519 54.5275 25.1962 54.5023 25.3729 54.4265C25.6723 54.2931 25.941 54.0171 26.179 53.5987C26.4712 53.0938 26.6119 52.5221 26.601 51.8837C26.5974 51.6889 26.4892 51.5338 26.2764 51.4184C26.1682 51.3643 26.0149 51.3066 25.8165 51.2453L25.3513 51.0992C25.1421 51.0379 24.9617 50.9206 24.8102 50.7475C24.6587 50.5744 24.583 50.3399 24.583 50.0442C24.583 49.7484 24.6425 49.413 24.7615 49.0379C24.8842 48.6592 25.0465 48.3075 25.2485 47.9829C25.4541 47.6583 25.7101 47.3895 26.0167 47.1767C26.3269 46.9639 26.6515 46.8575 26.9906 46.8575ZM33.5726 47.7773C33.5726 47.7773 33.0063 47.7773 31.8737 47.7773L30.0883 54.7565C30.0451 54.9188 29.9351 55 29.7583 55H29.4391C29.3489 55 29.284 54.9675 29.2443 54.9026C29.2047 54.8341 29.1957 54.7529 29.2173 54.6592L30.9702 47.7773H29.2173C29.0081 47.7773 28.9269 47.6925 28.9738 47.523L29.0496 47.1984C29.0712 47.1046 29.1037 47.0451 29.147 47.0198C29.1938 46.991 29.2714 46.9766 29.3796 46.9766H33.7024C33.926 46.9766 34.0144 47.0812 33.9675 47.2904L33.9134 47.5446C33.8846 47.6997 33.7709 47.7773 33.5726 47.7773ZM34.8109 47.22C34.8542 47.0577 34.9642 46.9766 35.141 46.9766H35.4656C35.5558 46.9766 35.6189 47.0108 35.6549 47.0794C35.6946 47.1479 35.7036 47.229 35.682 47.3228L33.7884 54.7565C33.7451 54.9188 33.6351 55 33.4584 55H33.1338C33.0436 55 32.9787 54.9675 32.939 54.9026C32.8993 54.8341 32.8903 54.7529 32.9119 54.6592L34.8109 47.22ZM37.2719 47.22C37.3152 47.0613 37.4216 46.9802 37.5911 46.9766H37.9265C38.0744 46.9766 38.17 47.092 38.2133 47.3228L39.1925 52.9333L40.6479 47.22C40.6912 47.0577 40.803 46.9766 40.9833 46.9766H41.3025C41.3927 46.9766 41.4576 47.0108 41.4973 47.0794C41.537 47.1479 41.546 47.229 41.5244 47.3228L39.6308 54.7565C39.5875 54.9188 39.4757 55 39.2953 55H38.9004C38.8066 55 38.7471 54.9567 38.7218 54.8702C38.7074 54.8161 38.6966 54.771 38.6894 54.7349C38.6858 54.6988 38.6822 54.6736 38.6786 54.6592L37.6993 49.0703L36.2493 54.7565C36.2061 54.9188 36.096 55 35.9193 55H35.5947C35.5045 55 35.4396 54.9675 35.3999 54.9026C35.3602 54.8341 35.3512 54.7529 35.3729 54.6592L37.2719 47.22ZM43.5533 51.2344C43.5533 51.2344 44.226 51.2344 45.5713 51.2344C45.6904 51.2344 45.7228 51.3156 45.6687 51.4779L45.6146 51.6673C45.6074 51.6925 45.584 51.7665 45.5443 51.8891C45.5082 52.0081 45.4343 52.2119 45.3225 52.5005C45.2106 52.789 45.097 53.0559 44.9816 53.3012C44.8662 53.5464 44.7309 53.7863 44.5758 54.0207C44.4244 54.2552 44.2675 54.4445 44.1051 54.5888C43.7409 54.9062 43.3098 55.0649 42.8121 55.0649C42.5308 55.0649 42.262 54.9802 42.006 54.8106C41.5299 54.4968 41.2918 53.7628 41.2918 52.6087C41.2918 52.0027 41.3838 51.3336 41.5677 50.6014C41.7517 49.8656 41.9969 49.2254 42.3035 48.6808C42.6137 48.1326 42.9744 47.6979 43.3856 47.3769C43.7968 47.0523 44.2188 46.89 44.6516 46.89C44.9401 46.89 45.1854 46.9693 45.3874 47.128C45.593 47.2831 45.7643 47.5645 45.9014 47.972C46.042 48.3796 46.1124 48.6862 46.1124 48.8918C46.1124 49.0974 46.0384 49.2272 45.8905 49.2813L45.5064 49.395C45.4307 49.413 45.3675 49.4022 45.317 49.3625C45.2702 49.3192 45.2413 49.1839 45.2305 48.9567C45.2197 48.7259 45.162 48.4896 45.0574 48.248C44.9564 48.0027 44.8211 47.8602 44.6516 47.8206C44.3089 47.7268 43.9302 47.9504 43.5154 48.4914C43.1042 49.0289 42.767 49.7773 42.5037 50.7367C42.1827 51.8945 42.1106 52.8485 42.2873 53.5987C42.3847 54.0243 42.5344 54.2444 42.7363 54.2588C43.1223 54.3021 43.4595 54.1091 43.7481 53.6799C44.0763 53.1966 44.3252 52.6321 44.4947 51.9865H43.4343C43.29 51.9865 43.2449 51.8837 43.299 51.6781L43.391 51.3643C43.4054 51.3102 43.4234 51.2759 43.4451 51.2615C43.4667 51.2435 43.5028 51.2344 43.5533 51.2344ZM52.432 46.8575C52.9117 46.8575 53.2507 47.0541 53.4491 47.4472C53.6475 47.8404 53.7467 48.4049 53.7467 49.1407C53.7467 49.3246 53.6854 49.4346 53.5627 49.4707L53.1732 49.5951C53.1119 49.6132 53.0524 49.6023 52.9946 49.5627C52.9369 49.523 52.9081 49.4563 52.9081 49.3625C52.9081 48.385 52.7494 47.8224 52.432 47.6745C52.2841 47.5987 52.1074 47.6114 51.9018 47.7124C51.6962 47.8097 51.487 48.0478 51.2742 48.4265C51.0614 48.8016 50.9478 49.2308 50.9333 49.7142C50.9261 49.9089 50.9586 50.0586 51.0307 50.1632C51.1029 50.2642 51.2435 50.3508 51.4527 50.4229L51.9072 50.5798C52.3436 50.7277 52.6304 50.908 52.7674 51.1208C52.89 51.3156 52.9514 51.6312 52.9514 52.0676C52.9514 52.5005 52.8341 52.9657 52.5997 53.4635C52.3689 53.9612 52.0551 54.3724 51.6583 54.697C51.2616 55.018 50.8468 55.1785 50.4139 55.1785C49.5411 55.1785 49.1047 54.4698 49.1047 53.0523V53.0144C49.1047 52.7331 49.1606 52.578 49.2724 52.5491L49.6836 52.4193C49.7557 52.3904 49.8152 52.3959 49.8621 52.4355C49.9126 52.4752 49.9378 52.5401 49.9378 52.6303C49.9378 53.211 49.9721 53.6492 50.0406 53.945C50.1092 54.2372 50.2228 54.4229 50.3815 54.5023C50.4933 54.5275 50.6376 54.5023 50.8143 54.4265C51.1137 54.2931 51.3824 54.0171 51.6204 53.5987C51.9126 53.0938 52.0533 52.5221 52.0424 51.8837C52.0388 51.6889 51.9306 51.5338 51.7178 51.4184C51.6096 51.3643 51.4563 51.3066 51.2579 51.2453L50.7927 51.0992C50.5835 51.0379 50.4031 50.9206 50.2516 50.7475C50.1001 50.5744 50.0244 50.3399 50.0244 50.0442C50.0244 49.7484 50.0839 49.413 50.2029 49.0379C50.3256 48.6592 50.4879 48.3075 50.6899 47.9829C50.8955 47.6583 51.1515 47.3895 51.4581 47.1767C51.7683 46.9639 52.0929 46.8575 52.432 46.8575ZM56.4999 55C56.4999 55 55.6145 55 53.8435 55C53.7533 55 53.6884 54.9675 53.6487 54.9026C53.6091 54.8341 53.6 54.7529 53.6217 54.6592L55.38 47.7448H54.9364C54.8246 47.7448 54.756 47.7286 54.7308 47.6961C54.7055 47.6601 54.7073 47.5789 54.7362 47.4527L54.8065 47.1984C54.8318 47.101 54.8624 47.0397 54.8985 47.0144C54.9346 46.9892 55.0031 46.9766 55.1041 46.9766H58.7182C58.8228 46.9766 58.8895 46.9964 58.9183 47.0361C58.9508 47.0721 58.9544 47.1443 58.9292 47.2525L58.848 47.5338C58.8155 47.6745 58.7236 47.7448 58.5721 47.7448H56.2835L55.6397 50.2714H57.5982C57.6632 50.2714 57.71 50.2967 57.7389 50.3472C57.7678 50.394 57.7732 50.4536 57.7551 50.5257L57.674 50.8016C57.6379 50.9567 57.5279 51.0343 57.344 51.0343H55.4449L54.628 54.2372H56.7542C56.8192 54.2372 56.866 54.2624 56.8949 54.3129C56.9238 54.3598 56.9292 54.4193 56.9111 54.4914L56.8354 54.7674C56.7993 54.9225 56.6875 55 56.4999 55ZM63.596 47.7773C63.596 47.7773 63.0297 47.7773 61.8972 47.7773L60.1118 54.7565C60.0685 54.9188 59.9585 55 59.7818 55H59.4626C59.3724 55 59.3075 54.9675 59.2678 54.9026C59.2281 54.8341 59.2191 54.7529 59.2407 54.6592L60.9937 47.7773H59.2407C59.0315 47.7773 58.9504 47.6925 58.9973 47.523L59.073 47.1984C59.0947 47.1046 59.1271 47.0451 59.1704 47.0198C59.2173 46.991 59.2948 46.9766 59.403 46.9766H63.7259C63.9495 46.9766 64.0378 47.0812 63.991 47.2904L63.9369 47.5446C63.908 47.6997 63.7944 47.7773 63.596 47.7773ZM64.2988 54.6808C63.783 54.1326 63.6946 53.2092 64.0337 51.9107L65.2293 47.22C65.2726 47.0577 65.3844 46.9766 65.5648 46.9766H65.884C65.9741 46.9766 66.0391 47.0108 66.0787 47.0794C66.1184 47.1479 66.1274 47.229 66.1058 47.3228L64.856 52.2624C64.4989 53.6583 64.7496 54.3562 65.608 54.3562C65.9651 54.3562 66.2789 54.2101 66.5494 53.9179C66.8199 53.6222 67.049 53.1118 67.2365 52.3868L68.5566 47.22C68.5999 47.0577 68.7099 46.9766 68.8867 46.9766H69.1626C69.2528 46.9766 69.3159 47.0108 69.352 47.0794C69.388 47.1479 69.3952 47.229 69.3736 47.3228L68.0805 52.4626C67.7992 53.6096 67.3411 54.3724 66.7063 54.7511C66.342 54.9675 65.9128 55.0757 65.4187 55.0757C64.9282 55.0757 64.5548 54.9441 64.2988 54.6808ZM70.2971 50.9206L70.9139 50.8882C71.5018 50.8665 71.9094 50.6447 72.1366 50.2227C72.2809 49.9558 72.3891 49.651 72.4612 49.3084C72.537 48.9621 72.5748 48.6736 72.5748 48.4427C72.5748 48.0063 72.3242 47.7773 71.8228 47.7556C71.6605 47.7484 71.4224 47.743 71.1087 47.7394L70.2971 50.9206ZM70.2105 47.734C70.0879 47.734 69.9707 47.734 69.8589 47.734C69.7507 47.734 69.6749 47.7033 69.6316 47.642C69.5884 47.5771 69.5775 47.5032 69.5992 47.4202L69.6641 47.1984C69.6785 47.1335 69.7128 47.0812 69.7669 47.0415C69.821 46.9982 69.8715 46.9766 69.9184 46.9766H71.6551C72.2502 46.9766 72.7011 47.101 73.0077 47.3499C73.3179 47.5987 73.4729 48.0063 73.4729 48.5726C73.4729 48.991 73.3828 49.4527 73.2024 49.9576C73.0257 50.4626 72.8129 50.8106 72.564 51.0018C72.4414 51.0956 72.3548 51.1605 72.3043 51.1966C72.2574 51.229 72.142 51.2885 71.9581 51.3751C71.7741 51.4617 71.592 51.523 71.4116 51.5591C71.0329 51.6348 70.5965 51.6763 70.1023 51.6835L69.3179 54.7565C69.2746 54.9188 69.1646 55 68.9878 55H68.6686C68.5784 55 68.5135 54.9675 68.4738 54.9026C68.4342 54.8341 68.4252 54.7529 68.4468 54.6592L70.2105 47.734Z" fill="#FAFF00"/>
<g id="HC4">
<path d="M42 19.5C42 24.1944 38.1944 28 33.5 28C28.8056 28 25 24.1944 25 19.5C25 14.8056 28.8056 11 33.5 11C38.1944 11 42 14.8056 42 19.5Z" fill="#FAFF00"/>
<path d="M60 19.5C60 24.1944 56.1944 28 51.5 28C46.8056 28 43 24.1944 43 19.5C43 14.8056 46.8056 11 51.5 11C56.1944 11 60 14.8056 60 19.5Z" fill="#FAFF00"/>
<path d="M45 13.5C45 17.6421 41.6421 21 37.5 21C33.3579 21 30 17.6421 30 13.5C30 9.35786 33.3579 6 37.5 6C41.6421 6 45 9.35786 45 13.5Z" fill="#FAFF00"/>
<path d="M55 13.5C55 17.6421 51.6421 21 47.5 21C43.3579 21 40 17.6421 40 13.5C40 9.35786 43.3579 6 47.5 6C51.6421 6 55 9.35786 55 13.5Z" fill="#FAFF00"/>
<path d="M33 17H52V28H33V17Z" fill="#FAFF00"/>
</g>
<rect id="HR1" x="31.5" y="9.5" width="22" height="24" rx="0.5" fill="#111111" stroke="white"/>
<rect id="HR2" x="33" y="12" width="15" height="2" fill="white"/>
<rect id="HR3" x="33" y="16" width="15" height="2" fill="white"/>
<rect id="HR4" x="33" y="20" width="15" height="2" fill="white"/>
<circle id="HC1" cx="51" cy="13" r="1" fill="#FAFF00"/>
<circle id="HC2" cx="51" cy="17" r="1" fill="#FAFF00"/>
<circle id="HC3" cx="51" cy="21" r="1" fill="#FAFF00"/>
<path id="HV1" d="M39.1768 25.8232C39.0791 25.7256 38.9209 25.7256 38.8232 25.8232L37.2322 27.4142C37.1346 27.5118 37.1346 27.6701 37.2322 27.7678C37.3299 27.8654 37.4882 27.8654 37.5858 27.7678L39 26.3536L40.4142 27.7678C40.5118 27.8654 40.6701 27.8654 40.7678 27.7678C40.8654 27.6701 40.8654 27.5118 40.7678 27.4142L39.1768 25.8232ZM39.25 32V26H38.75V32H39.25Z" fill="#FAFF00"/>
<path id="HV2" d="M45.1768 32.1768C45.0791 32.2744 44.9209 32.2744 44.8232 32.1768L43.2322 30.5858C43.1346 30.4882 43.1346 30.3299 43.2322 30.2322C43.3299 30.1346 43.4882 30.1346 43.5858 30.2322L45 31.6464L46.4142 30.2322C46.5118 30.1346 46.6701 30.1346 46.7678 30.2322C46.8654 30.3299 46.8654 30.4882 46.7678 30.5858L45.1768 32.1768ZM45.25 26V32H44.75V26H45.25Z" fill="#FAFF00"/>
</g>
<defs>
<clipPath id="clip0_1_2">
<rect width="86" height="56" fill="white"/>
</clipPath>
</defs>
</svg>
