<svg width="33" height="10" viewBox="0 0 33 10" fill="none" xmlns="http://www.w3.org/2000/svg">
<g clip-path="url(#clip0_1_2)">
<path d="M2.12238 1.22291V3.73291C2.12238 4.47958 1.86571 4.88291 1.35238 4.94291C1.86571 5.00291 2.12238 5.40291 2.12238 6.14291V8.61291C2.12238 8.76624 2.14905 8.87291 2.20238 8.93291C2.25571 8.99958 2.35571 9.03291 2.50238 9.03291H3.82238V9.62291H2.17238C1.83905 9.62291 1.60238 9.54624 1.46238 9.39291C1.32905 9.23958 1.26238 9.00291 1.26238 8.68291V6.35291C1.26238 5.95958 1.18905 5.67624 1.04238 5.50291C0.90238 5.32291 0.679047 5.23291 0.37238 5.23291H0.19238V4.64291H0.37238C0.685713 4.64291 0.91238 4.55291 1.05238 4.37291C1.19238 4.19291 1.26238 3.90624 1.26238 3.51291V1.15291C1.26238 0.83291 1.32905 0.596244 1.46238 0.44291C1.60238 0.289577 1.83905 0.21291 2.17238 0.21291H3.82238V0.80291H2.50238C2.35571 0.80291 2.25571 0.836244 2.20238 0.90291C2.14905 0.96291 2.12238 1.06958 2.12238 1.22291ZM3.82558 5.23291H4.70558V6.51291C4.70558 6.64624 4.72558 6.73291 4.76558 6.77291C4.80558 6.80624 4.88892 6.82291 5.01558 6.82291H7.24558C7.37892 6.82291 7.46225 6.80624 7.49558 6.77291C7.53558 6.73291 7.55558 6.64624 7.55558 6.51291V1.19291H8.43558V6.62291C8.43558 7.14958 8.17225 7.41291 7.64558 7.41291H4.61558C4.08892 7.41291 3.82558 7.14958 3.82558 6.62291V5.23291ZM14.1438 6.51291V4.88291C14.1438 4.75624 14.1238 4.67291 14.0838 4.63291C14.0505 4.59291 13.9671 4.57291 13.8338 4.57291H10.9238C10.3971 4.57291 10.1338 4.30958 10.1338 3.78291V1.98291C10.1338 1.45624 10.3971 1.19291 10.9238 1.19291H14.1938C14.7205 1.19291 14.9838 1.45624 14.9838 1.98291V2.97291H14.1038V2.09291C14.1038 1.95958 14.0838 1.87624 14.0438 1.84291C14.0105 1.80291 13.9271 1.78291 13.7938 1.78291H11.3238C11.1971 1.78291 11.1138 1.80291 11.0738 1.84291C11.0338 1.87624 11.0138 1.95958 11.0138 2.09291V3.67291C11.0138 3.80624 11.0338 3.89291 11.0738 3.93291C11.1138 3.96624 11.1971 3.98291 11.3238 3.98291H14.2238C14.7505 3.98291 15.0138 4.24624 15.0138 4.77291V6.62291C15.0138 7.14958 14.7505 7.41291 14.2238 7.41291H10.9438C10.4171 7.41291 10.1538 7.14958 10.1538 6.62291V5.63291H11.0338V6.51291C11.0338 6.64624 11.0538 6.73291 11.0938 6.77291C11.1338 6.80624 11.2171 6.82291 11.3438 6.82291H13.8338C13.9671 6.82291 14.0505 6.80624 14.0838 6.77291C14.1238 6.73291 14.1438 6.64624 14.1438 6.51291ZM21.5682 1.98291V6.62291C21.5682 7.14958 21.3048 7.41291 20.7782 7.41291H17.5082C16.9815 7.41291 16.7182 7.14958 16.7182 6.62291V1.98291C16.7182 1.45624 16.9815 1.19291 17.5082 1.19291H20.7782C21.3048 1.19291 21.5682 1.45624 21.5682 1.98291ZM20.7082 6.51291V2.09291C20.7082 1.95958 20.6882 1.87624 20.6482 1.84291C20.6148 1.80291 20.5315 1.78291 20.3982 1.78291H17.8982C17.7648 1.78291 17.6782 1.80291 17.6382 1.84291C17.6048 1.87624 17.5882 1.95958 17.5882 2.09291V6.51291C17.5882 6.64624 17.6048 6.73291 17.6382 6.77291C17.6782 6.80624 17.7648 6.82291 17.8982 6.82291H20.3982C20.5315 6.82291 20.6148 6.80624 20.6482 6.77291C20.6882 6.73291 20.7082 6.64624 20.7082 6.51291ZM27.8586 1.19291H28.6586V7.41291H27.7786L24.2686 2.22291V7.41291H23.4686V1.19291H24.3986L27.8586 6.33291V1.19291ZM30.9561 3.73291V1.22291C30.9561 1.06958 30.9294 0.96291 30.8761 0.90291C30.8227 0.836244 30.7227 0.80291 30.5761 0.80291H29.2561V0.21291H30.9061C31.2394 0.21291 31.4727 0.289577 31.6061 0.44291C31.7461 0.596244 31.8161 0.83291 31.8161 1.15291V3.51291C31.8161 3.90624 31.8861 4.19291 32.0261 4.37291C32.1661 4.55291 32.3927 4.64291 32.7061 4.64291H32.8861V5.23291H32.7061C32.3994 5.23291 32.1727 5.32291 32.0261 5.50291C31.8861 5.67624 31.8161 5.95958 31.8161 6.35291V8.68291C31.8161 9.00291 31.7461 9.23958 31.6061 9.39291C31.4727 9.54624 31.2394 9.62291 30.9061 9.62291H29.2561V9.03291H30.5761C30.7227 9.03291 30.8227 8.99958 30.8761 8.93291C30.9294 8.87291 30.9561 8.76624 30.9561 8.61291V6.14291C30.9561 5.40291 31.2127 5.00291 31.7261 4.94291C31.2127 4.88291 30.9561 4.47958 30.9561 3.73291Z" fill="white"/>
</g>
<defs>
<clipPath id="clip0_1_2">
<rect width="33" height="10" fill="white"/>
</clipPath>
</defs>
</svg>
