<svg width="86" height="56" viewBox="0 0 86 56" fill="none" xmlns="http://www.w3.org/2000/svg">
<g id="LAYOUTFRAME" clip-path="url(#clip0_1_2)">
<path id="LT1" d="M4.87391 46.6443C5.04343 46.7669 5.18951 46.9905 5.31214 47.3151C5.43838 47.6362 5.50871 47.9139 5.52314 48.1483C5.54118 48.3828 5.552 48.5216 5.5556 48.5649C5.56282 48.6623 5.48707 48.7344 5.32837 48.7813L5.01999 48.8733C4.94785 48.8913 4.8721 48.8715 4.79275 48.8138C4.7134 48.7525 4.67192 48.6713 4.66832 48.5703C4.61061 48.0041 4.48437 47.6019 4.2896 47.3638C4.19221 47.3278 4.08401 47.3097 3.96498 47.3097C3.6043 47.2917 3.24181 47.5478 2.87752 48.078C2.51322 48.6046 2.20123 49.3242 1.94154 50.2367C1.60249 51.3945 1.53036 52.3431 1.72513 53.0825C1.83333 53.4937 1.99744 53.7263 2.21746 53.7804C2.75849 53.7335 3.20574 53.335 3.55921 52.5848C3.57003 52.5631 3.58446 52.5325 3.60249 52.4928C3.62413 52.4495 3.63856 52.4225 3.64577 52.4116C3.65299 52.3972 3.66381 52.3756 3.67824 52.3467C3.69627 52.3142 3.70889 52.2962 3.71611 52.2926C3.72332 52.2854 3.73414 52.2728 3.74857 52.2547C3.763 52.2367 3.77562 52.2277 3.78644 52.2277C3.80087 52.2277 3.8153 52.2259 3.82972 52.2223C3.84776 52.2151 3.86579 52.2151 3.88383 52.2223C3.90547 52.2295 3.92891 52.2367 3.95416 52.2439C3.97941 52.2475 4.00646 52.2565 4.03531 52.271L4.38698 52.417C4.45551 52.4423 4.48978 52.5 4.48978 52.5902C4.49339 52.6767 4.46994 52.7669 4.41944 52.8607C4.07319 53.4883 3.73595 53.9337 3.40772 54.197C3.0795 54.4567 2.67192 54.5866 2.185 54.5866C1.96137 54.5866 1.72513 54.509 1.47625 54.3539C1.07589 54.1087 0.836036 53.5803 0.756685 52.7687C0.680941 51.9536 0.772916 51.0356 1.03261 50.0149C1.19852 49.3404 1.44018 48.729 1.75759 48.1808C2.07499 47.6289 2.44289 47.1925 2.86128 46.8715C3.28329 46.5505 3.7107 46.39 4.14352 46.39C4.23369 46.39 4.35452 46.4152 4.50601 46.4657C4.6611 46.5162 4.78374 46.5757 4.87391 46.6443ZM6.60199 52.0978L5.53075 54.2782C5.4514 54.4441 5.31434 54.518 5.11957 54.5L4.86529 54.4784C4.73544 54.4748 4.65068 54.4261 4.611 54.3323C4.57133 54.2385 4.57854 54.1465 4.63264 54.0564L8.32245 46.9418C8.47755 46.6461 8.68134 46.4982 8.93382 46.4982L9.37746 46.4874C9.51091 46.4874 9.61551 46.5325 9.69125 46.6226C9.767 46.7128 9.79946 46.8463 9.78864 47.023L9.3991 54.2565C9.39189 54.4188 9.28188 54.5 9.06907 54.5L8.69035 54.4892C8.51001 54.4892 8.42525 54.39 8.43607 54.1916L8.57674 52.0978H6.60199ZM6.99694 51.2971H8.63084L8.88512 47.445L6.99694 51.2971ZM12.0784 50.4206L12.6951 50.3882C13.2831 50.3665 13.6906 50.1447 13.9179 49.7227C14.0621 49.4558 14.1703 49.151 14.2425 48.8084C14.3182 48.4621 14.3561 48.1736 14.3561 47.9427C14.3561 47.5063 14.1054 47.2773 13.6041 47.2556C13.4418 47.2484 13.2037 47.243 12.8899 47.2394L12.0784 50.4206ZM11.9918 47.234C11.8692 47.234 11.7519 47.234 11.6401 47.234C11.5319 47.234 11.4562 47.2033 11.4129 47.142C11.3696 47.0771 11.3588 47.0032 11.3804 46.9202L11.4454 46.6984C11.4598 46.6335 11.4941 46.5812 11.5482 46.5415C11.6023 46.4982 11.6528 46.4766 11.6996 46.4766H13.4363C14.0315 46.4766 14.4823 46.601 14.7889 46.8499C15.0991 47.0987 15.2542 47.5063 15.2542 48.0726C15.2542 48.491 15.164 48.9527 14.9837 49.4576C14.8069 49.9626 14.5941 50.3106 14.3453 50.5018C14.2226 50.5956 14.1361 50.6605 14.0856 50.6966C14.0387 50.729 13.9233 50.7885 13.7393 50.8751C13.5554 50.9617 13.3732 51.023 13.1929 51.0591C12.8142 51.1348 12.3777 51.1763 11.8836 51.1835L11.0991 54.2565C11.0558 54.4188 10.9458 54.5 10.7691 54.5H10.4499C10.3597 54.5 10.2948 54.4675 10.2551 54.4026C10.2154 54.3341 10.2064 54.2529 10.228 54.1592L11.9918 47.234ZM20.764 47.2773C20.764 47.2773 20.1977 47.2773 19.0651 47.2773L17.2798 54.2565C17.2365 54.4188 17.1265 54.5 16.9497 54.5H16.6305C16.5403 54.5 16.4754 54.4675 16.4357 54.4026C16.3961 54.3341 16.3871 54.2529 16.4087 54.1592L18.1616 47.2773H16.4087C16.1995 47.2773 16.1183 47.1925 16.1652 47.023L16.241 46.6984C16.2626 46.6046 16.2951 46.5451 16.3384 46.5198C16.3853 46.491 16.4628 46.4766 16.571 46.4766H20.8938C21.1174 46.4766 21.2058 46.5812 21.1589 46.7904L21.1048 47.0446C21.076 47.1997 20.9623 47.2773 20.764 47.2773ZM22.0023 46.72C22.0456 46.5577 22.1556 46.4766 22.3324 46.4766H22.657C22.7472 46.4766 22.8103 46.5108 22.8463 46.5794C22.886 46.6479 22.895 46.729 22.8734 46.8228L20.9798 54.2565C20.9365 54.4188 20.8265 54.5 20.6498 54.5H20.3252C20.235 54.5 20.1701 54.4675 20.1304 54.4026C20.0907 54.3341 20.0817 54.2529 20.1033 54.1592L22.0023 46.72ZM24.4362 46.4982C24.631 46.4982 24.7158 46.5992 24.6905 46.8012L24.2415 53.5261L27.5904 46.7092C27.6698 46.5433 27.8104 46.4693 28.0124 46.4874L28.2559 46.509C28.5012 46.5271 28.5787 46.6677 28.4885 46.931L24.7879 54.0564C24.6472 54.3413 24.4254 54.4892 24.1224 54.5L23.7816 54.5108C23.6337 54.5144 23.5201 54.4603 23.4407 54.3485C23.3614 54.2367 23.3271 54.087 23.3379 53.8995L23.7275 46.7417C23.7455 46.5794 23.8555 46.4982 24.0575 46.4982H24.4362ZM28.1996 52.0978L27.1284 54.2782C27.0491 54.4441 26.912 54.518 26.7172 54.5L26.4629 54.4784C26.3331 54.4748 26.2483 54.4261 26.2087 54.3323C26.169 54.2385 26.1762 54.1465 26.2303 54.0564L29.9201 46.9418C30.0752 46.6461 30.279 46.4982 30.5315 46.4982L30.9751 46.4874C31.1086 46.4874 31.2132 46.5325 31.2889 46.6226C31.3647 46.7128 31.3971 46.8463 31.3863 47.023L30.9968 54.2565C30.9895 54.4188 30.8795 54.5 30.6667 54.5L30.288 54.4892C30.1077 54.4892 30.0229 54.39 30.0337 54.1916L30.1744 52.0978H28.1996ZM28.5946 51.2971H30.2285L30.4828 47.445L28.5946 51.2971ZM36.8421 47.2773C36.8421 47.2773 36.2758 47.2773 35.1433 47.2773L33.3579 54.2565C33.3146 54.4188 33.2046 54.5 33.0279 54.5H32.7086C32.6185 54.5 32.5535 54.4675 32.5139 54.4026C32.4742 54.3341 32.4652 54.2529 32.4868 54.1592L34.2398 47.2773H32.4868C32.2776 47.2773 32.1965 47.1925 32.2434 47.023L32.3191 46.6984C32.3407 46.6046 32.3732 46.5451 32.4165 46.5198C32.4634 46.491 32.5409 46.4766 32.6491 46.4766H36.9719C37.1956 46.4766 37.2839 46.5812 37.237 46.7904L37.1829 47.0446C37.1541 47.1997 37.0405 47.2773 36.8421 47.2773ZM38.0805 46.72C38.1238 46.5577 38.2338 46.4766 38.4105 46.4766H38.7351C38.8253 46.4766 38.8884 46.5108 38.9245 46.5794C38.9641 46.6479 38.9732 46.729 38.9515 46.8228L37.0579 54.2565C37.0146 54.4188 36.9046 54.5 36.7279 54.5H36.4033C36.3131 54.5 36.2482 54.4675 36.2085 54.4026C36.1688 54.3341 36.1598 54.2529 36.1815 54.1592L38.0805 46.72ZM40.5414 46.72C40.5847 46.5613 40.6911 46.4802 40.8606 46.4766H41.1961C41.3439 46.4766 41.4395 46.592 41.4828 46.8228L42.4621 52.4333L43.9174 46.72C43.9607 46.5577 44.0725 46.4766 44.2529 46.4766H44.5721C44.6622 46.4766 44.7272 46.5108 44.7668 46.5794C44.8065 46.6479 44.8155 46.729 44.7939 46.8228L42.9003 54.2565C42.857 54.4188 42.7452 54.5 42.5649 54.5H42.1699C42.0761 54.5 42.0166 54.4567 41.9914 54.3702C41.9769 54.3161 41.9661 54.271 41.9589 54.2349C41.9553 54.1988 41.9517 54.1736 41.9481 54.1592L40.9688 48.5703L39.5189 54.2565C39.4756 54.4188 39.3656 54.5 39.1888 54.5H38.8642C38.7741 54.5 38.7091 54.4675 38.6695 54.4026C38.6298 54.3341 38.6208 54.2529 38.6424 54.1592L40.5414 46.72ZM46.8228 50.7344C46.8228 50.7344 47.4955 50.7344 48.8409 50.7344C48.9599 50.7344 48.9923 50.8156 48.9382 50.9779L48.8841 51.1673C48.8769 51.1925 48.8535 51.2665 48.8138 51.3891C48.7777 51.5081 48.7038 51.7119 48.592 52.0005C48.4802 52.289 48.3666 52.5559 48.2511 52.8012C48.1357 53.0464 48.0005 53.2863 47.8454 53.5207C47.6939 53.7552 47.537 53.9445 47.3747 54.0888C47.0104 54.4062 46.5794 54.5649 46.0816 54.5649C45.8003 54.5649 45.5316 54.4802 45.2755 54.3106C44.7994 53.9968 44.5613 53.2628 44.5613 52.1087C44.5613 51.5027 44.6533 50.8336 44.8373 50.1014C45.0212 49.3656 45.2665 48.7254 45.5731 48.1808C45.8832 47.6326 46.2439 47.1979 46.6551 46.8769C47.0663 46.5523 47.4883 46.39 47.9211 46.39C48.2097 46.39 48.4549 46.4693 48.6569 46.628C48.8625 46.7831 49.0338 47.0645 49.1709 47.472C49.3116 47.8796 49.3819 48.1862 49.3819 48.3918C49.3819 48.5974 49.3079 48.7272 49.1601 48.7813L48.7759 48.895C48.7002 48.913 48.6371 48.9022 48.5866 48.8625C48.5397 48.8192 48.5108 48.6839 48.5 48.4567C48.4892 48.2259 48.4315 47.9896 48.3269 47.748C48.2259 47.5027 48.0906 47.3602 47.9211 47.3206C47.5785 47.2268 47.1997 47.4504 46.785 47.9914C46.3738 48.5289 46.0365 49.2773 45.7732 50.2367C45.4522 51.3945 45.3801 52.3485 45.5568 53.0987C45.6542 53.5243 45.8039 53.7444 46.0059 53.7588C46.3918 53.8021 46.729 53.6091 47.0176 53.1799C47.3458 52.6966 47.5947 52.1321 47.7642 51.4865H46.7038C46.5595 51.4865 46.5144 51.3837 46.5685 51.1781L46.6605 50.8643C46.6749 50.8102 46.693 50.7759 46.7146 50.7615C46.7363 50.7435 46.7723 50.7344 46.8228 50.7344ZM55.2416 54.5C55.2416 54.5 54.2317 54.5 52.2119 54.5C52.1217 54.5 52.0568 54.4675 52.0171 54.4026C51.9774 54.3341 51.9684 54.2529 51.9901 54.1592L53.8891 46.72C53.9323 46.5577 54.0424 46.4766 54.2191 46.4766H54.5437C54.6339 46.4766 54.697 46.5108 54.7331 46.5794C54.7727 46.6479 54.7818 46.729 54.7601 46.8228L52.9964 53.7372H55.5067C55.5753 53.7372 55.624 53.7624 55.6528 53.8129C55.6817 53.8598 55.6871 53.9193 55.669 53.9914L55.5933 54.2674C55.5572 54.4225 55.44 54.5 55.2416 54.5ZM57.7543 52.0978L56.6831 54.2782C56.6037 54.4441 56.4667 54.518 56.2719 54.5L56.0176 54.4784C55.8878 54.4748 55.803 54.4261 55.7633 54.3323C55.7237 54.2385 55.7309 54.1465 55.785 54.0564L59.4748 46.9418C59.6299 46.6461 59.8337 46.4982 60.0862 46.4982L60.5298 46.4874C60.6633 46.4874 60.7679 46.5325 60.8436 46.6226C60.9193 46.7128 60.9518 46.8463 60.941 47.023L60.5514 54.2565C60.5442 54.4188 60.4342 54.5 60.2214 54.5L59.8427 54.4892C59.6624 54.4892 59.5776 54.39 59.5884 54.1916L59.7291 52.0978H57.7543ZM58.1493 51.2971H59.7832L60.0375 47.445L58.1493 51.2971ZM63.3481 50.3395C64.3796 48.8066 65.119 47.5676 65.5663 46.6226C65.6132 46.5144 65.7232 46.4657 65.8963 46.4766L66.2426 46.5198C66.3291 46.5271 66.3868 46.5667 66.4157 46.6389C66.4482 46.711 66.4337 46.8048 66.3724 46.9202C65.5068 48.4387 64.5528 49.8904 63.5104 51.2755L62.7475 54.2565C62.7042 54.4188 62.5942 54.5 62.4175 54.5H62.0983C62.0081 54.5 61.9432 54.4675 61.9035 54.4026C61.8638 54.3341 61.8548 54.2529 61.8765 54.1592L62.6501 51.1023C62.6501 50.6154 62.5924 49.9229 62.477 49.0248C62.3652 48.1231 62.2678 47.5243 62.1849 47.2286C62.1019 46.9292 62.0857 46.7326 62.1362 46.6389C62.1867 46.5451 62.266 46.4946 62.3742 46.4874L62.6826 46.4441C62.7872 46.4369 62.8611 46.4495 62.9044 46.482C62.9513 46.5144 62.9856 46.5902 63.0072 46.7092C63.2381 48.0762 63.3517 49.2863 63.3481 50.3395ZM66.3801 53.1691C66.5028 53.5911 66.6993 53.8021 66.9699 53.8021C67.363 53.8021 67.7075 53.6091 68.0032 53.2232C68.3639 52.7218 68.7102 51.9319 69.042 50.8535C69.3558 49.8327 69.4712 48.9815 69.3883 48.2998C69.3486 47.9896 69.2692 47.7462 69.1502 47.5694C69.0312 47.3891 68.8779 47.2989 68.6903 47.2989C68.2828 47.2989 67.9203 47.5045 67.6029 47.9157C67.2169 48.4279 66.8617 49.2466 66.537 50.372C66.216 51.4937 66.1637 52.4261 66.3801 53.1691ZM65.3414 52.0978C65.3414 51.1023 65.5758 50.0582 66.0447 48.9653C66.5605 47.775 67.1845 46.9869 67.9167 46.601C68.1836 46.4603 68.4577 46.39 68.739 46.39C69.0204 46.39 69.3396 46.4928 69.6966 46.6984C69.9311 46.839 70.0916 47.0627 70.1782 47.3693C70.2647 47.6758 70.308 48.1231 70.308 48.711C70.308 49.2953 70.1782 50.0798 69.9185 51.0645C69.464 52.7994 68.7607 53.894 67.8085 54.3485C67.5271 54.4856 67.2296 54.5541 66.9158 54.5541C66.6669 54.5541 66.409 54.4838 66.1421 54.3431C65.6083 54.0618 65.3414 53.3133 65.3414 52.0978ZM71.4824 54.1808C70.9666 53.6326 70.8782 52.7092 71.2172 51.4107L72.4129 46.72C72.4562 46.5577 72.568 46.4766 72.7484 46.4766H73.0676C73.1577 46.4766 73.2227 46.5108 73.2623 46.5794C73.302 46.6479 73.311 46.729 73.2894 46.8228L72.0396 51.7624C71.6825 53.1583 71.9332 53.8562 72.7916 53.8562C73.1487 53.8562 73.4625 53.7101 73.733 53.4179C74.0035 53.1222 74.2326 52.6118 74.4201 51.8868L75.7402 46.72C75.7835 46.5577 75.8935 46.4766 76.0703 46.4766H76.3462C76.4364 46.4766 76.4995 46.5108 76.5356 46.5794C76.5716 46.6479 76.5788 46.729 76.5572 46.8228L75.2641 51.9626C74.9828 53.1096 74.5247 53.8724 73.8899 54.2511C73.5256 54.4675 73.0964 54.5757 72.6023 54.5757C72.1117 54.5757 71.7384 54.4441 71.4824 54.1808ZM81.1976 47.2773C81.1976 47.2773 80.6313 47.2773 79.4987 47.2773L77.7133 54.2565C77.6701 54.4188 77.5601 54.5 77.3833 54.5H77.0641C76.9739 54.5 76.909 54.4675 76.8693 54.4026C76.8297 54.3341 76.8207 54.2529 76.8423 54.1592L78.5952 47.2773H76.8423C76.6331 47.2773 76.5519 47.1925 76.5988 47.023L76.6746 46.6984C76.6962 46.6046 76.7287 46.5451 76.772 46.5198C76.8188 46.491 76.8964 46.4766 77.0046 46.4766H81.3274C81.551 46.4766 81.6394 46.5812 81.5925 46.7904L81.5384 47.0446C81.5096 47.1997 81.3959 47.2773 81.1976 47.2773ZM84.2484 46.3575C84.7281 46.3575 85.0671 46.5541 85.2655 46.9472C85.4639 47.3404 85.5631 47.9049 85.5631 48.6407C85.5631 48.8246 85.5018 48.9346 85.3791 48.9707L84.9896 49.0951C84.9283 49.1132 84.8688 49.1023 84.8111 49.0627C84.7533 49.023 84.7245 48.9563 84.7245 48.8625C84.7245 47.885 84.5658 47.3224 84.2484 47.1745C84.1005 47.0987 83.9238 47.1114 83.7182 47.2124C83.5126 47.3097 83.3034 47.5478 83.0906 47.9265C82.8778 48.3016 82.7642 48.7308 82.7497 49.2142C82.7425 49.4089 82.775 49.5586 82.8471 49.6632C82.9193 49.7642 83.0599 49.8508 83.2691 49.9229L83.7236 50.0798C84.16 50.2277 84.4468 50.408 84.5838 50.6208C84.7065 50.8156 84.7678 51.1312 84.7678 51.5676C84.7678 52.0005 84.6505 52.4657 84.4161 52.9635C84.1853 53.4612 83.8715 53.8724 83.4747 54.197C83.078 54.518 82.6632 54.6785 82.2303 54.6785C81.3575 54.6785 80.9211 53.9698 80.9211 52.5523V52.5144C80.9211 52.2331 80.977 52.078 81.0888 52.0491L81.5 51.9193C81.5721 51.8904 81.6316 51.8959 81.6785 51.9355C81.729 51.9752 81.7542 52.0401 81.7542 52.1303C81.7542 52.711 81.7885 53.1492 81.857 53.445C81.9256 53.7372 82.0392 53.9229 82.1979 54.0023C82.3097 54.0275 82.454 54.0023 82.6307 53.9265C82.9301 53.7931 83.1988 53.5171 83.4368 53.0987C83.729 52.5938 83.8697 52.0221 83.8588 51.3837C83.8552 51.1889 83.747 51.0338 83.5342 50.9184C83.426 50.8643 83.2727 50.8066 83.0744 50.7453L82.6091 50.5992C82.3999 50.5379 82.2195 50.4206 82.068 50.2475C81.9166 50.0744 81.8408 49.8399 81.8408 49.5442C81.8408 49.2484 81.9003 48.913 82.0193 48.5379C82.142 48.1592 82.3043 47.8075 82.5063 47.4829C82.7119 47.1583 82.968 46.8895 83.2745 46.6767C83.5847 46.4639 83.9093 46.3575 84.2484 46.3575Z" fill="black"/>
<g id="Group 1">
<path id="LV5" d="M43 1H3V30H43V1Z" stroke="black"/>
<path id="LV4" d="M83 1H54V10.5H83V1Z" stroke="black"/>
<path id="LV3" d="M53 14.5H78" stroke="black"/>
<path id="LV2" d="M53 19.5H68" stroke="black"/>
<path id="LV1" d="M53 24.5H73" stroke="black"/>
</g>
</g>
<defs>
<clipPath id="clip0_1_2">
<rect width="86" height="56" fill="white"/>
</clipPath>
</defs>
</svg>
