<svg width="145" height="64" viewBox="0 0 145 64" fill="none" xmlns="http://www.w3.org/2000/svg">
<g clip-path="url(#clip0_1_2)">
<path d="M36.3791 2.78833L36.2193 2.58262" stroke="white" stroke-width="0.062475" stroke-miterlimit="10"/>
<path d="M36.7905 3.32526L36.6077 3.08549" stroke="white" stroke-width="0.062475" stroke-miterlimit="10"/>
<path d="M143.387 26.8356L143.238 26.687C138.212 21.1465 132.888 16.5084 127.256 12.7615L126.536 12.2701L126.182 14.1551C119.911 11.2305 113.65 8.72884 107.379 6.63812H107.356C107.321 6.62669 107.276 6.61527 107.241 6.61527C107.23 6.60384 107.23 6.60384 107.219 6.60384C96.8116 4.17072 86.4158 2.63977 76.0086 2.03429L75.4145 2.00001L75.1748 13.6867C75.1748 13.721 75.1748 13.7439 75.1862 13.7782L76.7055 24.7792L80.3155 27.0185L75.7688 26.9613L64.4247 3.23382L50.362 5.53002L48.4999 14.0408L44.2389 6.90098C44.1703 6.77526 44.0675 6.69527 43.9418 6.64955C43.816 6.60384 43.6791 6.60384 43.5534 6.64955C39.041 8.30599 34.5857 10.271 30.1874 12.5672C30.176 12.5672 30.176 12.5672 30.1645 12.5786H30.1531C26.7831 14.3379 23.4474 16.2798 20.1459 18.4049L20.123 18.4163L20.1116 18.4277C14.2741 22.1746 8.5392 26.5158 2.91865 31.4394L2.74731 31.588L2.72445 31.8278C2.07331 40.9326 3.35274 50.0374 6.54002 59.1422C6.57431 59.2222 6.62002 59.3022 6.69995 59.3708C6.76852 59.4279 6.84852 59.4736 6.93986 59.5079L21.3226 63.1292L26.8059 57.0403C26.8631 56.9603 26.9088 56.8803 26.9431 56.7891C26.9659 56.6977 26.9659 56.6063 26.9431 56.5148L25.6636 51.5798L34.0603 56.6977L42.4682 54.527L42.491 54.5155L50.6363 52.4022L60.6321 50.8257C60.7464 50.8029 60.8492 50.7572 60.929 50.6772C61.009 50.5972 61.0661 50.5057 61.1004 50.4029L64.2535 38.1909L67.3607 48.3124L75.5174 46.3019V47.3757L98.2394 48.541L115.695 51.8767C115.73 51.8881 115.775 51.8881 115.809 51.8996L122.481 53.1677L124.366 50.9286L125.28 60.4789L131.769 59.9991C131.803 59.9991 131.849 59.9877 131.894 59.9763L140.485 57.4058L138.189 42.829L141.924 39.8474C142.016 39.7674 142.084 39.6762 142.119 39.5504C143.147 35.5407 143.569 31.3709 143.387 27.0413V26.8356ZM141.056 39.0819L140.725 39.3447L137.983 41.5267L137.343 37.5626L136.087 36.8657L137.012 42.6462V42.6919L139.206 56.5948L132.02 58.7425L131.62 58.8682L131.334 58.891L126.319 59.2565L125.394 49.7062L130.123 44.12L130.752 43.3774L130.797 43.3202C130.82 43.2859 130.843 43.2631 130.866 43.2288L129.781 42.749L129.472 43.1259L124.366 49.1579L124.354 49.1693L122.035 51.9224L116.769 50.9172L122.024 41.7209L122.104 41.5724C122.127 41.5152 122.15 41.4583 122.161 41.4012V41.3897L122.23 41.0583L123.795 32.8216C123.806 32.7987 123.806 32.7761 123.818 32.7533C123.829 32.7075 123.829 32.6618 123.829 32.6161L127.165 15.092V15.0806C127.165 15.0691 127.165 15.0577 127.176 15.0463L127.336 14.1894C132.58 17.7651 137.549 22.1289 142.256 27.2925C142.404 31.2566 142.027 35.0835 141.125 38.785C141.102 38.8878 141.079 38.9793 141.056 39.0819V39.0819ZM43.5077 7.88338L43.976 8.68313L48.1458 15.6744L44.136 34.124L43.6448 36.4088L42.2625 42.7376L42.251 42.7948C42.2396 42.8747 42.2396 42.9662 42.2625 43.0574C42.2625 43.0688 42.2625 43.0917 42.2739 43.1031C42.2967 43.1602 42.331 43.2288 42.3767 43.2859L42.4796 43.4002L49.4825 51.5227L42.4682 53.3389L34.1629 46.3362L33.786 46.0162L33.7974 46.2448C33.8088 46.3933 33.7631 46.5305 33.6603 46.656C33.5574 46.7817 33.4319 46.8502 33.2719 46.8617C33.1234 46.8731 32.9864 46.8274 32.8607 46.7245L32.9179 46.7817L41.1201 53.6931L34.2429 55.4753L25.0466 49.8776C25.0352 49.8662 25.0352 49.8662 25.0352 49.8662H25.0238L24.7155 49.6719L24.1557 49.3291C24.1443 49.2722 24.1214 49.215 24.11 49.1579C23.9271 48.301 23.7559 47.4443 23.5845 46.6102L23.5731 46.5876C23.5731 46.5762 23.5731 46.5648 23.5616 46.5533C23.5616 46.5419 23.5616 46.5305 23.5616 46.5305C22.9219 43.3659 22.4078 40.2357 22.0081 37.14C21.2197 31.0623 20.8885 25.0877 21.0026 19.2158C23.9385 17.331 26.8974 15.5946 29.9019 14.0067L30.3131 23.9339L31.4555 23.4999L31.0214 13.4239C35.0769 11.322 39.1781 9.4941 43.3477 7.95195C43.3934 7.92909 43.4506 7.90623 43.5077 7.88338V7.88338ZM3.85541 32.1364C9.08758 27.5668 14.4225 23.5113 19.8489 19.9584C19.7689 25.6018 20.1116 31.3366 20.8542 37.1628C20.8657 37.1971 20.8657 37.2428 20.8771 37.2885C20.8885 37.3685 20.9 37.4485 20.9114 37.5397C20.9228 37.654 20.9342 37.7797 20.9571 37.9054C21.2997 40.4757 21.7223 43.0574 22.225 45.6507L14.6282 41.7552L13.9884 41.424L14.0342 41.4469C14.0912 41.4924 14.1483 41.5495 14.1941 41.6181C14.2283 41.6752 14.2512 41.7438 14.2626 41.8124C14.2854 41.9378 14.2741 42.0636 14.2169 42.1778C14.2055 42.2007 14.1826 42.2236 14.1712 42.2464C14.0798 42.3721 13.9542 42.4407 13.8057 42.475H13.7942C13.6457 42.4978 13.5086 42.4636 13.383 42.3836L13.3373 42.3493C13.3716 42.3836 13.4058 42.4064 13.44 42.4293L14.1941 42.8176L22.5107 47.09C22.6935 47.9926 22.8876 48.895 23.0819 49.8091C23.0933 49.8891 23.1276 49.9576 23.1847 50.0146C23.2188 50.0717 23.2759 50.1288 23.3445 50.1746L24.2585 50.7229L25.755 56.5034L20.9342 61.8499L8.16225 58.6396L7.5111 58.4682C7.48824 58.4113 7.46538 58.3427 7.45396 58.2855C4.4723 49.5691 3.27284 40.8526 3.85541 32.1364ZM59.6268 23.7511C59.6154 23.7511 59.6154 23.7511 59.6154 23.7397L59.0785 25.4304L63.5566 36.3402L60.0837 49.7519L59.9123 49.7748L50.7389 51.2255L43.6791 43.0459L43.4277 42.7605V42.749L43.5077 42.3836L49.3111 15.6972V15.6744L51.3104 6.53527L63.7738 4.50192L74.8433 27.658L75.2774 35.3121L75.3231 36.009L75.5174 39.4362V45.1252L68.1376 46.9417L65.5559 38.4538L65.4531 38.1223L65.4416 38.0995C65.4416 38.0881 65.4416 38.0766 65.4302 38.0652L65.3388 37.8026L64.699 36.1119L64.6876 36.1004C64.6876 36.089 64.6876 36.089 64.6876 36.0776L64.6761 36.0661L59.6268 23.7511V23.7511ZM76.4769 14.7834L76.3284 13.7553L76.3169 13.6639L76.5341 3.21096C86.5529 3.82787 96.5601 5.30169 106.568 7.62052L107.699 7.95195C113.787 10.0084 119.876 12.4643 125.965 15.3089L124.229 24.448L124.012 25.5904L122.812 31.8964L122.595 33.0273L121.11 40.8412L121.064 41.0812L120.825 41.4924L115.57 50.6886L99.3018 47.5929L105.459 39.7559C105.528 39.6647 105.562 39.5619 105.574 39.4476L105.631 38.6135L105.676 37.9166L106.339 28.0809C106.35 28.0009 106.339 27.9209 106.305 27.8409C106.27 27.7609 106.236 27.7037 106.179 27.6466L106.145 27.6011L103.186 24.528L106.704 17.1139L106.042 16.9539H106.03L102.683 24.0025L102.146 25.0878L105.185 28.2523L104.454 39.059L104.443 39.1847L104.009 39.7445L97.9994 47.3872L76.6598 46.2905V39.4019C76.6598 39.3904 76.6598 39.379 76.6598 39.3676L76.6484 39.059L76.0086 28.1037L91.8649 28.3206L90.6768 27.167L82.5317 27.0528L77.7679 24.0939L76.4769 14.7834" fill="#111111"/>
<path d="M130.752 43.3774L130.123 44.12L131.334 58.891L131.62 58.8682L132.02 58.7425L130.752 43.3774Z" fill="white"/>
<path d="M131.334 58.891L130.123 44.12L125.394 49.7062L126.319 59.2565L131.334 58.891" fill="#111111"/>
<path d="M129.472 43.126L122.024 41.7209L116.769 50.9172L122.035 51.9224L124.354 49.1693L124.366 49.1579L129.472 43.126Z" fill="#111111"/>
<path d="M137.343 37.5626L137.983 41.5266L140.725 39.3447L137.343 37.5626Z" fill="#111111"/>
<path d="M140.725 39.3447L141.056 39.0819C141.079 38.9792 141.102 38.8878 141.125 38.785L136.807 36.4773L135.938 36.0433L136.087 36.8657L137.343 37.5626L140.725 39.3447" fill="white"/>
<path d="M122.161 41.4012C122.15 41.4583 122.127 41.5152 122.104 41.5724L122.024 41.7209L129.472 43.1259L129.781 42.749L129.769 42.4864L122.23 41.0583L122.161 41.3897V41.4012Z" fill="white"/>
<path d="M136.967 31.268V29.9085L129.061 24.5965L129.769 42.4864L129.781 42.749L130.866 43.2288L130.935 42.9205C130.935 42.909 130.935 42.909 130.935 42.8976L130.295 26.8013L136.967 31.268Z" fill="#111111"/>
<path d="M136.967 29.9085V31.268L130.295 26.8013L130.935 42.8976C130.935 42.909 130.935 42.909 130.935 42.9205L130.866 43.2288C130.843 43.2631 130.82 43.286 130.797 43.3202L130.752 43.3774L132.02 58.7425L139.206 56.5948L137.012 42.6919V42.6462L136.087 36.8657L135.938 36.0433L136.807 36.4773L141.125 38.785C142.027 35.0835 142.404 31.2566 142.256 27.2925C137.549 22.1289 132.58 17.7651 127.336 14.1894L127.176 15.0463C127.165 15.0577 127.165 15.0691 127.165 15.0806V15.092L123.829 32.6161C123.829 32.6618 123.829 32.7076 123.818 32.7533C123.806 32.7761 123.806 32.7988 123.795 32.8216L122.23 41.0583L129.769 42.4864L129.061 24.5966L136.967 29.9085" fill="white"/>
<path d="M43.976 8.68315L43.5077 7.88339C43.4506 7.90625 43.3934 7.9291 43.3477 7.95196C42.6279 16.8968 42.7308 26.3787 43.6448 36.4088L44.136 34.124C43.4277 25.202 43.3706 16.7253 43.976 8.68315" fill="#111111"/>
<path d="M48.1458 15.6744L43.976 8.68314C43.3706 16.7253 43.4277 25.202 44.136 34.124L48.1458 15.6744Z" fill="#111111"/>
<path d="M49.4825 51.5227L42.4796 43.4002L34.1629 46.3362L42.4682 53.3389L49.4825 51.5227" fill="#111111"/>
<path d="M24.1557 49.3291L24.7155 49.6719L32.9179 46.7817L32.8607 46.7245C32.7807 46.656 32.7236 46.5762 32.6893 46.4848C32.6779 46.4391 32.6664 46.3933 32.655 46.3476V46.3362L32.6436 46.1419L24.11 49.1579C24.1214 49.215 24.1443 49.2722 24.1557 49.3291" fill="white"/>
<path d="M25.0352 49.8662C25.0352 49.8662 25.0352 49.8662 25.0466 49.8776L34.2429 55.4753L41.1201 53.6931L32.9179 46.7817L24.7155 49.6719L25.0238 49.8662H25.0352Z" fill="#111111"/>
<path d="M32.6436 32.6161L31.5241 33.0502L32.6436 46.1419L32.655 46.3362V46.3476C32.6664 46.3934 32.6779 46.4391 32.6893 46.4848C32.7236 46.5762 32.7807 46.656 32.8607 46.7245C32.9864 46.8274 33.1234 46.8731 33.2719 46.8617C33.4319 46.8503 33.5574 46.7817 33.6603 46.656C33.7631 46.5305 33.8088 46.3934 33.7974 46.2448L33.786 46.0162L33.7631 45.7422L32.6436 32.6161Z" fill="#111111"/>
<path d="M42.2625 43.0574C42.2396 42.9662 42.2396 42.8747 42.251 42.7947L42.2625 42.7376L33.7631 45.7421L33.786 46.0162L34.1629 46.3362L42.4796 43.4002L42.3767 43.2859C42.331 43.2288 42.2967 43.1602 42.2739 43.1031C42.2625 43.0916 42.2625 43.0688 42.2625 43.0574Z" fill="white"/>
<path d="M31.4555 23.4999L30.3131 23.9339L29.9019 14.0067C26.8974 15.5944 23.9386 17.331 21.0026 19.2158C20.8885 25.0877 21.2197 31.0623 22.0081 37.1399C22.4078 40.2357 22.9219 43.3659 23.5616 46.5305C23.5616 46.5305 23.5616 46.5419 23.5616 46.5533C23.5731 46.5648 23.5731 46.5762 23.5731 46.5876L23.5845 46.6102C23.7559 47.4443 23.9271 48.301 24.11 49.1579L32.6436 46.1419L31.5241 33.0502L32.6436 32.6161L33.7631 45.7421L42.2625 42.7376L43.6448 36.4088C42.7308 26.3787 42.6279 16.8967 43.3477 7.95193C39.1781 9.49409 35.0769 11.322 31.0214 13.4239L31.4555 23.4999Z" fill="white"/>
<path d="M20.9571 37.9052C20.9342 37.7797 20.9228 37.654 20.9114 37.5397C20.8999 37.4485 20.8885 37.3685 20.8771 37.2885C20.8657 37.2428 20.8657 37.1971 20.8542 37.1628L13.9313 41.3783L13.9884 41.424L14.6282 41.7552L20.9571 37.9052Z" fill="white"/>
<path d="M22.225 45.6507C21.7223 43.0574 21.2997 40.4757 20.9571 37.9052L14.6282 41.7552L22.225 45.6507Z" fill="#111111"/>
<path d="M19.8489 19.9584C14.4225 23.5113 9.08758 27.5668 3.85541 32.1364C3.27284 40.8526 4.4723 49.5691 7.45396 58.2856L15.1651 53.0648L13.44 42.4293C13.4058 42.4064 13.3716 42.3836 13.3373 42.3493L7.4311 38.2481L14.0798 33.8954L14.2055 35.1521L9.47599 38.2824L13.9313 41.3783L20.8542 37.1628C20.1116 31.3366 19.7689 25.6018 19.8489 19.9584" fill="white"/>
<path d="M14.1941 41.6181C14.1483 41.5495 14.0912 41.4924 14.0342 41.4469L13.9884 41.424L13.9313 41.3783L9.47599 38.2823L14.2055 35.1521L14.0798 33.8954L7.4311 38.2481L13.3373 42.3493L13.383 42.3836C13.5086 42.4636 13.6457 42.4978 13.7942 42.475H13.8057C13.9542 42.4407 14.0798 42.3721 14.1712 42.2464C14.1826 42.2236 14.2055 42.2007 14.2169 42.1778C14.2741 42.0636 14.2854 41.9378 14.2626 41.8124C14.2512 41.7438 14.2283 41.6752 14.1941 41.6181" fill="#111111"/>
<path d="M14.1941 42.8176L13.44 42.4293L15.1651 53.0648L7.45395 58.2855C7.46538 58.3427 7.48824 58.4112 7.51109 58.4682L8.16224 58.6396L15.5878 53.6017L15.7248 53.5103C15.782 53.476 15.8163 53.4188 15.8505 53.3617C15.8505 53.3503 15.8505 53.3388 15.8619 53.3274C15.8733 53.2705 15.8847 53.2248 15.8733 53.1676L15.8391 52.9619L14.1941 42.8176" fill="white"/>
<path d="M23.0819 49.8091C22.8876 48.895 22.6935 47.9926 22.5107 47.09L14.1941 42.8176L15.8391 52.9619L25.755 56.5034L24.2585 50.7229L23.3445 50.1745C23.2759 50.1288 23.2188 50.0717 23.1847 50.0145C23.1276 49.9574 23.0933 49.8891 23.0819 49.8091Z" fill="#111111"/>
<path d="M20.9342 61.8499L25.755 56.5034L15.5878 53.6017L8.16224 58.6396L20.9342 61.8499" fill="#111111"/>
<path d="M15.8391 52.9619L15.8733 53.1677C15.8847 53.2248 15.8733 53.2705 15.8619 53.3274C15.8504 53.3388 15.8504 53.3503 15.8504 53.3617C15.8163 53.4188 15.782 53.476 15.7248 53.5103L15.5878 53.6017L25.755 56.5034L15.8391 52.9619Z" fill="#111111"/>
<path d="M75.3231 36.009L75.2774 35.3121L65.3388 37.8026L65.4302 38.0652C65.4416 38.0766 65.4416 38.0881 65.4416 38.0995L65.453 38.1223L65.5559 38.4538L75.3231 36.009Z" fill="white"/>
<path d="M75.5174 39.4362L75.3231 36.009L65.5559 38.4538L68.1376 46.9417L75.5174 45.1252V39.4362" fill="#111111"/>
<path d="M58.5417 24.1511H58.5532L58.5302 24.0934C58.5302 24.1049 58.5302 24.128 58.5417 24.1511Z" fill="#111111"/>
<path d="M55.3999 39.8359L55.4799 39.7902L55.4342 39.7102L55.3999 39.8359Z" fill="#111111"/>
<path d="M59.0785 25.4304L58.633 24.368L54.7944 39.4705L43.5077 42.3836L43.4277 42.749V42.7605L43.6791 43.046L54.8973 40.1443L55.1599 40.0759C55.1828 40.0645 55.2056 40.0645 55.2285 40.0531C55.2628 40.0302 55.2856 40.0074 55.3085 39.9845C55.3542 39.9388 55.3885 39.8931 55.3999 39.8359L55.4342 39.7102L59.0785 25.4304" fill="white"/>
<path d="M55.4799 39.7902L55.3999 39.8359C55.3885 39.8931 55.3542 39.9388 55.3085 39.9845C55.2856 40.0073 55.2628 40.0302 55.2285 40.0531C55.2056 40.0645 55.1828 40.0645 55.1599 40.0759L54.8973 40.1445L59.9123 49.7748L60.0837 49.7519L55.4799 39.7902Z" fill="#111111"/>
<path d="M55.4342 39.7102L55.4799 39.7902L60.0837 49.7519L63.5566 36.3402L59.0785 25.4304L55.4342 39.7102Z" fill="#111111"/>
<path d="M54.8973 40.1443L43.6791 43.046L50.7389 51.2255L59.9123 49.7748L54.8973 40.1443" fill="#111111"/>
<path d="M66.7211 19.2844L66.3097 18.2106L57.1821 20.0041L58.5302 24.0939L58.553 24.1511H58.5416C58.553 24.1625 58.553 24.1739 58.5644 24.1853L58.633 24.368L59.0785 25.4304L59.6154 23.7396C59.6154 23.7511 59.6154 23.7511 59.6268 23.7511C59.6154 23.7396 59.6154 23.7396 59.6154 23.7396L58.6673 20.8722L66.7211 19.2844" fill="#111111"/>
<path d="M66.3097 18.2106L66.7209 19.2844L58.6673 20.8722L59.6154 23.7396C59.6154 23.7396 59.6154 23.7396 59.6268 23.7511L64.6761 36.0661L64.6876 36.0776C64.6876 36.089 64.6876 36.089 64.6876 36.1004L64.699 36.1118L65.3388 37.8026L75.2774 35.3121L74.8433 27.658L63.7737 4.50191L51.3103 6.53526L49.3111 15.6744V15.6972L43.5077 42.3835L54.7944 39.4704L58.633 24.368L58.5644 24.1854C58.553 24.1739 58.553 24.1625 58.5416 24.1511C58.5301 24.1282 58.5301 24.1054 58.5301 24.0939L57.182 20.0041L66.3097 18.2106" fill="white"/>
<path d="M120.825 41.4924L121.064 41.0812L121.11 40.8412L105.676 37.9169L105.631 38.6135L120.825 41.4924Z" fill="white"/>
<path d="M115.57 50.6886L120.825 41.4924L105.631 38.6135L105.573 39.4476C105.562 39.5619 105.528 39.6647 105.459 39.7559L99.3018 47.5929L115.57 50.6886" fill="#111111"/>
<path d="M104.443 39.1847L104.454 39.059H76.6483L76.6598 39.3676C76.6598 39.379 76.6598 39.3905 76.6598 39.4019V39.7445H104.008L104.443 39.1847Z" fill="white"/>
<path d="M97.9994 47.3871L104.008 39.7445H76.6598V46.2905L97.9994 47.3871Z" fill="#111111"/>
<path d="M92.1506 13.8925V14.6691L93.8984 14.852L106.03 16.9425C105.973 16.851 105.951 16.7482 105.962 16.6456L105.996 16.2458L92.8587 13.9839L92.1506 13.8925" fill="white"/>
<path d="M93.9099 14.852H93.8984L92.1506 14.6691L102.146 25.0877L102.683 24.0025L93.9099 14.852" fill="#111111"/>
<path d="M77.7679 24.0939L82.5317 27.0528L90.6768 27.1671L76.4769 14.7834L77.7679 24.0939Z" fill="#111111"/>
<path d="M92.1506 14.6691V13.8924L92.8587 13.9839L105.996 16.2458L106.568 7.62052C96.5601 5.30169 86.5529 3.82787 76.5341 3.21097L76.3169 13.6639L76.3284 13.7553L91.8763 27.304L91.8649 28.3209L76.0086 28.1037L76.6483 39.059H104.454L105.185 28.2523L102.146 25.0878L92.1506 14.6691" fill="white"/>
<path d="M76.3283 13.7553L76.4769 14.7834L90.6768 27.167L91.8648 28.3206L91.8763 27.3039L76.3283 13.7553" fill="white"/>
<path d="M115.067 20.8037V22.0032L124.012 25.5904L124.229 24.448L115.067 20.8037Z" fill="#111111"/>
<path d="M114.621 29.7144V30.914L122.595 33.0273L122.812 31.8964L114.621 29.7144" fill="#111111"/>
<path d="M106.145 27.6011L106.179 27.6466C106.236 27.7037 106.27 27.7609 106.305 27.8409C106.339 27.9209 106.35 28.0009 106.339 28.0809L105.676 37.9166L121.11 40.8412L122.595 33.0273L114.621 30.914V29.7145L122.812 31.8964L124.012 25.5904L115.067 22.0032V20.8037L124.229 24.448L125.965 15.3089C119.876 12.4644 113.787 10.0084 107.699 7.95196L106.853 17.1596L106.145 27.6011Z" fill="white"/>
<path d="M106.03 16.9539V16.9425L93.8984 14.852H93.9099L102.683 24.0025L106.03 16.9539Z" fill="#111111"/>
<path d="M107.699 7.95196L106.568 7.62053L105.996 16.2458L105.962 16.6456C105.951 16.7482 105.973 16.8511 106.03 16.9425V16.9539H106.042L106.704 17.1139L103.186 24.528L106.145 27.6011L106.853 17.1596L107.699 7.95196" fill="#111111"/>
<path d="M93.8984 14.852H93.911" stroke="#111111" stroke-width="0.062475" stroke-miterlimit="10" stroke-linecap="square"/>
<path d="M80.7496 4.67335C79.71 4.58192 78.6817 4.50192 77.6536 4.43335L77.4707 13.2413L79.4929 15.0005L85.2848 5.13026C83.7653 4.95883 82.2574 4.79906 80.7496 4.67335Z" fill="#111111"/>
<path d="M70.7421 21.7406L64.4476 32.4904L65.7385 35.6321C65.75 35.6549 65.75 35.6776 65.7614 35.7004L66.0469 36.4431L67.0752 36.1916L72.9014 26.253L70.7421 21.7406" fill="#111111"/>
<path d="M89.9344 24.1054L92.2077 26.0816C92.3789 26.1387 92.5389 26.2301 92.6761 26.3787C92.7789 26.4816 92.8587 26.5842 92.9158 26.6985C93.0987 26.8927 93.2015 27.1327 93.2244 27.4182C93.2472 27.7037 93.1787 27.9551 93.0072 28.1723V28.332C92.9958 28.6406 92.8815 28.9147 92.6646 29.1432C92.4361 29.3604 92.162 29.4744 91.842 29.463L86.827 29.3947L81.8234 37.9166H91.4308L99.5647 24.0482L93.6013 17.8336L89.9344 24.1054" fill="#111111"/>
<path d="M105.368 8.52314C103.494 8.10051 101.621 7.70051 99.7587 7.33503L96.2061 13.401L104.922 14.9091H104.934V14.8748L105.368 8.52314Z" fill="#111111"/>
<path d="M8.49348 29.7144C7.3169 30.674 6.14021 31.6678 4.96354 32.6847C4.90648 33.7699 4.8722 34.8438 4.86077 35.9176L8.49348 29.7144Z" fill="#111111"/>
<path d="M50.442 15.8458C50.4306 15.8801 50.4306 15.9029 50.4306 15.9372L47.4832 29.463L61.2033 6.07836L52.2585 7.54074L50.442 15.8458" fill="#111111"/>
<path d="M41.2915 41.8695L42.491 36.3402C42.0684 31.7364 41.8284 27.2354 41.7598 22.8601L34.0717 35.9747L34.7684 44.1769L41.2915 41.8695" fill="#111111"/>
<path d="M24.6812 46.3019C24.6697 46.2905 24.6697 46.2791 24.6697 46.2676C24.6697 46.2562 24.6697 46.2562 24.6697 46.2448C24.6583 46.2333 24.6583 46.2333 24.6583 46.2333C24.6469 46.1991 24.6469 46.1762 24.6354 46.1533L24.6812 46.3019Z" fill="#111111"/>
<path d="M31.0671 41.0926L27.8228 46.6217L31.4326 45.3536L31.0671 41.0926Z" fill="#111111"/>
<path d="M7.2369 53.7046C7.48824 54.6298 7.76243 55.5553 8.05938 56.492L13.9199 52.5165L12.629 44.4969L7.2369 53.7046Z" fill="#111111"/>
<path d="M15.9647 38.8078L19.6318 36.5688C19.4947 35.4378 19.3691 34.3068 19.2662 33.1759L15.9647 38.8078Z" fill="#111111"/>
<path d="M98.7306 37.9166H103.392L103.986 28.949L98.7306 37.9166Z" fill="#111111"/>
<path d="M132.18 25.3049L134.545 21.2722C132.454 19.4101 130.306 17.6965 128.124 16.1315L124.971 32.719C124.96 32.8216 124.949 32.9359 124.926 33.0387C124.914 33.0502 124.914 33.0502 124.914 33.0616C124.903 33.0845 124.903 33.1073 124.891 33.1416L123.601 39.9388L128.216 32.0678L127.919 24.6423C127.907 24.3451 127.987 24.0825 128.181 23.8654C128.376 23.6368 128.616 23.4999 128.901 23.4656C129.187 23.4199 129.461 23.477 129.701 23.6482L132.18 25.3049" fill="#111111"/>
<path d="M128.296 15.2516C128.296 15.2401 128.296 15.217 128.307 15.2055L128.296 15.2632V15.2516Z" fill="#111111"/>
<path d="M138.372 24.882L136.441 28.1723L137.606 28.9604C137.869 29.1318 138.029 29.3718 138.086 29.6801C138.143 29.9885 138.086 30.2856 137.915 30.5482L137.275 31.4966C137.103 31.7592 136.864 31.9192 136.555 31.9763C136.247 32.0335 135.95 31.9763 135.687 31.8049L134.704 31.1309L131.814 36.0661C131.894 41.0926 131.928 43.6288 131.917 43.6631L133.037 57.246L137.915 55.7836L135.881 42.8633C135.87 42.8176 135.87 42.7719 135.87 42.7262L134.956 37.0485C134.876 36.5916 134.842 36.1573 134.853 35.7461C134.864 35.5521 134.91 35.3921 134.99 35.2778C135.047 35.1864 135.162 35.0949 135.321 35.0149C135.458 34.9352 135.607 34.9009 135.755 34.9123C135.835 34.9123 135.961 34.9352 136.132 34.9809C136.361 35.0264 136.761 35.1864 137.343 35.4606L137.652 35.6321C137.72 35.6549 137.789 35.689 137.857 35.7461L140.337 37.0714C140.953 34.0554 141.216 30.9482 141.125 27.7609C140.211 26.767 139.297 25.8075 138.372 24.882" fill="#111111"/>
<path d="M107.619 22.7573L107.31 27.2925L106.887 36.9914L120.196 39.5162L121.27 33.8499L114.21 31.9192C113.902 31.8392 113.673 31.668 113.525 31.3937C113.365 31.1309 113.33 30.834 113.41 30.5256L113.433 29.4175C113.513 29.109 113.684 28.8804 113.959 28.7206C114.221 28.5606 114.519 28.5264 114.827 28.6064L121.921 30.4799L122.709 26.3102L114.633 23.0658C114.484 23.0087 114.336 22.7801 114.164 22.3804C113.993 21.9918 113.947 21.7292 114.004 21.5806L114.061 20.5182C114.176 20.2327 114.381 20.0156 114.667 19.8899C114.815 19.8327 115.033 19.7984 115.295 19.787C115.558 19.787 115.764 19.8213 115.912 19.8784L123.372 22.8716L124.674 15.9715C121.19 14.3608 117.694 12.8758 114.199 11.5277L107.619 22.7573" fill="#111111"/>
<path d="M42.0113 10.7508C42.0227 10.3853 42.0455 10.0198 42.0798 9.65411C38.7439 10.9565 35.4538 12.4415 32.1981 14.1094L32.5979 23.4542C32.6093 23.7625 32.5179 24.0368 32.301 24.2768C32.0838 24.5051 31.8098 24.6309 31.5012 24.6423L30.3588 24.9621C30.039 24.9735 29.7648 24.8821 29.5476 24.6651C29.3079 24.448 29.1821 24.1854 29.1707 23.8768L28.8738 16.7711L22.305 27.9894C22.465 30.9597 22.7392 33.964 23.139 36.9914C23.3331 38.5681 23.5731 40.1557 23.8359 41.7438L42.0113 10.7508" fill="#111111"/>
</g>
<defs>
<clipPath id="clip0_1_2">
<rect width="145" height="64" fill="white"/>
</clipPath>
</defs>
</svg>
