<svg width="86" height="56" viewBox="0 0 86 56" fill="none" xmlns="http://www.w3.org/2000/svg">
<g id="RESPONSIVEFRAME" clip-path="url(#clip0_1_2)">
<path id="RT1" d="M11.7052 50.7313L12.3977 50.6988C12.899 50.6772 13.2832 50.4608 13.5501 50.0496C13.8062 49.6564 13.9342 49.1208 13.9342 48.4427C13.9342 48.2516 13.8693 48.0911 13.7394 47.9612C13.6132 47.8314 13.4365 47.7647 13.2092 47.761C12.982 47.7574 12.7349 47.7538 12.468 47.7502L11.7052 50.7313ZM11.5645 47.7448C11.4491 47.7448 11.3373 47.7448 11.2291 47.7448C11.1209 47.7448 11.0451 47.7142 11.0018 47.6528C10.9586 47.5879 10.9477 47.514 10.9694 47.431L11.0235 47.1984C11.0379 47.1335 11.0722 47.0812 11.1263 47.0415C11.1804 46.9982 11.2309 46.9766 11.2778 46.9766H13.1605C13.6691 46.9766 14.0767 47.1046 14.3833 47.3607C14.6898 47.6132 14.8431 47.9883 14.8431 48.486C14.8431 48.9838 14.7476 49.4509 14.5564 49.8873C14.3688 50.3237 14.1614 50.6357 13.9342 50.8233C13.7106 51.0072 13.5393 51.1298 13.4202 51.1912C13.3012 51.2489 13.1714 51.3012 13.0307 51.3481L13.5393 54.6213C13.5789 54.8738 13.4978 55 13.2958 55H12.9171C12.8197 55 12.7494 54.9711 12.7061 54.9134C12.6664 54.8557 12.6375 54.7547 12.6195 54.6105L12.2029 51.4833L11.5104 51.4941L10.6772 54.7565C10.6339 54.9188 10.5239 55 10.3472 55H10.028C9.93782 55 9.8729 54.9675 9.83322 54.9026C9.79355 54.8341 9.78453 54.7529 9.80617 54.6592L11.5645 47.7448ZM17.6757 55C17.6757 55 16.7902 55 15.0193 55C14.9291 55 14.8642 54.9675 14.8245 54.9026C14.7848 54.8341 14.7758 54.7529 14.7975 54.6592L16.5558 47.7448H16.1122C16.0003 47.7448 15.9318 47.7286 15.9066 47.6961C15.8813 47.6601 15.8831 47.5789 15.912 47.4527L15.9823 47.1984C16.0076 47.101 16.0382 47.0397 16.0743 47.0144C16.1104 46.9892 16.1789 46.9766 16.2799 46.9766H19.8939C19.9985 46.9766 20.0653 46.9964 20.0941 47.0361C20.1266 47.0721 20.1302 47.1443 20.1049 47.2525L20.0238 47.5338C19.9913 47.6745 19.8994 47.7448 19.7479 47.7448H17.4593L16.8155 50.2714H18.774C18.8389 50.2714 18.8858 50.2967 18.9147 50.3472C18.9435 50.394 18.9489 50.4536 18.9309 50.5257L18.8498 50.8016C18.8137 50.9567 18.7037 51.0343 18.5197 51.0343H16.6207L15.8038 54.2372H17.93C17.9949 54.2372 18.0418 54.2624 18.0707 54.3129C18.0995 54.3598 18.1049 54.4193 18.0869 54.4914L18.0112 54.7674C17.9751 54.9225 17.8633 55 17.6757 55ZM22.7835 46.8575C23.2633 46.8575 23.6023 47.0541 23.8007 47.4472C23.999 47.8404 24.0982 48.4049 24.0982 49.1407C24.0982 49.3246 24.0369 49.4346 23.9143 49.4707L23.5247 49.5951C23.4634 49.6132 23.4039 49.6023 23.3462 49.5627C23.2885 49.523 23.2596 49.4563 23.2596 49.3625C23.2596 48.385 23.1009 47.8224 22.7835 47.6745C22.6357 47.5987 22.4589 47.6114 22.2533 47.7124C22.0477 47.8097 21.8385 48.0478 21.6257 48.4265C21.4129 48.8016 21.2993 49.2308 21.2849 49.7142C21.2777 49.9089 21.3101 50.0586 21.3823 50.1632C21.4544 50.2642 21.5951 50.3508 21.8043 50.4229L22.2587 50.5798C22.6952 50.7277 22.9819 50.908 23.119 51.1208C23.2416 51.3156 23.3029 51.6312 23.3029 52.0676C23.3029 52.5005 23.1857 52.9657 22.9513 53.4635C22.7204 53.9612 22.4066 54.3724 22.0099 54.697C21.6131 55.018 21.1983 55.1785 20.7655 55.1785C19.8926 55.1785 19.4562 54.4698 19.4562 53.0523V53.0144C19.4562 52.7331 19.5121 52.578 19.6239 52.5491L20.0351 52.4193C20.1073 52.3904 20.1668 52.3959 20.2137 52.4355C20.2642 52.4752 20.2894 52.5401 20.2894 52.6303C20.2894 53.211 20.3237 53.6492 20.3922 53.945C20.4607 54.2372 20.5743 54.4229 20.733 54.5023C20.8449 54.5275 20.9891 54.5023 21.1659 54.4265C21.4652 54.2931 21.7339 54.0171 21.972 53.5987C22.2642 53.0938 22.4048 52.5221 22.394 51.8837C22.3904 51.6889 22.2822 51.5338 22.0694 51.4184C21.9612 51.3643 21.8079 51.3066 21.6095 51.2453L21.1442 51.0992C20.935 51.0379 20.7547 50.9206 20.6032 50.7475C20.4517 50.5744 20.376 50.3399 20.376 50.0442C20.376 49.7484 20.4355 49.413 20.5545 49.0379C20.6771 48.6592 20.8394 48.3075 21.0414 47.9829C21.247 47.6583 21.5031 47.3895 21.8097 47.1767C22.1199 46.9639 22.4445 46.8575 22.7835 46.8575ZM25.8127 50.9206L26.4295 50.8882C27.0174 50.8665 27.425 50.6447 27.6522 50.2227C27.7965 49.9558 27.9047 49.651 27.9768 49.3084C28.0526 48.9621 28.0905 48.6736 28.0905 48.4427C28.0905 48.0063 27.8398 47.7773 27.3384 47.7556C27.1761 47.7484 26.9381 47.743 26.6243 47.7394L25.8127 50.9206ZM25.7262 47.734C25.6035 47.734 25.4863 47.734 25.3745 47.734C25.2663 47.734 25.1906 47.7033 25.1473 47.642C25.104 47.5771 25.0932 47.5032 25.1148 47.4202L25.1797 47.1984C25.1942 47.1335 25.2284 47.0812 25.2825 47.0415C25.3366 46.9982 25.3871 46.9766 25.434 46.9766H27.1707C27.7658 46.9766 28.2167 47.101 28.5233 47.3499C28.8335 47.5987 28.9886 48.0063 28.9886 48.5726C28.9886 48.991 28.8984 49.4527 28.7181 49.9576C28.5413 50.4626 28.3285 50.8106 28.0796 51.0018C27.957 51.0956 27.8704 51.1605 27.8199 51.1966C27.7731 51.229 27.6576 51.2885 27.4737 51.3751C27.2897 51.4617 27.1076 51.523 26.9273 51.5591C26.5485 51.6348 26.1121 51.6763 25.618 51.6835L24.8335 54.7565C24.7902 54.9188 24.6802 55 24.5034 55H24.1842C24.0941 55 24.0291 54.9675 23.9895 54.9026C23.9498 54.8341 23.9408 54.7529 23.9624 54.6592L25.7262 47.734ZM30.1106 53.6691C30.2332 54.0911 30.4298 54.3021 30.7003 54.3021C31.0935 54.3021 31.4379 54.1091 31.7337 53.7232C32.0944 53.2218 32.4406 52.4319 32.7725 51.3535C33.0863 50.3327 33.2017 49.4815 33.1187 48.7998C33.0791 48.4896 32.9997 48.2462 32.8807 48.0694C32.7616 47.8891 32.6084 47.7989 32.4208 47.7989C32.0132 47.7989 31.6507 48.0045 31.3333 48.4157C30.9474 48.9279 30.5921 49.7466 30.2675 50.872C29.9465 51.9937 29.8942 52.9261 30.1106 53.6691ZM29.0718 52.5978C29.0718 51.6023 29.3063 50.5582 29.7752 49.4653C30.291 48.275 30.9149 47.4869 31.6471 47.101C31.914 46.9603 32.1882 46.89 32.4695 46.89C32.7508 46.89 33.07 46.9928 33.4271 47.1984C33.6616 47.339 33.8221 47.5627 33.9086 47.8693C33.9952 48.1758 34.0385 48.6231 34.0385 49.211C34.0385 49.7953 33.9086 50.5798 33.6489 51.5645C33.1945 53.2994 32.4911 54.394 31.5389 54.8485C31.2576 54.9856 30.96 55.0541 30.6462 55.0541C30.3974 55.0541 30.1395 54.9838 29.8726 54.8431C29.3387 54.5618 29.0718 53.8133 29.0718 52.5978ZM35.7484 47.22C35.7917 47.0613 35.8981 46.9802 36.0676 46.9766H36.4031C36.551 46.9766 36.6465 47.092 36.6898 47.3228L37.6691 52.9333L39.1245 47.22C39.1677 47.0577 39.2795 46.9766 39.4599 46.9766H39.7791C39.8693 46.9766 39.9342 47.0108 39.9739 47.0794C40.0135 47.1479 40.0226 47.229 40.0009 47.3228L38.1073 54.7565C38.064 54.9188 37.9522 55 37.7719 55H37.3769C37.2832 55 37.2236 54.9567 37.1984 54.8702C37.184 54.8161 37.1731 54.771 37.1659 54.7349C37.1623 54.6988 37.1587 54.6736 37.1551 54.6592L36.1759 49.0703L34.7259 54.7565C34.6826 54.9188 34.5726 55 34.3959 55H34.0713C33.9811 55 33.9162 54.9675 33.8765 54.9026C33.8368 54.8341 33.8278 54.7529 33.8494 54.6592L35.7484 47.22ZM43.2796 46.8575C43.7593 46.8575 44.0984 47.0541 44.2968 47.4472C44.4951 47.8404 44.5943 48.4049 44.5943 49.1407C44.5943 49.3246 44.533 49.4346 44.4104 49.4707L44.0208 49.5951C43.9595 49.6132 43.9 49.6023 43.8423 49.5627C43.7846 49.523 43.7557 49.4563 43.7557 49.3625C43.7557 48.385 43.597 47.8224 43.2796 47.6745C43.1318 47.5987 42.955 47.6114 42.7494 47.7124C42.5438 47.8097 42.3346 48.0478 42.1218 48.4265C41.909 48.8016 41.7954 49.2308 41.781 49.7142C41.7738 49.9089 41.8062 50.0586 41.8784 50.1632C41.9505 50.2642 42.0912 50.3508 42.3004 50.4229L42.7548 50.5798C43.1913 50.7277 43.478 50.908 43.6151 51.1208C43.7377 51.3156 43.799 51.6312 43.799 52.0676C43.799 52.5005 43.6818 52.9657 43.4474 53.4635C43.2165 53.9612 42.9027 54.3724 42.506 54.697C42.1092 55.018 41.6944 55.1785 41.2616 55.1785C40.3887 55.1785 39.9523 54.4698 39.9523 53.0523V53.0144C39.9523 52.7331 40.0082 52.578 40.12 52.5491L40.5312 52.4193C40.6033 52.3904 40.6629 52.3959 40.7098 52.4355C40.7602 52.4752 40.7855 52.5401 40.7855 52.6303C40.7855 53.211 40.8198 53.6492 40.8883 53.945C40.9568 54.2372 41.0704 54.4229 41.2291 54.5023C41.3409 54.5275 41.4852 54.5023 41.662 54.4265C41.9613 54.2931 42.23 54.0171 42.4681 53.5987C42.7602 53.0938 42.9009 52.5221 42.8901 51.8837C42.8865 51.6889 42.7783 51.5338 42.5655 51.4184C42.4573 51.3643 42.304 51.3066 42.1056 51.2453L41.6403 51.0992C41.4311 51.0379 41.2508 50.9206 41.0993 50.7475C40.9478 50.5744 40.8721 50.3399 40.8721 50.0442C40.8721 49.7484 40.9316 49.413 41.0506 49.0379C41.1732 48.6592 41.3355 48.3075 41.5375 47.9829C41.7431 47.6583 41.9992 47.3895 42.3058 47.1767C42.616 46.9639 42.9406 46.8575 43.2796 46.8575ZM46.3305 47.22C46.3738 47.0577 46.4838 46.9766 46.6605 46.9766H46.9851C47.0753 46.9766 47.1384 47.0108 47.1745 47.0794C47.2141 47.1479 47.2232 47.229 47.2015 47.3228L45.3079 54.7565C45.2646 54.9188 45.1546 55 44.9779 55H44.6533C44.5631 55 44.4982 54.9675 44.4585 54.9026C44.4188 54.8341 44.4098 54.7529 44.4315 54.6592L46.3305 47.22ZM48.7644 46.9982C48.9591 46.9982 49.0439 47.0992 49.0186 47.3012L48.5696 54.0261L51.9185 47.2092C51.9979 47.0433 52.1386 46.9693 52.3406 46.9874L52.584 47.009C52.8293 47.0271 52.9068 47.1677 52.8167 47.431L49.116 54.5564C48.9754 54.8413 48.7535 54.9892 48.4506 55L48.1097 55.0108C47.9618 55.0144 47.8482 54.9603 47.7689 54.8485C47.6895 54.7367 47.6552 54.587 47.6661 54.3995L48.0556 47.2417C48.0736 47.0794 48.1837 46.9982 48.3856 46.9982H48.7644ZM54.7773 55C54.7773 55 53.8918 55 52.1208 55C52.0307 55 51.9657 54.9675 51.9261 54.9026C51.8864 54.8341 51.8774 54.7529 51.899 54.6592L53.6574 47.7448H53.2137C53.1019 47.7448 53.0334 47.7286 53.0081 47.6961C52.9829 47.6601 52.9847 47.5789 53.0135 47.4527L53.0839 47.1984C53.1091 47.101 53.1398 47.0397 53.1758 47.0144C53.2119 46.9892 53.2804 46.9766 53.3814 46.9766H56.9955C57.1001 46.9766 57.1668 46.9964 57.1957 47.0361C57.2281 47.0721 57.2318 47.1443 57.2065 47.2525L57.1254 47.5338C57.0929 47.6745 57.0009 47.7448 56.8494 47.7448H54.5609L53.9171 50.2714H55.8756C55.9405 50.2714 55.9874 50.2967 56.0162 50.3472C56.0451 50.394 56.0505 50.4536 56.0325 50.5257L55.9513 50.8016C55.9153 50.9567 55.8052 51.0343 55.6213 51.0343H53.7223L52.9053 54.2372H55.0316C55.0965 54.2372 55.1434 54.2624 55.1722 54.3129C55.2011 54.3598 55.2065 54.4193 55.1885 54.4914L55.1127 54.7674C55.0767 54.9225 54.9648 55 54.7773 55ZM58.1781 47.22C58.2214 47.0613 58.3278 46.9802 58.4973 46.9766H58.8328C58.9807 46.9766 59.0762 47.092 59.1195 47.3228L60.0988 52.9333L61.5541 47.22C61.5974 47.0577 61.7092 46.9766 61.8896 46.9766H62.2088C62.299 46.9766 62.3639 47.0108 62.4036 47.0794C62.4432 47.1479 62.4522 47.229 62.4306 47.3228L60.537 54.7565C60.4937 54.9188 60.3819 55 60.2016 55H59.8066C59.7128 55 59.6533 54.9567 59.6281 54.8702C59.6137 54.8161 59.6028 54.771 59.5956 54.7349C59.592 54.6988 59.5884 54.6736 59.5848 54.6592L58.6055 49.0703L57.1556 54.7565C57.1123 54.9188 57.0023 55 56.8256 55H56.5009C56.4108 55 56.3458 54.9675 56.3062 54.9026C56.2665 54.8341 56.2575 54.7529 56.2791 54.6592L58.1781 47.22ZM64.914 55C64.914 55 64.0285 55 62.2576 55C62.1674 55 62.1025 54.9675 62.0628 54.9026C62.0231 54.8341 62.0141 54.7529 62.0357 54.6592L63.7941 47.7448H63.3504C63.2386 47.7448 63.1701 47.7286 63.1448 47.6961C63.1196 47.6601 63.1214 47.5789 63.1503 47.4527L63.2206 47.1984C63.2458 47.101 63.2765 47.0397 63.3126 47.0144C63.3486 46.9892 63.4172 46.9766 63.5182 46.9766H67.1322C67.2368 46.9766 67.3035 46.9964 67.3324 47.0361C67.3649 47.0721 67.3685 47.1443 67.3432 47.2525L67.2621 47.5338C67.2296 47.6745 67.1376 47.7448 66.9861 47.7448H64.6976L64.0538 50.2714H66.0123C66.0772 50.2714 66.1241 50.2967 66.153 50.3472C66.1818 50.394 66.1872 50.4536 66.1692 50.5257L66.088 50.8016C66.052 50.9567 65.942 51.0343 65.758 51.0343H63.859L63.0421 54.2372H65.1683C65.2332 54.2372 65.2801 54.2624 65.309 54.3129C65.3378 54.3598 65.3432 54.4193 65.3252 54.4914L65.2494 54.7674C65.2134 54.9225 65.1016 55 64.914 55ZM70.0218 46.8575C70.5015 46.8575 70.8406 47.0541 71.039 47.4472C71.2373 47.8404 71.3365 48.4049 71.3365 49.1407C71.3365 49.3246 71.2752 49.4346 71.1526 49.4707L70.763 49.5951C70.7017 49.6132 70.6422 49.6023 70.5845 49.5627C70.5268 49.523 70.4979 49.4563 70.4979 49.3625C70.4979 48.385 70.3392 47.8224 70.0218 47.6745C69.8739 47.5987 69.6972 47.6114 69.4916 47.7124C69.286 47.8097 69.0768 48.0478 68.864 48.4265C68.6512 48.8016 68.5376 49.2308 68.5232 49.7142C68.516 49.9089 68.5484 50.0586 68.6206 50.1632C68.6927 50.2642 68.8334 50.3508 69.0426 50.4229L69.497 50.5798C69.9335 50.7277 70.2202 50.908 70.3573 51.1208C70.4799 51.3156 70.5412 51.6312 70.5412 52.0676C70.5412 52.5005 70.424 52.9657 70.1895 53.4635C69.9587 53.9612 69.6449 54.3724 69.2482 54.697C68.8514 55.018 68.4366 55.1785 68.0038 55.1785C67.1309 55.1785 66.6945 54.4698 66.6945 53.0523V53.0144C66.6945 52.7331 66.7504 52.578 66.8622 52.5491L67.2734 52.4193C67.3455 52.3904 67.405 52.3959 67.4519 52.4355C67.5024 52.4752 67.5277 52.5401 67.5277 52.6303C67.5277 53.211 67.5619 53.6492 67.6305 53.945C67.699 54.2372 67.8126 54.4229 67.9713 54.5023C68.0831 54.5275 68.2274 54.5023 68.4041 54.4265C68.7035 54.2931 68.9722 54.0171 69.2103 53.5987C69.5024 53.0938 69.6431 52.5221 69.6323 51.8837C69.6287 51.6889 69.5205 51.5338 69.3077 51.4184C69.1995 51.3643 69.0462 51.3066 68.8478 51.2453L68.3825 51.0992C68.1733 51.0379 67.993 50.9206 67.8415 50.7475C67.69 50.5744 67.6142 50.3399 67.6142 50.0442C67.6142 49.7484 67.6738 49.413 67.7928 49.0379C67.9154 48.6592 68.0777 48.3075 68.2797 47.9829C68.4853 47.6583 68.7414 47.3895 69.048 47.1767C69.3582 46.9639 69.6828 46.8575 70.0218 46.8575ZM74.8851 46.8575C75.3648 46.8575 75.7039 47.0541 75.9022 47.4472C76.1006 47.8404 76.1998 48.4049 76.1998 49.1407C76.1998 49.3246 76.1385 49.4346 76.0159 49.4707L75.6263 49.5951C75.565 49.6132 75.5055 49.6023 75.4478 49.5627C75.3901 49.523 75.3612 49.4563 75.3612 49.3625C75.3612 48.385 75.2025 47.8224 74.8851 47.6745C74.7372 47.5987 74.5605 47.6114 74.3549 47.7124C74.1493 47.8097 73.9401 48.0478 73.7273 48.4265C73.5145 48.8016 73.4009 49.2308 73.3865 49.7142C73.3792 49.9089 73.4117 50.0586 73.4838 50.1632C73.556 50.2642 73.6966 50.3508 73.9058 50.4229L74.3603 50.5798C74.7967 50.7277 75.0835 50.908 75.2205 51.1208C75.3432 51.3156 75.4045 51.6312 75.4045 52.0676C75.4045 52.5005 75.2873 52.9657 75.0528 53.4635C74.822 53.9612 74.5082 54.3724 74.1114 54.697C73.7147 55.018 73.2999 55.1785 72.8671 55.1785C71.9942 55.1785 71.5578 54.4698 71.5578 53.0523V53.0144C71.5578 52.7331 71.6137 52.578 71.7255 52.5491L72.1367 52.4193C72.2088 52.3904 72.2683 52.3959 72.3152 52.4355C72.3657 52.4752 72.391 52.5401 72.391 52.6303C72.391 53.211 72.4252 53.6492 72.4938 53.945C72.5623 54.2372 72.6759 54.4229 72.8346 54.5023C72.9464 54.5275 73.0907 54.5023 73.2674 54.4265C73.5668 54.2931 73.8355 54.0171 74.0736 53.5987C74.3657 53.0938 74.5064 52.5221 74.4956 51.8837C74.492 51.6889 74.3837 51.5338 74.1709 51.4184C74.0627 51.3643 73.9094 51.3066 73.7111 51.2453L73.2458 51.0992C73.0366 51.0379 72.8562 50.9206 72.7048 50.7475C72.5533 50.5744 72.4775 50.3399 72.4775 50.0442C72.4775 49.7484 72.537 49.413 72.6561 49.0379C72.7787 48.6592 72.941 48.3075 73.143 47.9829C73.3486 47.6583 73.6047 47.3895 73.9113 47.1767C74.2214 46.9639 74.5461 46.8575 74.8851 46.8575Z" fill="#FAFF00"/>
<g id="MONITOR">
<rect id="Rectangle 8" x="20.5" y="4.5" width="45" height="23" fill="black" stroke="white"/>
<circle id="Ellipse 1" cx="26.5" cy="21.5" r="3.5" fill="#FAFF00"/>
<path id="Vector 4" d="M31 18.5L36.5 18.5L42 18.5" stroke="white"/>
<path id="Vector 5" d="M37 20.5H42" stroke="white"/>
<path id="Vector 6" d="M35 22.5L42 22.514" stroke="white"/>
<path id="Vector 7" d="M32 24.5L41.9276 24.5198" stroke="white"/>
<path id="Vector 2" d="M23 14.5H42" stroke="white"/>
<path id="Vector 3" d="M23 16.5H34" stroke="white"/>
<rect id="Rectangle 2" x="23" y="7" width="19" height="6" fill="#FAFF00"/>
<rect id="Rectangle 3" x="44" y="7" width="19" height="18" fill="#FAFF00"/>
</g>
<g id="TABLET">
<rect id="Rectangle 6" x="11.5" y="21.5" width="19" height="12" fill="black" stroke="white"/>
<rect id="Rectangle 3_2" x="13.5" y="23.5" width="15" height="8" stroke="#FAFF00"/>
<rect id="Rectangle 9" x="15" y="25" width="12" height="1" fill="white"/>
<circle id="Ellipse 2" cx="16.5" cy="28.5" r="1.5" fill="#FAFF00"/>
<rect id="Rectangle 10" x="22" y="27" width="5" height="1" fill="white"/>
<rect id="Rectangle 11" x="20" y="29" width="7" height="1" fill="white"/>
</g>
<g id="PHONE">
<rect id="Rectangle 7" x="27.5" y="27.5" width="6" height="8" fill="black" stroke="white"/>
<g id="Group 2">
<rect id="Rectangle 13" x="29" y="29" width="3" height="1" fill="#FAFF00"/>
<rect id="Rectangle 14" x="29" y="31" width="3" height="1" fill="#FAFF00"/>
<rect id="Rectangle 15" x="29" y="33" width="3" height="1" fill="#FAFF00"/>
</g>
</g>
<g id="LAPTOP">
<path id="Vector" d="M51.5 18.5H77.5V31.5H51.5V18.5Z" fill="black" stroke="white"/>
<g id="Group 3">
<rect id="Rectangle 3_3" x="65" y="20" width="11" height="10" fill="#FAFF00"/>
<path id="Vector 5_2" d="M59 25.5H63" stroke="white"/>
<path id="Vector 6_2" d="M59 27.5L63 27.5077" stroke="white"/>
<circle id="Ellipse 1_2" cx="55.5" cy="27.5" r="2.5" fill="#FAFF00"/>
<path id="Vector 7_2" d="M59 29.5H63" stroke="white"/>
<path id="Vector 2_2" d="M53 23.5H63" stroke="white"/>
<rect id="Rectangle 2_2" x="53" y="20" width="10" height="2" fill="#FAFF00"/>
</g>
</g>
</g>
<defs>
<clipPath id="clip0_1_2">
<rect width="86" height="56" fill="white"/>
</clipPath>
</defs>
</svg>
