<svg width="86" height="56" viewBox="0 0 86 56" fill="none" xmlns="http://www.w3.org/2000/svg">
<g id="SEOFRAME" clip-path="url(#clip0_1_2)">
<path id="ST2" d="M39.5355 46.8575C40.0152 46.8575 40.3542 47.0541 40.5526 47.4472C40.751 47.8404 40.8502 48.4049 40.8502 49.1407C40.8502 49.3246 40.7889 49.4346 40.6662 49.4707L40.2767 49.5951C40.2154 49.6132 40.1559 49.6023 40.0982 49.5627C40.0405 49.523 40.0116 49.4563 40.0116 49.3625C40.0116 48.385 39.8529 47.8224 39.5355 47.6745C39.3876 47.5987 39.2109 47.6114 39.0053 47.7124C38.7997 47.8097 38.5905 48.0478 38.3777 48.4265C38.1649 48.8016 38.0513 49.2308 38.0368 49.7142C38.0296 49.9089 38.0621 50.0586 38.1342 50.1632C38.2064 50.2642 38.347 50.3508 38.5562 50.4229L39.0107 50.5798C39.4471 50.7277 39.7339 50.908 39.8709 51.1208C39.9936 51.3156 40.0549 51.6312 40.0549 52.0676C40.0549 52.5005 39.9377 52.9657 39.7032 53.4635C39.4724 53.9612 39.1586 54.3724 38.7618 54.697C38.3651 55.018 37.9503 55.1785 37.5175 55.1785C36.6446 55.1785 36.2082 54.4698 36.2082 53.0523V53.0144C36.2082 52.7331 36.2641 52.578 36.3759 52.5491L36.7871 52.4193C36.8592 52.3904 36.9187 52.3959 36.9656 52.4355C37.0161 52.4752 37.0414 52.5401 37.0414 52.6303C37.0414 53.211 37.0756 53.6492 37.1441 53.945C37.2127 54.2372 37.3263 54.4229 37.485 54.5023C37.5968 54.5275 37.7411 54.5023 37.9178 54.4265C38.2172 54.2931 38.4859 54.0171 38.724 53.5987C39.0161 53.0938 39.1568 52.5221 39.146 51.8837C39.1423 51.6889 39.0341 51.5338 38.8213 51.4184C38.7131 51.3643 38.5598 51.3066 38.3615 51.2453L37.8962 51.0992C37.687 51.0379 37.5066 50.9206 37.3552 50.7475C37.2037 50.5744 37.1279 50.3399 37.1279 50.0442C37.1279 49.7484 37.1874 49.413 37.3065 49.0379C37.4291 48.6592 37.5914 48.3075 37.7934 47.9829C37.999 47.6583 38.2551 47.3895 38.5616 47.1767C38.8718 46.9639 39.1964 46.8575 39.5355 46.8575ZM43.6035 55C43.6035 55 42.718 55 40.947 55C40.8568 55 40.7919 54.9675 40.7522 54.9026C40.7126 54.8341 40.7036 54.7529 40.7252 54.6592L42.4835 47.7448H42.0399C41.9281 47.7448 41.8595 47.7286 41.8343 47.6961C41.8091 47.6601 41.8109 47.5789 41.8397 47.4527L41.91 47.1984C41.9353 47.101 41.966 47.0397 42.002 47.0144C42.0381 46.9892 42.1066 46.9766 42.2076 46.9766H45.8217C45.9263 46.9766 45.993 46.9964 46.0219 47.0361C46.0543 47.0721 46.0579 47.1443 46.0327 47.2525L45.9515 47.5338C45.9191 47.6745 45.8271 47.7448 45.6756 47.7448H43.3871L42.7432 50.2714H44.7017C44.7667 50.2714 44.8136 50.2967 44.8424 50.3472C44.8713 50.394 44.8767 50.4536 44.8586 50.5257L44.7775 50.8016C44.7414 50.9567 44.6314 51.0343 44.4475 51.0343H42.5485L41.7315 54.2372H43.8577C43.9227 54.2372 43.9696 54.2624 43.9984 54.3129C44.0273 54.3598 44.0327 54.4193 44.0146 54.4914L43.9389 54.7674C43.9028 54.9225 43.791 55 43.6035 55ZM46.2532 53.6691C46.3758 54.0911 46.5724 54.3021 46.8429 54.3021C47.2361 54.3021 47.5805 54.1091 47.8763 53.7232C48.237 53.2218 48.5832 52.4319 48.915 51.3535C49.2288 50.3327 49.3443 49.4815 49.2613 48.7998C49.2216 48.4896 49.1423 48.2462 49.0233 48.0694C48.9042 47.8891 48.7509 47.7989 48.5634 47.7989C48.1558 47.7989 47.7933 48.0045 47.4759 48.4157C47.09 48.9279 46.7347 49.7466 46.4101 50.872C46.0891 51.9937 46.0368 52.9261 46.2532 53.6691ZM45.2144 52.5978C45.2144 51.6023 45.4489 50.5582 45.9178 49.4653C46.4335 48.275 47.0575 47.4869 47.7897 47.101C48.0566 46.9603 48.3307 46.89 48.6121 46.89C48.8934 46.89 49.2126 46.9928 49.5697 47.1984C49.8041 47.339 49.9646 47.5627 50.0512 47.8693C50.1378 48.1758 50.1811 48.6231 50.1811 49.211C50.1811 49.7953 50.0512 50.5798 49.7915 51.5645C49.337 53.2994 48.6337 54.394 47.6815 54.8485C47.4002 54.9856 47.1026 55.0541 46.7888 55.0541C46.5399 55.0541 46.282 54.9838 46.0151 54.8431C45.4813 54.5618 45.2144 53.8133 45.2144 52.5978Z" fill="#EBFF00"/>
<g id="GLASS">
<rect id="Rectangle 1" x="65.0641" y="28.1924" width="1.55433" height="23.4269" transform="rotate(-44.1703 65.0641 28.1924)" fill="white"/>
<circle id="Ellipse 1" cx="56.3846" cy="16.8187" r="14.5613" transform="rotate(0.82975 56.3846 16.8187)" fill="white"/>
<circle id="Ellipse 2" cx="56.3846" cy="16.8187" r="12.8175" transform="rotate(0.82975 56.3846 16.8187)" fill="#111111" stroke="black"/>
</g>
<g id="SBOX">
<g id="SOUTLINE">
<path d="M3.01432 16.0412C3.01432 11.8991 6.37218 8.54121 10.5143 8.54121H53.5143C57.6565 8.54121 61.0143 11.8991 61.0143 16.0412C61.0143 20.1833 57.6565 23.5412 53.5143 23.5412H10.5143C6.37219 23.5412 3.01432 20.1833 3.01432 16.0412Z" fill="#EBFF00"/>
<path d="M48.0143 8.54121V23.5412M10.5143 23.5412H53.5143C57.6565 23.5412 61.0143 20.1833 61.0143 16.0412C61.0143 11.8991 57.6565 8.54121 53.5143 8.54121H10.5143C6.37218 8.54121 3.01432 11.8991 3.01432 16.0412C3.01432 20.1833 6.37219 23.5412 10.5143 23.5412Z" stroke="#111111"/>
</g>
<path id="SARROW" d="M58.7674 16.3948C58.9627 16.1995 58.9627 15.8829 58.7674 15.6877L55.5854 12.5057C55.3902 12.3104 55.0736 12.3104 54.8783 12.5057C54.6831 12.7009 54.6831 13.0175 54.8783 13.2128L57.7068 16.0412L54.8783 18.8696C54.6831 19.0649 54.6831 19.3815 54.8783 19.5767C55.0736 19.772 55.3902 19.772 55.5854 19.5767L58.7674 16.3948ZM50 16.5412L58.4139 16.5412L58.4139 15.5412L50 15.5412L50 16.5412Z" fill="#111111"/>
<path id="ST1" d="M13.7049 11.3987C14.1846 11.3987 14.5236 11.5953 14.722 11.9885C14.9204 12.3816 15.0196 12.9461 15.0196 13.6819C15.0196 13.8658 14.9583 13.9758 14.8356 14.0119L14.4461 14.1363C14.3848 14.1544 14.3253 14.1436 14.2676 14.1039C14.2098 14.0642 14.181 13.9975 14.181 13.9037C14.181 12.9262 14.0223 12.3636 13.7049 12.2157C13.557 12.1399 13.3803 12.1526 13.1747 12.2536C12.9691 12.3509 12.7599 12.589 12.5471 12.9677C12.3343 13.3428 12.2207 13.772 12.2062 14.2554C12.199 14.4501 12.2315 14.5998 12.3036 14.7044C12.3758 14.8054 12.5164 14.892 12.7256 14.9641L13.1801 15.121C13.6165 15.2689 13.9033 15.4492 14.0403 15.662C14.163 15.8568 14.2243 16.1724 14.2243 16.6088C14.2243 17.0417 14.107 17.5069 13.8726 18.0047C13.6418 18.5024 13.328 18.9136 12.9312 19.2382C12.5345 19.5592 12.1197 19.7197 11.6869 19.7197C10.814 19.7197 10.3776 19.011 10.3776 17.5935V17.5556C10.3776 17.2743 10.4335 17.1192 10.5453 17.0903L10.9565 16.9605C11.0286 16.9316 11.0881 16.9371 11.135 16.9767C11.1855 17.0164 11.2107 17.0813 11.2107 17.1715C11.2107 17.7522 11.245 18.1904 11.3135 18.4862C11.3821 18.7784 11.4957 18.9641 11.6544 19.0435C11.7662 19.0687 11.9105 19.0435 12.0872 18.9677C12.3866 18.8343 12.6553 18.5583 12.8933 18.1399C13.1855 17.635 13.3262 17.0633 13.3153 16.4249C13.3117 16.2301 13.2035 16.075 12.9907 15.9596C12.8825 15.9055 12.7292 15.8478 12.5309 15.7865L12.0656 15.6404C11.8564 15.5791 11.676 15.4619 11.5245 15.2887C11.3731 15.1156 11.2973 14.8812 11.2973 14.5854C11.2973 14.2896 11.3568 13.9542 11.4758 13.5791C11.5985 13.2004 11.7608 12.8487 11.9628 12.5241C12.1684 12.1995 12.4245 11.9307 12.731 11.7179C13.0412 11.5051 13.3658 11.3987 13.7049 11.3987ZM17.7729 19.5412C17.7729 19.5412 16.8874 19.5412 15.1164 19.5412C15.0262 19.5412 14.9613 19.5087 14.9216 19.4438C14.882 19.3753 14.8729 19.2941 14.8946 19.2004L16.6529 12.286H16.2093C16.0975 12.286 16.0289 12.2698 16.0037 12.2373C15.9784 12.2013 15.9802 12.1201 16.0091 11.9939L16.0794 11.7396C16.1047 11.6422 16.1353 11.5809 16.1714 11.5556C16.2075 11.5304 16.276 11.5178 16.377 11.5178H19.9911C20.0957 11.5178 20.1624 11.5376 20.1912 11.5773C20.2237 11.6133 20.2273 11.6855 20.2021 11.7937L20.1209 12.075C20.0885 12.2157 19.9965 12.286 19.845 12.286H17.5564L16.9126 14.8126H18.8711C18.9361 14.8126 18.983 14.8379 19.0118 14.8884C19.0407 14.9353 19.0461 14.9948 19.028 15.0669L18.9469 15.3428C18.9108 15.4979 18.8008 15.5755 18.6169 15.5755H16.7178L15.9009 18.7784H18.0271C18.0921 18.7784 18.139 18.8036 18.1678 18.8541C18.1967 18.901 18.2021 18.9605 18.184 19.0326L18.1083 19.3086C18.0722 19.4637 17.9604 19.5412 17.7729 19.5412ZM20.7733 17.139L19.7021 19.3194C19.6227 19.4853 19.4857 19.5592 19.2909 19.5412L19.0366 19.5196C18.9068 19.516 18.822 19.4673 18.7823 19.3735C18.7427 19.2797 18.7499 19.1877 18.804 19.0976L22.4938 11.983C22.6489 11.6873 22.8527 11.5394 23.1052 11.5394L23.5488 11.5286C23.6823 11.5286 23.7869 11.5737 23.8626 11.6638C23.9383 11.754 23.9708 11.8875 23.96 12.0642L23.5704 19.2977C23.5632 19.4601 23.4532 19.5412 23.2404 19.5412L22.8617 19.5304C22.6814 19.5304 22.5966 19.4312 22.6074 19.2328L22.7481 17.139H20.7733ZM21.1683 16.3383H22.8022L23.0565 12.4862L21.1683 16.3383ZM26.2398 15.2725L26.9323 15.24C27.4337 15.2184 27.8178 15.002 28.0847 14.5908C28.3408 14.1977 28.4688 13.662 28.4688 12.9839C28.4688 12.7928 28.4039 12.6323 28.2741 12.5024C28.1478 12.3726 27.9711 12.3059 27.7439 12.3023C27.5166 12.2986 27.2696 12.295 27.0027 12.2914L26.2398 15.2725ZM26.0991 12.286C25.9837 12.286 25.8719 12.286 25.7637 12.286C25.6555 12.286 25.5798 12.2554 25.5365 12.194C25.4932 12.1291 25.4824 12.0552 25.504 11.9722L25.5581 11.7396C25.5725 11.6747 25.6068 11.6224 25.6609 11.5827C25.715 11.5394 25.7655 11.5178 25.8124 11.5178H27.6952C28.2037 11.5178 28.6113 11.6458 28.9179 11.9019C29.2245 12.1544 29.3778 12.5295 29.3778 13.0272C29.3778 13.525 29.2822 13.9921 29.091 14.4285C28.9035 14.8649 28.6961 15.1769 28.4688 15.3645C28.2452 15.5484 28.0739 15.6711 27.9549 15.7324C27.8358 15.7901 27.706 15.8424 27.5653 15.8893L28.0739 19.1625C28.1136 19.415 28.0324 19.5412 27.8304 19.5412H27.4517C27.3543 19.5412 27.284 19.5124 27.2407 19.4546C27.201 19.3969 27.1722 19.2959 27.1541 19.1517L26.7376 16.0245L26.045 16.0353L25.2119 19.2977C25.1686 19.4601 25.0586 19.5412 24.8818 19.5412H24.5626C24.4724 19.5412 24.4075 19.5087 24.3678 19.4438C24.3282 19.3753 24.3192 19.2941 24.3408 19.2004L26.0991 12.286ZM33.7523 11.6855C33.9218 11.8081 34.0679 12.0317 34.1905 12.3564C34.3168 12.6774 34.3871 12.9551 34.4015 13.1895C34.4196 13.424 34.4304 13.5628 34.434 13.6061C34.4412 13.7035 34.3654 13.7757 34.2067 13.8225L33.8984 13.9145C33.8262 13.9325 33.7505 13.9127 33.6711 13.855C33.5918 13.7937 33.5503 13.7125 33.5467 13.6115C33.489 13.0453 33.3627 12.6431 33.168 12.405C33.0706 12.369 32.9624 12.3509 32.8434 12.3509C32.4827 12.3329 32.1202 12.589 31.7559 13.1192C31.3916 13.6458 31.0796 14.3654 30.8199 15.2779C30.4809 16.4357 30.4087 17.3843 30.6035 18.1237C30.7117 18.5349 30.8758 18.7675 31.0958 18.8216C31.6369 18.7748 32.0841 18.3762 32.4376 17.626C32.4484 17.6043 32.4628 17.5737 32.4809 17.534C32.5025 17.4907 32.5169 17.4637 32.5242 17.4528C32.5314 17.4384 32.5422 17.4168 32.5566 17.3879C32.5746 17.3555 32.5873 17.3374 32.5945 17.3338C32.6017 17.3266 32.6125 17.314 32.6269 17.2959C32.6414 17.2779 32.654 17.2689 32.6648 17.2689C32.6792 17.2689 32.6937 17.2671 32.7081 17.2635C32.7261 17.2563 32.7442 17.2563 32.7622 17.2635C32.7838 17.2707 32.8073 17.2779 32.8325 17.2851C32.8578 17.2887 32.8848 17.2977 32.9137 17.3122L33.2654 17.4582C33.3339 17.4835 33.3682 17.5412 33.3682 17.6314C33.3718 17.7179 33.3483 17.8081 33.2978 17.9019C32.9516 18.5295 32.6143 18.9749 32.2861 19.2382C31.9579 19.4979 31.5503 19.6278 31.0634 19.6278C30.8398 19.6278 30.6035 19.5502 30.3546 19.3951C29.9543 19.1499 29.7144 18.6215 29.6351 17.8099C29.5593 16.9948 29.6513 16.0768 29.911 15.0561C30.0769 14.3816 30.3186 13.7702 30.636 13.222C30.9534 12.6702 31.3213 12.2337 31.7397 11.9127C32.1617 11.5917 32.5891 11.4312 33.0219 11.4312C33.1121 11.4312 33.2329 11.4564 33.3844 11.5069C33.5395 11.5574 33.6621 11.617 33.7523 11.6855ZM35.9024 11.7612C35.9456 11.5989 36.0557 11.5178 36.2324 11.5178H36.557C36.6472 11.5178 36.7121 11.552 36.7518 11.6206C36.7915 11.6891 36.8005 11.7702 36.7788 11.864L36.016 14.8451H38.6508L39.4353 11.7612C39.4786 11.5989 39.5904 11.5178 39.7707 11.5178H40.0899C40.1801 11.5178 40.245 11.552 40.2847 11.6206C40.3244 11.6891 40.3334 11.7702 40.3117 11.864L38.4181 19.2977C38.3749 19.4601 38.263 19.5412 38.0827 19.5412H37.7635C37.6733 19.5412 37.6084 19.5087 37.5687 19.4438C37.5291 19.3753 37.52 19.2941 37.5417 19.2004L38.456 15.6079H35.8212L34.8798 19.2977C34.8365 19.4601 34.7265 19.5412 34.5498 19.5412H34.2306C34.1404 19.5412 34.0755 19.5087 34.0358 19.4438C33.9961 19.3753 33.9871 19.2941 34.0088 19.2004L35.9024 11.7612Z" fill="#111111"/>
</g>
</g>
<defs>
<clipPath id="clip0_1_2">
<rect width="86" height="56" fill="white"/>
</clipPath>
</defs>
</svg>
