<svg width="86" height="56" viewBox="0 0 86 56" fill="none" xmlns="http://www.w3.org/2000/svg">
<g id="SSLFRAME" clip-path="url(#clip0_1_2)">
<path id="DomainT1" d="M14.7386 46.8575C15.2183 46.8575 15.5574 47.0541 15.7558 47.4472C15.9541 47.8404 16.0533 48.4049 16.0533 49.1407C16.0533 49.3246 15.992 49.4346 15.8694 49.4707L15.4798 49.5951C15.4185 49.6132 15.359 49.6023 15.3013 49.5627C15.2436 49.523 15.2147 49.4563 15.2147 49.3625C15.2147 48.385 15.056 47.8224 14.7386 47.6745C14.5907 47.5987 14.414 47.6114 14.2084 47.7124C14.0028 47.8097 13.7936 48.0478 13.5808 48.4265C13.368 48.8016 13.2544 49.2308 13.24 49.7142C13.2328 49.9089 13.2652 50.0586 13.3374 50.1632C13.4095 50.2642 13.5502 50.3508 13.7594 50.4229L14.2138 50.5798C14.6502 50.7277 14.937 50.908 15.0741 51.1208C15.1967 51.3156 15.258 51.6312 15.258 52.0676C15.258 52.5005 15.1408 52.9657 14.9063 53.4635C14.6755 53.9612 14.3617 54.3724 13.9649 54.697C13.5682 55.018 13.1534 55.1785 12.7206 55.1785C11.8477 55.1785 11.4113 54.4698 11.4113 53.0523V53.0144C11.4113 52.7331 11.4672 52.578 11.579 52.5491L11.9902 52.4193C12.0623 52.3904 12.1218 52.3959 12.1687 52.4355C12.2192 52.4752 12.2445 52.5401 12.2445 52.6303C12.2445 53.211 12.2787 53.6492 12.3473 53.945C12.4158 54.2372 12.5294 54.4229 12.6881 54.5023C12.7999 54.5275 12.9442 54.5023 13.1209 54.4265C13.4203 54.2931 13.689 54.0171 13.9271 53.5987C14.2192 53.0938 14.3599 52.5221 14.3491 51.8837C14.3455 51.6889 14.2373 51.5338 14.0245 51.4184C13.9163 51.3643 13.763 51.3066 13.5646 51.2453L13.0993 51.0992C12.8901 51.0379 12.7098 50.9206 12.5583 50.7475C12.4068 50.5744 12.331 50.3399 12.331 50.0442C12.331 49.7484 12.3906 49.413 12.5096 49.0379C12.6322 48.6592 12.7945 48.3075 12.9965 47.9829C13.2021 47.6583 13.4582 47.3895 13.7648 47.1767C14.075 46.9639 14.3996 46.8575 14.7386 46.8575ZM19.6019 46.8575C20.0816 46.8575 20.4207 47.0541 20.619 47.4472C20.8174 47.8404 20.9166 48.4049 20.9166 49.1407C20.9166 49.3246 20.8553 49.4346 20.7326 49.4707L20.3431 49.5951C20.2818 49.6132 20.2223 49.6023 20.1646 49.5627C20.1069 49.523 20.078 49.4563 20.078 49.3625C20.078 48.385 19.9193 47.8224 19.6019 47.6745C19.454 47.5987 19.2773 47.6114 19.0717 47.7124C18.8661 47.8097 18.6569 48.0478 18.4441 48.4265C18.2313 48.8016 18.1177 49.2308 18.1033 49.7142C18.096 49.9089 18.1285 50.0586 18.2006 50.1632C18.2728 50.2642 18.4134 50.3508 18.6226 50.4229L19.0771 50.5798C19.5135 50.7277 19.8003 50.908 19.9373 51.1208C20.06 51.3156 20.1213 51.6312 20.1213 52.0676C20.1213 52.5005 20.0041 52.9657 19.7696 53.4635C19.5388 53.9612 19.225 54.3724 18.8282 54.697C18.4315 55.018 18.0167 55.1785 17.5839 55.1785C16.711 55.1785 16.2746 54.4698 16.2746 53.0523V53.0144C16.2746 52.7331 16.3305 52.578 16.4423 52.5491L16.8535 52.4193C16.9256 52.3904 16.9851 52.3959 17.032 52.4355C17.0825 52.4752 17.1078 52.5401 17.1078 52.6303C17.1078 53.211 17.142 53.6492 17.2106 53.945C17.2791 54.2372 17.3927 54.4229 17.5514 54.5023C17.6632 54.5275 17.8075 54.5023 17.9842 54.4265C18.2836 54.2931 18.5523 54.0171 18.7904 53.5987C19.0825 53.0938 19.2232 52.5221 19.2124 51.8837C19.2088 51.6889 19.1005 51.5338 18.8877 51.4184C18.7795 51.3643 18.6262 51.3066 18.4279 51.2453L17.9626 51.0992C17.7534 51.0379 17.573 50.9206 17.4216 50.7475C17.2701 50.5744 17.1943 50.3399 17.1943 50.0442C17.1943 49.7484 17.2538 49.413 17.3729 49.0379C17.4955 48.6592 17.6578 48.3075 17.8598 47.9829C18.0654 47.6583 18.3215 47.3895 18.628 47.1767C18.9382 46.9639 19.2629 46.8575 19.6019 46.8575ZM24.0053 55C24.0053 55 22.9954 55 20.9755 55C20.8854 55 20.8205 54.9675 20.7808 54.9026C20.7411 54.8341 20.7321 54.7529 20.7537 54.6592L22.6527 47.22C22.696 47.0577 22.806 46.9766 22.9828 46.9766H23.3074C23.3976 46.9766 23.4607 47.0108 23.4967 47.0794C23.5364 47.1479 23.5454 47.229 23.5238 47.3228L21.76 54.2372H24.2704C24.3389 54.2372 24.3876 54.2624 24.4165 54.3129C24.4453 54.3598 24.4508 54.4193 24.4327 54.4914L24.357 54.7674C24.3209 54.9225 24.2037 55 24.0053 55ZM32.3485 47.1443C32.518 47.2669 32.6641 47.4905 32.7868 47.8151C32.913 48.1362 32.9833 48.4139 32.9978 48.6483C33.0158 48.8828 33.0266 49.0216 33.0302 49.0649C33.0374 49.1623 32.9617 49.2344 32.803 49.2813L32.4946 49.3733C32.4225 49.3913 32.3467 49.3715 32.2674 49.3138C32.188 49.2525 32.1465 49.1713 32.1429 49.0703C32.0852 48.5041 31.959 48.1019 31.7642 47.8638C31.6668 47.8278 31.5586 47.8097 31.4396 47.8097C31.0789 47.7917 30.7164 48.0478 30.3521 48.578C29.9878 49.1046 29.6758 49.8242 29.4161 50.7367C29.0771 51.8945 29.005 52.8431 29.1997 53.5825C29.3079 53.9937 29.4721 54.2263 29.6921 54.2804C30.2331 54.2335 30.6803 53.835 31.0338 53.0848C31.0446 53.0631 31.0591 53.0325 31.0771 52.9928C31.0987 52.9495 31.1132 52.9225 31.1204 52.9116C31.1276 52.8972 31.1384 52.8756 31.1528 52.8467C31.1709 52.8142 31.1835 52.7962 31.1907 52.7926C31.1979 52.7854 31.2088 52.7728 31.2232 52.7547C31.2376 52.7367 31.2502 52.7277 31.2611 52.7277C31.2755 52.7277 31.2899 52.7259 31.3043 52.7223C31.3224 52.7151 31.3404 52.7151 31.3584 52.7223C31.3801 52.7295 31.4035 52.7367 31.4288 52.7439C31.454 52.7475 31.4811 52.7565 31.5099 52.771L31.8616 52.917C31.9301 52.9423 31.9644 53 31.9644 53.0902C31.968 53.1767 31.9446 53.2669 31.8941 53.3607C31.5478 53.9883 31.2106 54.4337 30.8823 54.697C30.5541 54.9567 30.1465 55.0866 29.6596 55.0866C29.436 55.0866 29.1997 55.009 28.9509 54.8539C28.5505 54.6087 28.3106 54.0803 28.2313 53.2687C28.1556 52.4536 28.2475 51.5356 28.5072 50.5149C28.6731 49.8404 28.9148 49.229 29.2322 48.6808C29.5496 48.1289 29.9175 47.6925 30.3359 47.3715C30.7579 47.0505 31.1853 46.89 31.6181 46.89C31.7083 46.89 31.8291 46.9152 31.9806 46.9657C32.1357 47.0162 32.2583 47.0757 32.3485 47.1443ZM35.4941 55C35.4941 55 34.6086 55 32.8376 55C32.7475 55 32.6825 54.9675 32.6429 54.9026C32.6032 54.8341 32.5942 54.7529 32.6158 54.6592L34.3742 47.7448H33.9305C33.8187 47.7448 33.7502 47.7286 33.7249 47.6961C33.6997 47.6601 33.7015 47.5789 33.7303 47.4527L33.8007 47.1984C33.8259 47.101 33.8566 47.0397 33.8926 47.0144C33.9287 46.9892 33.9972 46.9766 34.0982 46.9766H37.7123C37.8169 46.9766 37.8836 46.9964 37.9125 47.0361C37.9449 47.0721 37.9486 47.1443 37.9233 47.2525L37.8421 47.5338C37.8097 47.6745 37.7177 47.7448 37.5662 47.7448H35.2777L34.6339 50.2714H36.5924C36.6573 50.2714 36.7042 50.2967 36.733 50.3472C36.7619 50.394 36.7673 50.4536 36.7493 50.5257L36.6681 50.8016C36.6321 50.9567 36.522 51.0343 36.3381 51.0343H34.4391L33.6221 54.2372H35.7484C35.8133 54.2372 35.8602 54.2624 35.889 54.3129C35.9179 54.3598 35.9233 54.4193 35.9053 54.4914L35.8295 54.7674C35.7935 54.9225 35.6816 55 35.4941 55ZM38.922 50.7313L39.6145 50.6988C40.1158 50.6772 40.5 50.4608 40.7669 50.0496C41.023 49.6564 41.151 49.1208 41.151 48.4427C41.151 48.2516 41.0861 48.0911 40.9562 47.9612C40.83 47.8314 40.6533 47.7647 40.426 47.761C40.1988 47.7574 39.9517 47.7538 39.6848 47.7502L38.922 50.7313ZM38.7813 47.7448C38.6659 47.7448 38.5541 47.7448 38.4459 47.7448C38.3377 47.7448 38.2619 47.7142 38.2186 47.6528C38.1754 47.5879 38.1645 47.514 38.1862 47.431L38.2403 47.1984C38.2547 47.1335 38.289 47.0812 38.3431 47.0415C38.3972 46.9982 38.4477 46.9766 38.4946 46.9766H40.3773C40.8859 46.9766 41.2935 47.1046 41.6001 47.3607C41.9066 47.6132 42.0599 47.9883 42.0599 48.486C42.0599 48.9838 41.9644 49.4509 41.7732 49.8873C41.5856 50.3237 41.3782 50.6357 41.151 50.8233C40.9274 51.0072 40.7561 51.1298 40.637 51.1912C40.518 51.2489 40.3882 51.3012 40.2475 51.3481L40.7561 54.6213C40.7957 54.8738 40.7146 55 40.5126 55H40.1339C40.0365 55 39.9662 54.9711 39.9229 54.9134C39.8832 54.8557 39.8543 54.7547 39.8363 54.6105L39.4197 51.4833L38.7272 51.4941L37.894 54.7565C37.8507 54.9188 37.7407 55 37.564 55H37.2448C37.1546 55 37.0897 54.9675 37.05 54.9026C37.0103 54.8341 37.0013 54.7529 37.023 54.6592L38.7813 47.7448ZM47.5706 47.7773C47.5706 47.7773 47.0043 47.7773 45.8718 47.7773L44.0864 54.7565C44.0431 54.9188 43.9331 55 43.7564 55H43.4372C43.347 55 43.2821 54.9675 43.2424 54.9026C43.2027 54.8341 43.1937 54.7529 43.2153 54.6592L44.9683 47.7773H43.2153C43.0061 47.7773 42.925 47.6925 42.9719 47.523L43.0476 47.1984C43.0693 47.1046 43.1017 47.0451 43.145 47.0198C43.1919 46.991 43.2694 46.9766 43.3776 46.9766H47.7005C47.9241 46.9766 48.0125 47.0812 47.9656 47.2904L47.9115 47.5446C47.8826 47.6997 47.769 47.7773 47.5706 47.7773ZM48.809 47.22C48.8523 47.0577 48.9623 46.9766 49.139 46.9766H49.4636C49.5538 46.9766 49.6169 47.0108 49.653 47.0794C49.6927 47.1479 49.7017 47.229 49.68 47.3228L47.7864 54.7565C47.7432 54.9188 47.6332 55 47.4564 55H47.1318C47.0416 55 46.9767 54.9675 46.937 54.9026C46.8974 54.8341 46.8883 54.7529 46.91 54.6592L48.809 47.22ZM53.0391 51.6186C53.0391 51.6186 52.3862 51.6186 51.0806 51.6186L50.2798 54.7565C50.2366 54.9188 50.1266 55 49.9498 55H49.6306C49.5404 55 49.4755 54.9675 49.4358 54.9026C49.3962 54.8341 49.3871 54.7529 49.4088 54.6592L51.1671 47.7448H50.7343C50.6225 47.7448 50.554 47.7286 50.5287 47.6961C50.5071 47.6601 50.5107 47.5789 50.5395 47.4527L50.6045 47.1984C50.6297 47.101 50.6604 47.0397 50.6964 47.0144C50.7325 46.9892 50.801 46.9766 50.902 46.9766C50.902 46.9766 52.1067 46.9766 54.5161 46.9766C54.6207 46.9766 54.6874 46.9964 54.7163 47.0361C54.7487 47.0721 54.7523 47.1443 54.7271 47.2525L54.6459 47.5338C54.6135 47.6745 54.5215 47.7448 54.37 47.7448H52.0706L51.2753 50.8557H53.2934C53.3583 50.8557 53.4052 50.881 53.434 50.9315C53.4629 50.9784 53.4683 51.0379 53.4503 51.11L53.3745 51.3859C53.3385 51.541 53.2266 51.6186 53.0391 51.6186ZM55.641 47.22C55.6843 47.0577 55.7943 46.9766 55.971 46.9766H56.2957C56.3858 46.9766 56.449 47.0108 56.485 47.0794C56.5247 47.1479 56.5337 47.229 56.5121 47.3228L54.6185 54.7565C54.5752 54.9188 54.4652 55 54.2884 55H53.9638C53.8737 55 53.8087 54.9675 53.7691 54.9026C53.7294 54.8341 53.7204 54.7529 53.742 54.6592L55.641 47.22ZM60.661 47.1443C60.8305 47.2669 60.9766 47.4905 61.0993 47.8151C61.2255 48.1362 61.2958 48.4139 61.3103 48.6483C61.3283 48.8828 61.3391 49.0216 61.3427 49.0649C61.3499 49.1623 61.2742 49.2344 61.1155 49.2813L60.8071 49.3733C60.735 49.3913 60.6592 49.3715 60.5799 49.3138C60.5005 49.2525 60.459 49.1713 60.4554 49.0703C60.3977 48.5041 60.2715 48.1019 60.0767 47.8638C59.9793 47.8278 59.8711 47.8097 59.7521 47.8097C59.3914 47.7917 59.0289 48.0478 58.6646 48.578C58.3003 49.1046 57.9883 49.8242 57.7286 50.7367C57.3896 51.8945 57.3175 52.8431 57.5122 53.5825C57.6204 53.9937 57.7846 54.2263 58.0046 54.2804C58.5456 54.2335 58.9928 53.835 59.3463 53.0848C59.3571 53.0631 59.3716 53.0325 59.3896 52.9928C59.4112 52.9495 59.4257 52.9225 59.4329 52.9116C59.4401 52.8972 59.4509 52.8756 59.4653 52.8467C59.4834 52.8142 59.496 52.7962 59.5032 52.7926C59.5104 52.7854 59.5213 52.7728 59.5357 52.7547C59.5501 52.7367 59.5627 52.7277 59.5736 52.7277C59.588 52.7277 59.6024 52.7259 59.6168 52.7223C59.6349 52.7151 59.6529 52.7151 59.6709 52.7223C59.6926 52.7295 59.716 52.7367 59.7413 52.7439C59.7665 52.7475 59.7936 52.7565 59.8224 52.771L60.1741 52.917C60.2426 52.9423 60.2769 53 60.2769 53.0902C60.2805 53.1767 60.2571 53.2669 60.2066 53.3607C59.8603 53.9883 59.5231 54.4337 59.1948 54.697C58.8666 54.9567 58.459 55.0866 57.9721 55.0866C57.7485 55.0866 57.5122 55.009 57.2634 54.8539C56.863 54.6087 56.6231 54.0803 56.5438 53.2687C56.4681 52.4536 56.56 51.5356 56.8197 50.5149C56.9856 49.8404 57.2273 49.229 57.5447 48.6808C57.8621 48.1289 58.23 47.6925 58.6484 47.3715C59.0704 47.0505 59.4978 46.89 59.9306 46.89C60.0208 46.89 60.1416 46.9152 60.2931 46.9657C60.4482 47.0162 60.5708 47.0757 60.661 47.1443ZM62.3891 52.5978L61.3179 54.7782C61.2385 54.9441 61.1014 55.018 60.9067 55L60.6524 54.9784C60.5225 54.9748 60.4378 54.9261 60.3981 54.8323C60.3584 54.7385 60.3656 54.6465 60.4198 54.5564L64.1096 47.4418C64.2647 47.1461 64.4684 46.9982 64.7209 46.9982L65.1646 46.9874C65.298 46.9874 65.4026 47.0325 65.4784 47.1226C65.5541 47.2128 65.5866 47.3463 65.5757 47.523L65.1862 54.7565C65.179 54.9188 65.069 55 64.8562 55L64.4775 54.9892C64.2971 54.9892 64.2124 54.89 64.2232 54.6916L64.3638 52.5978H62.3891ZM62.784 51.7971H64.4179L64.6722 47.945L62.784 51.7971ZM71.0316 47.7773C71.0316 47.7773 70.4653 47.7773 69.3327 47.7773L67.5473 54.7565C67.504 54.9188 67.394 55 67.2173 55H66.8981C66.8079 55 66.743 54.9675 66.7033 54.9026C66.6637 54.8341 66.6546 54.7529 66.6763 54.6592L68.4292 47.7773H66.6763C66.4671 47.7773 66.3859 47.6925 66.4328 47.523L66.5086 47.1984C66.5302 47.1046 66.5627 47.0451 66.6059 47.0198C66.6528 46.991 66.7304 46.9766 66.8386 46.9766H71.1614C71.385 46.9766 71.4734 47.0812 71.4265 47.2904L71.3724 47.5446C71.3435 47.6997 71.2299 47.7773 71.0316 47.7773ZM73.2871 55C73.2871 55 72.4016 55 70.6306 55C70.5404 55 70.4755 54.9675 70.4358 54.9026C70.3962 54.8341 70.3871 54.7529 70.4088 54.6592L72.1671 47.7448H71.7235C71.6117 47.7448 71.5431 47.7286 71.5179 47.6961C71.4926 47.6601 71.4945 47.5789 71.5233 47.4527L71.5936 47.1984C71.6189 47.101 71.6495 47.0397 71.6856 47.0144C71.7217 46.9892 71.7902 46.9766 71.8912 46.9766H75.5053C75.6099 46.9766 75.6766 46.9964 75.7055 47.0361C75.7379 47.0721 75.7415 47.1443 75.7163 47.2525L75.6351 47.5338C75.6027 47.6745 75.5107 47.7448 75.3592 47.7448H73.0706L72.4268 50.2714H74.3853C74.4503 50.2714 74.4972 50.2967 74.526 50.3472C74.5549 50.394 74.5603 50.4536 74.5422 50.5257L74.4611 50.8016C74.425 50.9567 74.315 51.0343 74.1311 51.0343H72.2321L71.4151 54.2372H73.5413C73.6063 54.2372 73.6532 54.2624 73.682 54.3129C73.7109 54.3598 73.7163 54.4193 73.6982 54.4914L73.6225 54.7674C73.5864 54.9225 73.4746 55 73.2871 55Z" fill="#FAFF00"/>
<path id="Vector 1" d="M26.7153 9.37801C27.1453 26.6637 29.3907 34.3588 42.8825 38.6346C56.2749 32.4738 60.0536 26.6314 59.0635 9.36047C52.0264 7.83432 48.6676 5.96855 42.8874 2.27814C36.9522 6.16593 33.4021 7.69354 26.7153 9.37801Z" fill="#111111" stroke="#FAFF00"/>
<g id="Rectangle 1">
<mask id="path-3-inside-1_1_2" fill="white">
<rect x="34.2005" y="18.1377" width="17.5991" height="11.8623" rx="0.5"/>
</mask>
<rect x="34.2005" y="18.1377" width="17.5991" height="11.8623" rx="0.5" stroke="white" stroke-width="2" mask="url(#path-3-inside-1_1_2)"/>
</g>
<path id="Vector 2" d="M39.5 11.1398C38.3602 12.2796 39.5 18.6398 39.5 18.6398H46.5C46.5 18.6398 47.6398 12.2796 46.5 11.1398C45.3602 10 40.6398 10 39.5 11.1398Z" stroke="white"/>
<g id="Group 1">
<circle id="Ellipse 1" cx="42.875" cy="22.875" r="1.875" fill="white"/>
<rect id="Rectangle 2" x="42.152" y="23.25" width="1.5" height="3.75" fill="white"/>
</g>
</g>
<defs>
<clipPath id="clip0_1_2">
<rect width="86" height="56" fill="white"/>
</clipPath>
</defs>
</svg>
