<svg width="300" height="164" viewBox="0 0 300 164" fill="none" xmlns="http://www.w3.org/2000/svg">
<g id="TOOLFRAME">
<path id="Subtract" fill-rule="evenodd" clip-rule="evenodd" d="M171.5 131C197.181 131 218 110.181 218 84.5C218 68.163 209.575 53.7938 196.833 45.5H171.5V74.5H206V75.5H171.5V104.5H206V105.5H171.5V131ZM171.5 44.5H195.226C188.28 40.3711 180.167 38 171.5 38V44.5ZM170.5 38.0105C145.28 38.5426 125 59.1529 125 84.5C125 98.4564 131.148 110.977 140.884 119.5H170.5L170.5 90.5H136V89.5H170.5V60.5H136V59.5H170.5V38.0105ZM170.5 130.989C159.72 130.762 149.843 126.866 142.066 120.5H170.5V130.989Z" fill="#EBFF00"/>
<g id="Group 2">
<path id="css/scss" d="M212.736 49.146C212.232 48.4833 211.98 47.4147 211.98 45.94C211.98 44.4653 212.232 43.3967 212.736 42.734C213.24 42.0713 214.075 41.74 215.242 41.74C216.409 41.74 217.249 42.062 217.762 42.706L217.454 42.986C217.043 42.4353 216.306 42.16 215.242 42.16C214.775 42.16 214.383 42.2113 214.066 42.314C213.749 42.4073 213.455 42.5893 213.184 42.86C212.923 43.1213 212.727 43.5087 212.596 44.022C212.465 44.526 212.4 45.1653 212.4 45.94C212.4 46.7147 212.465 47.3587 212.596 47.872C212.727 48.376 212.923 48.7633 213.184 49.034C213.455 49.2953 213.749 49.4773 214.066 49.58C214.383 49.6733 214.775 49.72 215.242 49.72C216.306 49.72 217.043 49.4447 217.454 48.894L217.762 49.174C217.249 49.818 216.409 50.14 215.242 50.14C214.075 50.14 213.24 49.8087 212.736 49.146ZM221.992 41.712C223.149 41.712 223.97 41.9687 224.456 42.482L224.176 42.79C223.728 42.3513 223.018 42.132 222.048 42.132C220.592 42.132 219.864 42.7107 219.864 43.868C219.864 44.316 220.041 44.6753 220.396 44.946C220.75 45.2073 221.18 45.408 221.684 45.548C222.197 45.688 222.706 45.8373 223.21 45.996C223.723 46.1453 224.157 46.3927 224.512 46.738C224.866 47.074 225.044 47.5173 225.044 48.068C225.044 48.712 224.778 49.2253 224.246 49.608C223.714 49.9907 222.944 50.182 221.936 50.182C221.441 50.182 220.951 50.1167 220.466 49.986C219.99 49.8553 219.635 49.664 219.402 49.412L219.682 49.104C220.158 49.5427 220.89 49.762 221.88 49.762C222.785 49.762 223.466 49.594 223.924 49.258C224.39 48.922 224.624 48.53 224.624 48.082C224.624 47.6153 224.446 47.2373 224.092 46.948C223.737 46.6587 223.303 46.444 222.79 46.304C222.286 46.1547 221.777 46.0053 221.264 45.856C220.76 45.6973 220.33 45.4547 219.976 45.128C219.621 44.8013 219.444 44.372 219.444 43.84C219.444 43.1213 219.682 42.5893 220.158 42.244C220.643 41.8893 221.254 41.712 221.992 41.712ZM229.224 41.712C230.381 41.712 231.203 41.9687 231.688 42.482L231.408 42.79C230.96 42.3513 230.251 42.132 229.28 42.132C227.824 42.132 227.096 42.7107 227.096 43.868C227.096 44.316 227.273 44.6753 227.628 44.946C227.983 45.2073 228.412 45.408 228.916 45.548C229.429 45.688 229.938 45.8373 230.442 45.996C230.955 46.1453 231.389 46.3927 231.744 46.738C232.099 47.074 232.276 47.5173 232.276 48.068C232.276 48.712 232.01 49.2253 231.478 49.608C230.946 49.9907 230.176 50.182 229.168 50.182C228.673 50.182 228.183 50.1167 227.698 49.986C227.222 49.8553 226.867 49.664 226.634 49.412L226.914 49.104C227.39 49.5427 228.123 49.762 229.112 49.762C230.017 49.762 230.699 49.594 231.156 49.258C231.623 48.922 231.856 48.53 231.856 48.082C231.856 47.6153 231.679 47.2373 231.324 46.948C230.969 46.6587 230.535 46.444 230.022 46.304C229.518 46.1547 229.009 46.0053 228.496 45.856C227.992 45.6973 227.563 45.4547 227.208 45.128C226.853 44.8013 226.676 44.372 226.676 43.84C226.676 43.1213 226.914 42.5893 227.39 42.244C227.875 41.8893 228.487 41.712 229.224 41.712ZM233.908 50.504L233.53 50.35L237.828 39.696L238.206 39.85L233.908 50.504ZM242.212 41.712C243.37 41.712 244.191 41.9687 244.676 42.482L244.396 42.79C243.948 42.3513 243.239 42.132 242.268 42.132C240.812 42.132 240.084 42.7107 240.084 43.868C240.084 44.316 240.262 44.6753 240.616 44.946C240.971 45.2073 241.4 45.408 241.904 45.548C242.418 45.688 242.926 45.8373 243.43 45.996C243.944 46.1453 244.378 46.3927 244.732 46.738C245.087 47.074 245.264 47.5173 245.264 48.068C245.264 48.712 244.998 49.2253 244.466 49.608C243.934 49.9907 243.164 50.182 242.156 50.182C241.662 50.182 241.172 50.1167 240.686 49.986C240.21 49.8553 239.856 49.664 239.622 49.412L239.902 49.104C240.378 49.5427 241.111 49.762 242.1 49.762C243.006 49.762 243.687 49.594 244.144 49.258C244.611 48.922 244.844 48.53 244.844 48.082C244.844 47.6153 244.667 47.2373 244.312 46.948C243.958 46.6587 243.524 46.444 243.01 46.304C242.506 46.1547 241.998 46.0053 241.484 45.856C240.98 45.6973 240.551 45.4547 240.196 45.128C239.842 44.8013 239.664 44.372 239.664 43.84C239.664 43.1213 239.902 42.5893 240.378 42.244C240.864 41.8893 241.475 41.712 242.212 41.712ZM247.709 49.146C247.205 48.4833 246.953 47.4147 246.953 45.94C246.953 44.4653 247.205 43.3967 247.709 42.734C248.213 42.0713 249.048 41.74 250.215 41.74C251.381 41.74 252.221 42.062 252.735 42.706L252.427 42.986C252.016 42.4353 251.279 42.16 250.215 42.16C249.748 42.16 249.356 42.2113 249.039 42.314C248.721 42.4073 248.427 42.5893 248.157 42.86C247.895 43.1213 247.699 43.5087 247.569 44.022C247.438 44.526 247.373 45.1653 247.373 45.94C247.373 46.7147 247.438 47.3587 247.569 47.872C247.699 48.376 247.895 48.7633 248.157 49.034C248.427 49.2953 248.721 49.4773 249.039 49.58C249.356 49.6733 249.748 49.72 250.215 49.72C251.279 49.72 252.016 49.4447 252.427 48.894L252.735 49.174C252.221 49.818 251.381 50.14 250.215 50.14C249.048 50.14 248.213 49.8087 247.709 49.146ZM256.964 41.712C258.122 41.712 258.943 41.9687 259.428 42.482L259.148 42.79C258.7 42.3513 257.991 42.132 257.02 42.132C255.564 42.132 254.836 42.7107 254.836 43.868C254.836 44.316 255.014 44.6753 255.368 44.946C255.723 45.2073 256.152 45.408 256.656 45.548C257.17 45.688 257.678 45.8373 258.182 45.996C258.696 46.1453 259.13 46.3927 259.484 46.738C259.839 47.074 260.016 47.5173 260.016 48.068C260.016 48.712 259.75 49.2253 259.218 49.608C258.686 49.9907 257.916 50.182 256.908 50.182C256.414 50.182 255.924 50.1167 255.438 49.986C254.962 49.8553 254.608 49.664 254.374 49.412L254.654 49.104C255.13 49.5427 255.863 49.762 256.852 49.762C257.758 49.762 258.439 49.594 258.896 49.258C259.363 48.922 259.596 48.53 259.596 48.082C259.596 47.6153 259.419 47.2373 259.064 46.948C258.71 46.6587 258.276 46.444 257.762 46.304C257.258 46.1547 256.75 46.0053 256.236 45.856C255.732 45.6973 255.303 45.4547 254.948 45.128C254.594 44.8013 254.416 44.372 254.416 43.84C254.416 43.1213 254.654 42.5893 255.13 42.244C255.616 41.8893 256.227 41.712 256.964 41.712ZM264.197 41.712C265.354 41.712 266.175 41.9687 266.661 42.482L266.381 42.79C265.933 42.3513 265.223 42.132 264.253 42.132C262.797 42.132 262.069 42.7107 262.069 43.868C262.069 44.316 262.246 44.6753 262.601 44.946C262.955 45.2073 263.385 45.408 263.889 45.548C264.402 45.688 264.911 45.8373 265.415 45.996C265.928 46.1453 266.362 46.3927 266.717 46.738C267.071 47.074 267.249 47.5173 267.249 48.068C267.249 48.712 266.983 49.2253 266.451 49.608C265.919 49.9907 265.149 50.182 264.141 50.182C263.646 50.182 263.156 50.1167 262.671 49.986C262.195 49.8553 261.84 49.664 261.607 49.412L261.887 49.104C262.363 49.5427 263.095 49.762 264.085 49.762C264.99 49.762 265.671 49.594 266.129 49.258C266.595 48.922 266.829 48.53 266.829 48.082C266.829 47.6153 266.651 47.2373 266.297 46.948C265.942 46.6587 265.508 46.444 264.995 46.304C264.491 46.1547 263.982 46.0053 263.469 45.856C262.965 45.6973 262.535 45.4547 262.181 45.128C261.826 44.8013 261.649 44.372 261.649 43.84C261.649 43.1213 261.887 42.5893 262.363 42.244C262.848 41.8893 263.459 41.712 264.197 41.712Z" fill="white"/>
<path id="javascript" d="M63.21 65.546C63.462 66.7687 64.1853 67.38 65.38 67.38C66.1547 67.38 66.668 67.1607 66.92 66.722C67.172 66.2927 67.298 65.6627 67.298 64.832V56.88H67.718V64.832C67.718 65.0933 67.7133 65.3033 67.704 65.462C67.6947 65.6207 67.6713 65.8353 67.634 66.106C67.5967 66.3767 67.5267 66.5913 67.424 66.75C67.3213 66.918 67.186 67.0907 67.018 67.268C66.8593 67.4547 66.64 67.59 66.36 67.674C66.08 67.758 65.7533 67.8 65.38 67.8C63.9147 67.8 63.0233 67.0487 62.706 65.546H63.21ZM71.115 64.58H75.679L72.809 57.818L69.757 65H69.309L72.809 56.74L76.309 65H71.115V64.58ZM83.8282 56.88L80.3282 65.14L76.8282 56.88H77.2762L80.3282 64.062L83.3802 56.88H83.8282ZM86.154 64.58H90.718L87.848 57.818L84.796 65H84.348L87.848 56.74L91.348 65H86.154V64.58ZM95.0872 56.712C96.2446 56.712 97.0659 56.9687 97.5512 57.482L97.2712 57.79C96.8232 57.3513 96.1139 57.132 95.1432 57.132C93.6872 57.132 92.9592 57.7107 92.9592 58.868C92.9592 59.316 93.1366 59.6753 93.4912 59.946C93.8459 60.2073 94.2752 60.408 94.7792 60.548C95.2926 60.688 95.8012 60.8373 96.3052 60.996C96.8186 61.1453 97.2526 61.3927 97.6072 61.738C97.9619 62.074 98.1392 62.5173 98.1392 63.068C98.1392 63.712 97.8732 64.2253 97.3412 64.608C96.8092 64.9907 96.0392 65.182 95.0312 65.182C94.5366 65.182 94.0466 65.1167 93.5612 64.986C93.0852 64.8553 92.7306 64.664 92.4972 64.412L92.7772 64.104C93.2532 64.5427 93.9859 64.762 94.9752 64.762C95.8806 64.762 96.5619 64.594 97.0192 64.258C97.4859 63.922 97.7192 63.53 97.7192 63.082C97.7192 62.6153 97.5419 62.2373 97.1872 61.948C96.8326 61.6587 96.3986 61.444 95.8852 61.304C95.3812 61.1547 94.8726 61.0053 94.3592 60.856C93.8552 60.6973 93.4259 60.4547 93.0712 60.128C92.7166 59.8013 92.5392 59.372 92.5392 58.84C92.5392 58.1213 92.7772 57.5893 93.2532 57.244C93.7386 56.8893 94.3499 56.712 95.0872 56.712ZM100.584 64.146C100.08 63.4833 99.8277 62.4147 99.8277 60.94C99.8277 59.4653 100.08 58.3967 100.584 57.734C101.088 57.0713 101.923 56.74 103.09 56.74C104.256 56.74 105.096 57.062 105.61 57.706L105.302 57.986C104.891 57.4353 104.154 57.16 103.09 57.16C102.623 57.16 102.231 57.2113 101.914 57.314C101.596 57.4073 101.302 57.5893 101.032 57.86C100.77 58.1213 100.574 58.5087 100.444 59.022C100.313 59.526 100.248 60.1653 100.248 60.94C100.248 61.7147 100.313 62.3587 100.444 62.872C100.574 63.376 100.77 63.7633 101.032 64.034C101.302 64.2953 101.596 64.4773 101.914 64.58C102.231 64.6733 102.623 64.72 103.09 64.72C104.154 64.72 104.891 64.4447 105.302 63.894L105.61 64.174C105.096 64.818 104.256 65.14 103.09 65.14C101.923 65.14 101.088 64.8087 100.584 64.146ZM111.113 60.926L113.017 65H112.555L110.595 60.8C110.614 60.7907 110.693 60.7533 110.833 60.688C110.983 60.6133 111.085 60.562 111.141 60.534C111.197 60.4967 111.291 60.436 111.421 60.352C111.552 60.268 111.65 60.1887 111.715 60.114C111.781 60.03 111.851 59.9367 111.925 59.834C112.009 59.722 112.07 59.6007 112.107 59.47C112.145 59.33 112.163 59.1807 112.163 59.022C112.163 58.434 111.883 58 111.323 57.72C110.763 57.44 110.068 57.3 109.237 57.3H108.117V65H107.697V56.88H109.237C110.339 56.88 111.169 57.0713 111.729 57.454C112.299 57.8367 112.583 58.3593 112.583 59.022C112.583 59.4513 112.439 59.834 112.149 60.17C111.86 60.4967 111.515 60.7487 111.113 60.926ZM114.916 56.88H115.336V65H114.916V56.88ZM121.464 61.976L121.254 61.612L122.038 61.164C122.682 60.8093 123.004 60.2447 123.004 59.47C123.004 58.0233 121.903 57.3 119.7 57.3H118.412V67.8H117.992V56.88H119.7C120.932 56.88 121.861 57.1087 122.486 57.566C123.111 58.014 123.424 58.6487 123.424 59.47C123.424 60.4033 123.032 61.0893 122.248 61.528L121.464 61.976ZM130.652 56.88V57.3H127.712V65H127.292V57.3H124.352V56.88H130.652Z" fill="white"/>
<path id="HTML" d="M105.266 35H104.846V30.1H99.806V35H99.386V25.2H99.806V29.68H104.846V25.2H105.266V35ZM113.864 25.2V25.62H110.574V35H110.154V25.62H106.864V25.2H113.864ZM116.668 34.58H122.184V26.194L119.034 32.942L115.884 26.18V35L115.464 34.986V25.186H115.884L119.034 31.948L122.184 25.2L122.604 25.186V35L116.668 34.986V34.58ZM131.228 34.58V35H125.376V25.2H125.796V34.58H131.228Z" fill="white"/>
<path id="jquery" d="M211.21 80.546C211.462 81.7687 212.185 82.38 213.38 82.38C214.155 82.38 214.668 82.1607 214.92 81.722C215.172 81.2927 215.298 80.6627 215.298 79.832V71.88H215.718V79.832C215.718 80.0933 215.713 80.3033 215.704 80.462C215.695 80.6207 215.671 80.8353 215.634 81.106C215.597 81.3767 215.527 81.5913 215.424 81.75C215.321 81.918 215.186 82.0907 215.018 82.268C214.859 82.4547 214.64 82.59 214.36 82.674C214.08 82.758 213.753 82.8 213.38 82.8C211.915 82.8 211.023 82.0487 210.706 80.546H211.21ZM220.893 80.126C219.876 80.0607 219.143 79.6967 218.695 79.034C218.256 78.362 218.037 77.3307 218.037 75.94C218.037 74.4653 218.289 73.3967 218.793 72.734C219.306 72.0713 220.142 71.74 221.299 71.74C222.456 71.74 223.287 72.0713 223.791 72.734C224.304 73.3967 224.561 74.4653 224.561 75.94C224.561 77.8067 224.136 79.0387 223.287 79.636L223.049 79.3C223.777 78.8053 224.141 77.6853 224.141 75.94C224.141 75.1653 224.076 74.526 223.945 74.022C223.814 73.5087 223.614 73.1213 223.343 72.86C223.082 72.5893 222.792 72.4073 222.475 72.314C222.158 72.2113 221.766 72.16 221.299 72.16C220.832 72.16 220.44 72.2113 220.123 72.314C219.806 72.4073 219.512 72.5893 219.241 72.86C218.98 73.1213 218.784 73.5087 218.653 74.022C218.522 74.526 218.457 75.1653 218.457 75.94C218.457 76.7147 218.522 77.3587 218.653 77.872C218.784 78.376 218.98 78.7633 219.241 79.034C219.512 79.2953 219.806 79.4773 220.123 79.58C220.44 79.6733 220.832 79.72 221.299 79.72C221.299 80.756 221.462 81.456 221.789 81.82C222.125 82.1933 222.643 82.38 223.343 82.38V82.8C222.587 82.8 222.004 82.6133 221.593 82.24C221.182 81.8667 220.949 81.162 220.893 80.126ZM227.157 71.88V75.94C227.157 77.3307 227.376 78.3107 227.815 78.88C228.263 79.44 228.874 79.72 229.649 79.72C230.424 79.72 231.03 79.44 231.469 78.88C231.917 78.3107 232.141 77.3307 232.141 75.94V71.88H232.561V75.94C232.561 78.74 231.59 80.14 229.649 80.14C227.708 80.14 226.737 78.74 226.737 75.94V71.88H227.157ZM240.512 79.174C239.999 79.818 239.159 80.14 237.992 80.14C236.825 80.14 235.99 79.8087 235.486 79.146C234.982 78.4833 234.73 77.4147 234.73 75.94C234.73 74.4653 234.982 73.3967 235.486 72.734C235.99 72.0713 236.825 71.74 237.992 71.74C239.345 71.74 240.265 72.1833 240.75 73.07L237.32 75.94H236.662L240.204 72.986C239.793 72.4353 239.056 72.16 237.992 72.16C237.525 72.16 237.133 72.2113 236.816 72.314C236.499 72.4073 236.205 72.5893 235.934 72.86C235.673 73.1213 235.477 73.5087 235.346 74.022C235.215 74.526 235.15 75.1653 235.15 75.94C235.15 76.7147 235.215 77.3587 235.346 77.872C235.477 78.376 235.673 78.7633 235.934 79.034C236.205 79.2953 236.499 79.4773 236.816 79.58C237.133 79.6733 237.525 79.72 237.992 79.72C239.056 79.72 239.793 79.4447 240.204 78.894L240.512 79.174ZM246.166 75.926L248.07 80H247.608L245.648 75.8C245.667 75.7907 245.746 75.7533 245.886 75.688C246.035 75.6133 246.138 75.562 246.194 75.534C246.25 75.4967 246.343 75.436 246.474 75.352C246.605 75.268 246.703 75.1887 246.768 75.114C246.833 75.03 246.903 74.9367 246.978 74.834C247.062 74.722 247.123 74.6007 247.16 74.47C247.197 74.33 247.216 74.1807 247.216 74.022C247.216 73.434 246.936 73 246.376 72.72C245.816 72.44 245.121 72.3 244.29 72.3H243.17V80H242.75V71.88H244.29C245.391 71.88 246.222 72.0713 246.782 72.454C247.351 72.8367 247.636 73.3593 247.636 74.022C247.636 74.4513 247.491 74.834 247.202 75.17C246.913 75.4967 246.567 75.7487 246.166 75.926ZM250.459 71.88H255.877L252.587 79.65V82.8H252.167V79.65L248.877 71.88H249.325L252.377 79.062L255.247 72.3H250.459V71.88Z" fill="white"/>
<path id="api integration" d="M35.072 94.58H39.636L36.766 87.818L33.714 95H33.266L36.766 86.74L40.266 95H35.072V94.58ZM45.3352 91.976L45.1252 91.612L45.9092 91.164C46.5532 90.8093 46.8752 90.2447 46.8752 89.47C46.8752 88.0233 45.7739 87.3 43.5712 87.3H42.2832V97.8H41.8632V86.88H43.5712C44.8032 86.88 45.7319 87.1087 46.3572 87.566C46.9825 88.014 47.2952 88.6487 47.2952 89.47C47.2952 90.4033 46.9032 91.0893 46.1192 91.528L45.3352 91.976ZM49.2734 86.88H49.6934V95H49.2734V86.88ZM56.4784 86.88H56.8984V95H56.4784V86.88ZM59.5546 95V86.88H59.9746L64.5386 94.23V86.88H64.9586V95H64.5386L59.9746 87.636V95H59.5546ZM72.871 86.88V87.3H69.931V95H69.511V87.3H66.571V86.88H72.871ZM79.9163 94.174C79.403 94.818 78.563 95.14 77.3963 95.14C76.2296 95.14 75.3943 94.8087 74.8903 94.146C74.3863 93.4833 74.1343 92.4147 74.1343 90.94C74.1343 89.4653 74.3863 88.3967 74.8903 87.734C75.3943 87.0713 76.2296 86.74 77.3963 86.74C78.7496 86.74 79.669 87.1833 80.1543 88.07L76.7243 90.94H76.0663L79.6083 87.986C79.1976 87.4353 78.4603 87.16 77.3963 87.16C76.9296 87.16 76.5376 87.2113 76.2203 87.314C75.903 87.4073 75.609 87.5893 75.3383 87.86C75.077 88.1213 74.881 88.5087 74.7503 89.022C74.6196 89.526 74.5543 90.1653 74.5543 90.94C74.5543 91.7147 74.6196 92.3587 74.7503 92.872C74.881 93.376 75.077 93.7633 75.3383 94.034C75.609 94.2953 75.903 94.4773 76.2203 94.58C76.5376 94.6733 76.9296 94.72 77.3963 94.72C78.4603 94.72 79.1976 94.4447 79.6083 93.894L79.9163 94.174ZM85.4162 89.54L87.2782 87.986C86.8676 87.4353 86.1302 87.16 85.0662 87.16C84.5996 87.16 84.2076 87.2113 83.8902 87.314C83.5729 87.4073 83.2789 87.5893 83.0082 87.86C82.7469 88.1213 82.5509 88.5087 82.4202 89.022C82.2896 89.526 82.2242 90.1653 82.2242 90.94C82.2242 91.7147 82.2896 92.3587 82.4202 92.872C82.5509 93.376 82.7469 93.7633 83.0082 94.034C83.2789 94.2953 83.5729 94.4773 83.8902 94.58C84.2076 94.6733 84.5996 94.72 85.0662 94.72C86.1209 94.72 86.8536 94.4493 87.2642 93.908V91.43H87.6842V95.126C87.6842 96.9087 86.8676 97.8 85.2342 97.8H83.5962V97.38H85.2342C85.9342 97.38 86.4476 97.1933 86.7742 96.82C87.1009 96.456 87.2642 95.756 87.2642 94.72V94.51C86.7602 94.93 86.0276 95.14 85.0662 95.14C83.8996 95.14 83.0642 94.8087 82.5602 94.146C82.0562 93.4833 81.8042 92.4147 81.8042 90.94C81.8042 89.4653 82.0562 88.3967 82.5602 87.734C83.0642 87.0713 83.8996 86.74 85.0662 86.74C86.4196 86.74 87.3389 87.1833 87.8242 88.07L86.0742 89.54H85.4162ZM93.5546 90.926L95.4586 95H94.9966L93.0366 90.8C93.0553 90.7907 93.1346 90.7533 93.2746 90.688C93.4239 90.6133 93.5266 90.562 93.5826 90.534C93.6386 90.4967 93.7319 90.436 93.8626 90.352C93.9933 90.268 94.0913 90.1887 94.1566 90.114C94.2219 90.03 94.2919 89.9367 94.3666 89.834C94.4506 89.722 94.5113 89.6007 94.5486 89.47C94.5859 89.33 94.6046 89.1807 94.6046 89.022C94.6046 88.434 94.3246 88 93.7646 87.72C93.2046 87.44 92.5093 87.3 91.6786 87.3H90.5586V95H90.1386V86.88H91.6786C92.7799 86.88 93.6106 87.0713 94.1706 87.454C94.7399 87.8367 95.0246 88.3593 95.0246 89.022C95.0246 89.4513 94.8799 89.834 94.5906 90.17C94.3013 90.4967 93.9559 90.7487 93.5546 90.926ZM98.0993 94.58H102.663L99.7933 87.818L96.7413 95H96.2933L99.7933 86.74L103.293 95H98.0993V94.58ZM110.141 86.88V87.3H107.201V95H106.781V87.3H103.841V86.88H110.141ZM111.754 86.88H112.174V95H111.754V86.88ZM118.918 87.314C118.601 87.2113 118.209 87.16 117.742 87.16C117.275 87.16 116.883 87.2113 116.566 87.314C116.249 87.4073 115.955 87.5893 115.684 87.86C115.423 88.1213 115.227 88.5087 115.096 89.022C114.965 89.526 114.9 90.1653 114.9 90.94C114.9 91.7147 114.965 92.3587 115.096 92.872C115.227 93.376 115.423 93.7633 115.684 94.034C115.955 94.2953 116.249 94.4773 116.566 94.58C116.883 94.6733 117.275 94.72 117.742 94.72C118.209 94.72 118.601 94.6733 118.918 94.58C119.235 94.4773 119.525 94.2953 119.786 94.034C120.057 93.7633 120.257 93.376 120.388 92.872C120.519 92.3587 120.584 91.7147 120.584 90.94C120.584 90.1653 120.519 89.526 120.388 89.022C120.257 88.5087 120.057 88.1213 119.786 87.86C119.525 87.5893 119.235 87.4073 118.918 87.314ZM120.248 94.146C119.744 94.8087 118.909 95.14 117.742 95.14C116.575 95.14 115.74 94.8087 115.236 94.146C114.732 93.4833 114.48 92.4147 114.48 90.94C114.48 89.4653 114.732 88.3967 115.236 87.734C115.74 87.0713 116.575 86.74 117.742 86.74C118.909 86.74 119.744 87.0713 120.248 87.734C120.752 88.3967 121.004 89.4653 121.004 90.94C121.004 92.4147 120.752 93.4833 120.248 94.146ZM123.32 95V86.88H123.74L128.304 94.23V86.88H128.724V95H128.304L123.74 87.636V95H123.32Z" fill="white"/>
<path id="HTML_2" d="M218.266 110H217.846V105.1H212.806V110H212.386V100.2H212.806V104.68H217.846V100.2H218.266V110ZM226.864 100.2V100.62H223.574V110H223.154V100.62H219.864V100.2H226.864ZM229.668 109.58H235.184V101.194L232.034 107.942L228.884 101.18V110L228.464 109.986V100.186H228.884L232.034 106.948L235.184 100.2L235.604 100.186V110L229.668 109.986V109.58ZM244.228 109.58V110H238.376V100.2H238.796V109.58H244.228Z" fill="white"/>
<path id="git/github" d="M70.592 119.54L72.454 117.986C72.0433 117.435 71.306 117.16 70.242 117.16C69.7753 117.16 69.3833 117.211 69.066 117.314C68.7487 117.407 68.4547 117.589 68.184 117.86C67.9227 118.121 67.7267 118.509 67.596 119.022C67.4653 119.526 67.4 120.165 67.4 120.94C67.4 121.715 67.4653 122.359 67.596 122.872C67.7267 123.376 67.9227 123.763 68.184 124.034C68.4547 124.295 68.7487 124.477 69.066 124.58C69.3833 124.673 69.7753 124.72 70.242 124.72C71.2967 124.72 72.0293 124.449 72.44 123.908V121.43H72.86V125.126C72.86 126.909 72.0433 127.8 70.41 127.8H68.772V127.38H70.41C71.11 127.38 71.6233 127.193 71.95 126.82C72.2767 126.456 72.44 125.756 72.44 124.72V124.51C71.936 124.93 71.2033 125.14 70.242 125.14C69.0753 125.14 68.24 124.809 67.736 124.146C67.232 123.483 66.98 122.415 66.98 120.94C66.98 119.465 67.232 118.397 67.736 117.734C68.24 117.071 69.0753 116.74 70.242 116.74C71.5953 116.74 72.5147 117.183 73 118.07L71.25 119.54H70.592ZM75.3144 116.88H75.7344V125H75.3144V116.88ZM83.6405 116.88V117.3H80.7005V125H80.2805V117.3H77.3405V116.88H83.6405ZM84.8478 125.504L84.4698 125.35L88.7678 114.696L89.1458 114.85L84.8478 125.504ZM94.2717 119.54L96.1337 117.986C95.723 117.435 94.9857 117.16 93.9217 117.16C93.455 117.16 93.063 117.211 92.7457 117.314C92.4284 117.407 92.1344 117.589 91.8637 117.86C91.6024 118.121 91.4064 118.509 91.2757 119.022C91.145 119.526 91.0797 120.165 91.0797 120.94C91.0797 121.715 91.145 122.359 91.2757 122.872C91.4064 123.376 91.6024 123.763 91.8637 124.034C92.1344 124.295 92.4284 124.477 92.7457 124.58C93.063 124.673 93.455 124.72 93.9217 124.72C94.9764 124.72 95.709 124.449 96.1197 123.908V121.43H96.5397V125.126C96.5397 126.909 95.723 127.8 94.0897 127.8H92.4517V127.38H94.0897C94.7897 127.38 95.303 127.193 95.6297 126.82C95.9564 126.456 96.1197 125.756 96.1197 124.72V124.51C95.6157 124.93 94.883 125.14 93.9217 125.14C92.755 125.14 91.9197 124.809 91.4157 124.146C90.9117 123.483 90.6597 122.415 90.6597 120.94C90.6597 119.465 90.9117 118.397 91.4157 117.734C91.9197 117.071 92.755 116.74 93.9217 116.74C95.275 116.74 96.1944 117.183 96.6797 118.07L94.9297 119.54H94.2717ZM98.9941 116.88H99.4141V125H98.9941V116.88ZM107.32 116.88V117.3H104.38V125H103.96V117.3H101.02V116.88H107.32ZM113.974 125H113.554V120.94H109.354V125H108.934V116.88H109.354V120.52H113.554V116.88H113.974V125ZM116.911 116.88V120.94C116.911 122.331 117.13 123.311 117.569 123.88C118.017 124.44 118.628 124.72 119.403 124.72C120.177 124.72 120.784 124.44 121.223 123.88C121.671 123.311 121.895 122.331 121.895 120.94V116.88H122.315V120.94C122.315 123.74 121.344 125.14 119.403 125.14C117.461 125.14 116.491 123.74 116.491 120.94V116.88H116.911ZM126.85 125H124.834V116.88H126.374C127.475 116.88 128.306 117.071 128.866 117.454C129.435 117.837 129.72 118.359 129.72 119.022C129.72 119.815 129.37 120.389 128.67 120.744C129.183 120.921 129.566 121.187 129.818 121.542C130.07 121.887 130.196 122.289 130.196 122.746C130.196 123.418 129.916 123.964 129.356 124.384C128.805 124.795 127.97 125 126.85 125ZM126.85 124.58C127.671 124.58 128.362 124.431 128.922 124.132C129.491 123.833 129.776 123.371 129.776 122.746C129.776 122.457 129.669 122.144 129.454 121.808C129.239 121.463 128.908 121.211 128.46 121.052L127.732 120.8L128.404 120.45C128.637 120.329 128.843 120.147 129.02 119.904C129.207 119.652 129.3 119.358 129.3 119.022C129.3 118.434 129.02 118 128.46 117.72C127.9 117.44 127.205 117.3 126.374 117.3H125.254V124.58H126.85Z" fill="white"/>
<path id="HTML_3" d="M218.266 140H217.846V135.1H212.806V140H212.386V130.2H212.806V134.68H217.846V130.2H218.266V140ZM226.864 130.2V130.62H223.574V140H223.154V130.62H219.864V130.2H226.864ZM229.668 139.58H235.184V131.194L232.034 137.942L228.884 131.18V140L228.464 139.986V130.186H228.884L232.034 136.948L235.184 130.2L235.604 130.186V140L229.668 139.986V139.58ZM244.228 139.58V140H238.376V130.2H238.796V139.58H244.228Z" fill="white"/>
</g>
</g>
</svg>
