<svg width="345" height="204" viewBox="0 0 345 204" fill="none" xmlns="http://www.w3.org/2000/svg">
<g id="TOOLFRAME2">
<g id="JAVASCRIPT">
<circle id="HIGHTLIGHT" cx="323" cy="179" r="20.5" stroke="white"/>
<g id="NESTED">
<circle id="ELIP" cx="288.158" cy="147.008" r="52" stroke="#EBFF00"/>
<path id="TXT" d="M244.428 154.21C244.752 155.782 245.682 156.568 247.218 156.568C248.214 156.568 248.874 156.286 249.198 155.722C249.522 155.17 249.684 154.36 249.684 153.292V143.068H250.224V153.292C250.224 153.628 250.218 153.898 250.206 154.102C250.194 154.306 250.164 154.582 250.116 154.93C250.068 155.278 249.978 155.554 249.846 155.758C249.714 155.974 249.54 156.196 249.324 156.424C249.12 156.664 248.838 156.838 248.478 156.946C248.118 157.054 247.698 157.108 247.218 157.108C245.334 157.108 244.188 156.142 243.78 154.21H244.428ZM254.592 152.968H260.46L256.77 144.274L252.846 153.508H252.27L256.77 142.888L261.27 153.508H254.592V152.968ZM270.937 143.068L266.437 153.688L261.937 143.068H262.513L266.437 152.302L270.361 143.068H270.937ZM273.927 152.968H279.795L276.105 144.274L272.181 153.508H271.605L276.105 142.888L280.605 153.508H273.927V152.968ZM285.413 142.852C286.901 142.852 287.957 143.182 288.581 143.842L288.221 144.238C287.645 143.674 286.733 143.392 285.485 143.392C283.613 143.392 282.677 144.136 282.677 145.624C282.677 146.2 282.905 146.662 283.361 147.01C283.817 147.346 284.369 147.604 285.017 147.784C285.677 147.964 286.331 148.156 286.979 148.36C287.639 148.552 288.197 148.87 288.653 149.314C289.109 149.746 289.337 150.316 289.337 151.024C289.337 151.852 288.995 152.512 288.311 153.004C287.627 153.496 286.637 153.742 285.341 153.742C284.705 153.742 284.075 153.658 283.451 153.49C282.839 153.322 282.383 153.076 282.083 152.752L282.443 152.356C283.055 152.92 283.997 153.202 285.269 153.202C286.433 153.202 287.309 152.986 287.897 152.554C288.497 152.122 288.797 151.618 288.797 151.042C288.797 150.442 288.569 149.956 288.113 149.584C287.657 149.212 287.099 148.936 286.439 148.756C285.791 148.564 285.137 148.372 284.477 148.18C283.829 147.976 283.277 147.664 282.821 147.244C282.365 146.824 282.137 146.272 282.137 145.588C282.137 144.664 282.443 143.98 283.055 143.536C283.679 143.08 284.465 142.852 285.413 142.852ZM292.48 152.41C291.832 151.558 291.508 150.184 291.508 148.288C291.508 146.392 291.832 145.018 292.48 144.166C293.128 143.314 294.202 142.888 295.702 142.888C297.202 142.888 298.282 143.302 298.942 144.13L298.546 144.49C298.018 143.782 297.07 143.428 295.702 143.428C295.102 143.428 294.598 143.494 294.19 143.626C293.782 143.746 293.404 143.98 293.056 144.328C292.72 144.664 292.468 145.162 292.3 145.822C292.132 146.47 292.048 147.292 292.048 148.288C292.048 149.284 292.132 150.112 292.3 150.772C292.468 151.42 292.72 151.918 293.056 152.266C293.404 152.602 293.782 152.836 294.19 152.968C294.598 153.088 295.102 153.148 295.702 153.148C297.07 153.148 298.018 152.794 298.546 152.086L298.942 152.446C298.282 153.274 297.202 153.688 295.702 153.688C294.202 153.688 293.128 153.262 292.48 152.41ZM306.018 148.27L308.466 153.508H307.872L305.352 148.108C305.376 148.096 305.478 148.048 305.658 147.964C305.85 147.868 305.982 147.802 306.054 147.766C306.126 147.718 306.246 147.64 306.414 147.532C306.582 147.424 306.708 147.322 306.792 147.226C306.876 147.118 306.966 146.998 307.062 146.866C307.17 146.722 307.248 146.566 307.296 146.398C307.344 146.218 307.368 146.026 307.368 145.822C307.368 145.066 307.008 144.508 306.288 144.148C305.568 143.788 304.674 143.608 303.606 143.608H302.166V153.508H301.626V143.068H303.606C305.022 143.068 306.09 143.314 306.81 143.806C307.542 144.298 307.908 144.97 307.908 145.822C307.908 146.374 307.722 146.866 307.35 147.298C306.978 147.718 306.534 148.042 306.018 148.27ZM310.907 143.068H311.447V153.508H310.907V143.068ZM319.326 149.62L319.056 149.152L320.064 148.576C320.892 148.12 321.306 147.394 321.306 146.398C321.306 144.538 319.89 143.608 317.058 143.608H315.402V157.108H314.862V143.068H317.058C318.642 143.068 319.836 143.362 320.64 143.95C321.444 144.526 321.846 145.342 321.846 146.398C321.846 147.598 321.342 148.48 320.334 149.044L319.326 149.62ZM331.14 143.068V143.608H327.36V153.508H326.82V143.608H323.04V143.068H331.14Z" fill="#EBFF00"/>
</g>
</g>
<g id="API">
<rect id="HIGHLIGHT" x="186.5" y="2.5" width="154" height="31" stroke="white"/>
<g id="NESTED_2">
<rect id="RECT" x="182" y="5" width="155" height="32" fill="#EBFF00"/>
<path id="TXT_2" d="M212.572 25.58H217.136L214.266 18.818L211.214 26H210.766L214.266 17.74L217.766 26H212.572V25.58ZM222.835 22.976L222.625 22.612L223.409 22.164C224.053 21.8093 224.375 21.2447 224.375 20.47C224.375 19.0233 223.274 18.3 221.071 18.3H219.783V28.8H219.363V17.88H221.071C222.303 17.88 223.232 18.1087 223.857 18.566C224.483 19.014 224.795 19.6487 224.795 20.47C224.795 21.4033 224.403 22.0893 223.619 22.528L222.835 22.976ZM226.773 17.88H227.193V26H226.773V17.88ZM233.978 17.88H234.398V26H233.978V17.88ZM237.055 26V17.88H237.475L242.039 25.23V17.88H242.459V26H242.039L237.475 18.636V26H237.055ZM250.371 17.88V18.3H247.431V26H247.011V18.3H244.071V17.88H250.371ZM257.416 25.174C256.903 25.818 256.063 26.14 254.896 26.14C253.73 26.14 252.894 25.8087 252.39 25.146C251.886 24.4833 251.634 23.4147 251.634 21.94C251.634 20.4653 251.886 19.3967 252.39 18.734C252.894 18.0713 253.73 17.74 254.896 17.74C256.25 17.74 257.169 18.1833 257.654 19.07L254.224 21.94H253.566L257.108 18.986C256.698 18.4353 255.96 18.16 254.896 18.16C254.43 18.16 254.038 18.2113 253.72 18.314C253.403 18.4073 253.109 18.5893 252.838 18.86C252.577 19.1213 252.381 19.5087 252.25 20.022C252.12 20.526 252.054 21.1653 252.054 21.94C252.054 22.7147 252.12 23.3587 252.25 23.872C252.381 24.376 252.577 24.7633 252.838 25.034C253.109 25.2953 253.403 25.4773 253.72 25.58C254.038 25.6733 254.43 25.72 254.896 25.72C255.96 25.72 256.698 25.4447 257.108 24.894L257.416 25.174ZM262.916 20.54L264.778 18.986C264.368 18.4353 263.63 18.16 262.566 18.16C262.1 18.16 261.708 18.2113 261.39 18.314C261.073 18.4073 260.779 18.5893 260.508 18.86C260.247 19.1213 260.051 19.5087 259.92 20.022C259.79 20.526 259.724 21.1653 259.724 21.94C259.724 22.7147 259.79 23.3587 259.92 23.872C260.051 24.376 260.247 24.7633 260.508 25.034C260.779 25.2953 261.073 25.4773 261.39 25.58C261.708 25.6733 262.1 25.72 262.566 25.72C263.621 25.72 264.354 25.4493 264.764 24.908V22.43H265.184V26.126C265.184 27.9087 264.368 28.8 262.734 28.8H261.096V28.38H262.734C263.434 28.38 263.948 28.1933 264.274 27.82C264.601 27.456 264.764 26.756 264.764 25.72V25.51C264.26 25.93 263.528 26.14 262.566 26.14C261.4 26.14 260.564 25.8087 260.06 25.146C259.556 24.4833 259.304 23.4147 259.304 21.94C259.304 20.4653 259.556 19.3967 260.06 18.734C260.564 18.0713 261.4 17.74 262.566 17.74C263.92 17.74 264.839 18.1833 265.324 19.07L263.574 20.54H262.916ZM271.055 21.926L272.959 26H272.497L270.537 21.8C270.555 21.7907 270.635 21.7533 270.775 21.688C270.924 21.6133 271.027 21.562 271.083 21.534C271.139 21.4967 271.232 21.436 271.363 21.352C271.493 21.268 271.591 21.1887 271.657 21.114C271.722 21.03 271.792 20.9367 271.867 20.834C271.951 20.722 272.011 20.6007 272.049 20.47C272.086 20.33 272.105 20.1807 272.105 20.022C272.105 19.434 271.825 19 271.265 18.72C270.705 18.44 270.009 18.3 269.179 18.3H268.059V26H267.639V17.88H269.179C270.28 17.88 271.111 18.0713 271.671 18.454C272.24 18.8367 272.525 19.3593 272.525 20.022C272.525 20.4513 272.38 20.834 272.091 21.17C271.801 21.4967 271.456 21.7487 271.055 21.926ZM275.599 25.58H280.163L277.293 18.818L274.241 26H273.793L277.293 17.74L280.793 26H275.599V25.58ZM287.641 17.88V18.3H284.701V26H284.281V18.3H281.341V17.88H287.641ZM289.254 17.88H289.674V26H289.254V17.88ZM296.418 18.314C296.101 18.2113 295.709 18.16 295.242 18.16C294.775 18.16 294.383 18.2113 294.066 18.314C293.749 18.4073 293.455 18.5893 293.184 18.86C292.923 19.1213 292.727 19.5087 292.596 20.022C292.465 20.526 292.4 21.1653 292.4 21.94C292.4 22.7147 292.465 23.3587 292.596 23.872C292.727 24.376 292.923 24.7633 293.184 25.034C293.455 25.2953 293.749 25.4773 294.066 25.58C294.383 25.6733 294.775 25.72 295.242 25.72C295.709 25.72 296.101 25.6733 296.418 25.58C296.735 25.4773 297.025 25.2953 297.286 25.034C297.557 24.7633 297.757 24.376 297.888 23.872C298.019 23.3587 298.084 22.7147 298.084 21.94C298.084 21.1653 298.019 20.526 297.888 20.022C297.757 19.5087 297.557 19.1213 297.286 18.86C297.025 18.5893 296.735 18.4073 296.418 18.314ZM297.748 25.146C297.244 25.8087 296.409 26.14 295.242 26.14C294.075 26.14 293.24 25.8087 292.736 25.146C292.232 24.4833 291.98 23.4147 291.98 21.94C291.98 20.4653 292.232 19.3967 292.736 18.734C293.24 18.0713 294.075 17.74 295.242 17.74C296.409 17.74 297.244 18.0713 297.748 18.734C298.252 19.3967 298.504 20.4653 298.504 21.94C298.504 23.4147 298.252 24.4833 297.748 25.146ZM300.82 26V17.88H301.24L305.804 25.23V17.88H306.224V26H305.804L301.24 18.636V26H300.82Z" fill="black"/>
</g>
</g>
<g id="GIT">
<rect id="HIGHLIGHT_2" x="9.03731" y="200.624" width="121.896" height="40.0448" transform="rotate(-90 9.03731 200.624)" stroke="white"/>
<g id="NESTED_3">
<rect id="RECT_2" x="3.02985" y="194.147" width="120.896" height="39.0448" transform="rotate(-90 3.02985 194.147)" stroke="#EBFF00" stroke-width="2"/>
<path id="TXT_3" d="M22.0922 160.602L20.5382 158.74C19.9876 159.151 19.7122 159.888 19.7122 160.952C19.7122 161.419 19.7636 161.811 19.8662 162.128C19.9596 162.445 20.1416 162.739 20.4122 163.01C20.6736 163.271 21.0609 163.467 21.5742 163.598C22.0782 163.729 22.7176 163.794 23.4922 163.794C24.2669 163.794 24.9109 163.729 25.4242 163.598C25.9282 163.467 26.3156 163.271 26.5862 163.01C26.8476 162.739 27.0296 162.445 27.1322 162.128C27.2256 161.811 27.2722 161.419 27.2722 160.952C27.2722 159.897 27.0016 159.165 26.4602 158.754H23.9822V158.334H27.6782C29.4609 158.334 30.3522 159.151 30.3522 160.784V162.422H29.9322V160.784C29.9322 160.084 29.7456 159.571 29.3722 159.244C29.0082 158.917 28.3082 158.754 27.2722 158.754H27.0622C27.4822 159.258 27.6922 159.991 27.6922 160.952C27.6922 162.119 27.3609 162.954 26.6982 163.458C26.0356 163.962 24.9669 164.214 23.4922 164.214C22.0176 164.214 20.9489 163.962 20.2862 163.458C19.6236 162.954 19.2922 162.119 19.2922 160.952C19.2922 159.599 19.7356 158.679 20.6222 158.194L22.0922 159.944V160.602ZM19.4322 155.88V155.46H27.5522V155.88H19.4322ZM19.4322 147.553H19.8522V150.493H27.5522V150.913H19.8522V153.853H19.4322V147.553ZM28.0562 146.346L27.9022 146.724L17.2482 142.426L17.4022 142.048L28.0562 146.346ZM22.0922 136.922L20.5382 135.06C19.9876 135.471 19.7122 136.208 19.7122 137.272C19.7122 137.739 19.7636 138.131 19.8662 138.448C19.9596 138.766 20.1416 139.06 20.4122 139.33C20.6736 139.592 21.0609 139.788 21.5742 139.918C22.0782 140.049 22.7176 140.114 23.4922 140.114C24.2669 140.114 24.9109 140.049 25.4242 139.918C25.9282 139.788 26.3156 139.592 26.5862 139.33C26.8476 139.06 27.0296 138.766 27.1322 138.448C27.2256 138.131 27.2722 137.739 27.2722 137.272C27.2722 136.218 27.0016 135.485 26.4602 135.074H23.9822V134.654H27.6782C29.4609 134.654 30.3522 135.471 30.3522 137.104V138.742H29.9322V137.104C29.9322 136.404 29.7456 135.891 29.3722 135.564C29.0082 135.238 28.3082 135.074 27.2722 135.074H27.0622C27.4822 135.578 27.6922 136.311 27.6922 137.272C27.6922 138.439 27.3609 139.274 26.6982 139.778C26.0356 140.282 24.9669 140.534 23.4922 140.534C22.0176 140.534 20.9489 140.282 20.2862 139.778C19.6236 139.274 19.2922 138.439 19.2922 137.272C19.2922 135.919 19.7356 135 20.6222 134.514L22.0922 136.264V136.922ZM19.4322 132.2V131.78H27.5522V132.2H19.4322ZM19.4322 123.874H19.8522L19.8522 126.814H27.5522V127.234H19.8522V130.174H19.4322L19.4322 123.874ZM27.5522 117.22V117.64H23.4922V121.84H27.5522V122.26H19.4322V121.84H23.0722V117.64H19.4322V117.22H27.5522ZM19.4322 114.283H23.4922C24.8829 114.283 25.8629 114.064 26.4322 113.625C26.9922 113.177 27.2722 112.566 27.2722 111.791C27.2722 111.016 26.9922 110.41 26.4322 109.971C25.8629 109.523 24.8829 109.299 23.4922 109.299H19.4322V108.879H23.4922C26.2922 108.879 27.6922 109.85 27.6922 111.791C27.6922 113.732 26.2922 114.703 23.4922 114.703H19.4322V114.283ZM27.5522 104.344V106.36H19.4322V104.82C19.4322 103.719 19.6236 102.888 20.0062 102.328C20.3889 101.759 20.9116 101.474 21.5742 101.474C22.3676 101.474 22.9416 101.824 23.2962 102.524C23.4736 102.011 23.7396 101.628 24.0942 101.376C24.4396 101.124 24.8409 100.998 25.2982 100.998C25.9702 100.998 26.5162 101.278 26.9362 101.838C27.3469 102.389 27.5522 103.224 27.5522 104.344ZM27.1322 104.344C27.1322 103.523 26.9829 102.832 26.6842 102.272C26.3856 101.703 25.9236 101.418 25.2982 101.418C25.0089 101.418 24.6962 101.525 24.3602 101.74C24.0149 101.955 23.7629 102.286 23.6042 102.734L23.3522 103.462L23.0022 102.79C22.8809 102.557 22.6989 102.351 22.4562 102.174C22.2042 101.987 21.9102 101.894 21.5742 101.894C20.9862 101.894 20.5522 102.174 20.2722 102.734C19.9922 103.294 19.8522 103.989 19.8522 104.82V105.94H27.1322V104.344Z" fill="#EBFF00"/>
</g>
</g>
<g id="HTML">
<g id="NESTED_4">
<circle id="ELIP_2" cx="32.0298" cy="32" r="30" fill="#EBFF00"/>
<path id="TXT_4" d="M23.3998 37H22.9798V32.94H18.7798V37H18.3598V28.88H18.7798V32.52H22.9798V28.88H23.3998V37ZM31.3071 28.88V29.3H28.3671V37H27.9471V29.3H25.0071V28.88H31.3071ZM34.2364 36.58H39.6404V29.468L36.4904 32.618L33.3404 29.468V37L32.9204 36.986V28.88H33.3404L36.4904 32.03L39.6404 28.88H40.0604V37L34.2364 36.986V36.58ZM47.3991 36.58V37H42.7231V28.88H43.1431V36.58H47.3991Z" fill="#111111"/>
</g>
<circle id="HIGHLIGHT_3" cx="32.0298" cy="32" r="23" stroke="white" stroke-width="4"/>
</g>
<g id="JQUERY">
<g id="NESTED_5">
<circle id="ELIP_3" cx="313.628" cy="109.658" r="27.0299" fill="#EBFF00"/>
<path id="TXT_5" d="M290.838 115.204C291.09 116.426 291.814 117.038 293.008 117.038C293.783 117.038 294.296 116.818 294.548 116.38C294.8 115.95 294.926 115.32 294.926 114.49V106.538H295.346V114.49C295.346 114.751 295.342 114.961 295.332 115.12C295.323 115.278 295.3 115.493 295.262 115.764C295.225 116.034 295.155 116.249 295.052 116.408C294.95 116.576 294.814 116.748 294.646 116.926C294.488 117.112 294.268 117.248 293.988 117.332C293.708 117.416 293.382 117.458 293.008 117.458C291.543 117.458 290.652 116.706 290.334 115.204H290.838ZM300.521 114.784C299.504 114.718 298.771 114.354 298.323 113.692C297.884 113.02 297.665 111.988 297.665 110.598C297.665 109.123 297.917 108.054 298.421 107.392C298.934 106.729 299.77 106.398 300.927 106.398C302.084 106.398 302.915 106.729 303.419 107.392C303.932 108.054 304.189 109.123 304.189 110.598C304.189 112.464 303.764 113.696 302.915 114.294L302.677 113.958C303.405 113.463 303.769 112.343 303.769 110.598C303.769 109.823 303.704 109.184 303.573 108.68C303.442 108.166 303.242 107.779 302.971 107.518C302.71 107.247 302.42 107.065 302.103 106.972C301.786 106.869 301.394 106.818 300.927 106.818C300.46 106.818 300.068 106.869 299.751 106.972C299.434 107.065 299.14 107.247 298.869 107.518C298.608 107.779 298.412 108.166 298.281 108.68C298.15 109.184 298.085 109.823 298.085 110.598C298.085 111.372 298.15 112.016 298.281 112.53C298.412 113.034 298.608 113.421 298.869 113.692C299.14 113.953 299.434 114.135 299.751 114.238C300.068 114.331 300.46 114.378 300.927 114.378C300.927 115.414 301.09 116.114 301.417 116.478C301.753 116.851 302.271 117.038 302.971 117.038V117.458C302.215 117.458 301.632 117.271 301.221 116.898C300.81 116.524 300.577 115.82 300.521 114.784ZM306.785 106.538V110.598C306.785 111.988 307.004 112.968 307.443 113.538C307.891 114.098 308.502 114.378 309.277 114.378C310.052 114.378 310.658 114.098 311.097 113.538C311.545 112.968 311.769 111.988 311.769 110.598V106.538H312.189V110.598C312.189 113.398 311.218 114.798 309.277 114.798C307.336 114.798 306.365 113.398 306.365 110.598V106.538H306.785ZM320.14 113.832C319.627 114.476 318.787 114.798 317.62 114.798C316.454 114.798 315.618 114.466 315.114 113.804C314.61 113.141 314.358 112.072 314.358 110.598C314.358 109.123 314.61 108.054 315.114 107.392C315.618 106.729 316.454 106.398 317.62 106.398C318.974 106.398 319.893 106.841 320.378 107.728L316.948 110.598H316.29L319.832 107.644C319.422 107.093 318.684 106.818 317.62 106.818C317.154 106.818 316.762 106.869 316.444 106.972C316.127 107.065 315.833 107.247 315.562 107.518C315.301 107.779 315.105 108.166 314.974 108.68C314.844 109.184 314.778 109.823 314.778 110.598C314.778 111.372 314.844 112.016 314.974 112.53C315.105 113.034 315.301 113.421 315.562 113.692C315.833 113.953 316.127 114.135 316.444 114.238C316.762 114.331 317.154 114.378 317.62 114.378C318.684 114.378 319.422 114.102 319.832 113.552L320.14 113.832ZM325.794 110.584L327.698 114.658H327.236L325.276 110.458C325.295 110.448 325.374 110.411 325.514 110.346C325.663 110.271 325.766 110.22 325.822 110.192C325.878 110.154 325.971 110.094 326.102 110.01C326.233 109.926 326.331 109.846 326.396 109.772C326.461 109.688 326.531 109.594 326.606 109.492C326.69 109.38 326.751 109.258 326.788 109.128C326.825 108.988 326.844 108.838 326.844 108.68C326.844 108.092 326.564 107.658 326.004 107.378C325.444 107.098 324.749 106.958 323.918 106.958H322.798V114.658H322.378V106.538H323.918C325.019 106.538 325.85 106.729 326.41 107.112C326.979 107.494 327.264 108.017 327.264 108.68C327.264 109.109 327.119 109.492 326.83 109.828C326.541 110.154 326.195 110.406 325.794 110.584ZM330.087 106.538H335.505L332.215 114.308V117.458H331.795V114.308L328.505 106.538H328.953L332.005 113.72L334.875 106.958H330.087V106.538Z" fill="black"/>
</g>
<circle id="HIGHLIGHT_4" cx="313.5" cy="109.5" r="30" stroke="white"/>
</g>
<rect id="Rectangle 3" x="164" y="163" width="88" height="28" stroke="white" stroke-width="2"/>
<g id="Group 6">
<rect id="Rectangle 3_2" x="170" y="166" width="90" height="30" fill="#EBFF00"/>
<path id="CSS/SCSS" d="M189.462 184.208C189.21 184.824 188.855 185.3 188.398 185.636C187.941 185.972 187.255 186.14 186.34 186.14C185.192 186.14 184.361 185.79 183.848 185.09C183.335 184.381 183.078 183.279 183.078 181.786V180.414C183.078 178.921 183.335 177.824 183.848 177.124C184.361 176.415 185.192 176.06 186.34 176.06C187.255 176.06 187.941 176.228 188.398 176.564C188.855 176.9 189.21 177.376 189.462 177.992L189.084 178.174C188.869 177.633 188.566 177.217 188.174 176.928C187.782 176.629 187.171 176.48 186.34 176.48C185.883 176.48 185.491 176.541 185.164 176.662C184.837 176.774 184.543 176.97 184.282 177.25C184.021 177.53 183.825 177.936 183.694 178.468C183.563 178.991 183.498 179.639 183.498 180.414V181.786C183.498 182.561 183.563 183.214 183.694 183.746C183.825 184.269 184.021 184.67 184.282 184.95C184.543 185.23 184.837 185.431 185.164 185.552C185.491 185.664 185.883 185.72 186.34 185.72C187.171 185.72 187.782 185.575 188.174 185.286C188.566 184.987 188.869 184.567 189.084 184.026L189.462 184.208ZM191.309 178.622C191.309 177.717 191.537 177.063 191.995 176.662C192.452 176.261 193.194 176.06 194.221 176.06C194.939 176.06 195.518 176.247 195.957 176.62C196.395 176.993 196.713 177.563 196.909 178.328L195.607 179.308H194.921L196.433 178.174C196.237 177.549 195.952 177.11 195.579 176.858C195.215 176.606 194.762 176.48 194.221 176.48C193.847 176.48 193.53 176.503 193.269 176.55C193.017 176.597 192.76 176.69 192.499 176.83C192.247 176.961 192.055 177.175 191.925 177.474C191.794 177.773 191.729 178.155 191.729 178.622C191.729 179.033 191.915 179.397 192.289 179.714C192.671 180.031 193.133 180.302 193.675 180.526C194.216 180.75 194.757 180.979 195.299 181.212C195.849 181.445 196.311 181.744 196.685 182.108C197.067 182.472 197.259 182.892 197.259 183.368C197.259 184.301 197.025 184.997 196.559 185.454C196.101 185.911 195.313 186.14 194.193 186.14C193.278 186.14 192.559 185.958 192.037 185.594C191.514 185.221 191.155 184.647 190.959 183.872L191.351 183.704C191.537 184.46 191.855 184.987 192.303 185.286C192.76 185.575 193.39 185.72 194.193 185.72C195.089 185.72 195.751 185.547 196.181 185.202C196.619 184.857 196.839 184.245 196.839 183.368C196.839 182.957 196.647 182.593 196.265 182.276C195.891 181.959 195.429 181.688 194.879 181.464C194.337 181.24 193.796 181.011 193.255 180.778C192.713 180.545 192.251 180.246 191.869 179.882C191.495 179.518 191.309 179.098 191.309 178.622ZM199.156 178.622C199.156 177.717 199.385 177.063 199.842 176.662C200.3 176.261 201.042 176.06 202.068 176.06C202.787 176.06 203.366 176.247 203.804 176.62C204.243 176.993 204.56 177.563 204.756 178.328L203.454 179.308H202.768L204.28 178.174C204.084 177.549 203.8 177.11 203.426 176.858C203.062 176.606 202.61 176.48 202.068 176.48C201.695 176.48 201.378 176.503 201.116 176.55C200.864 176.597 200.608 176.69 200.346 176.83C200.094 176.961 199.903 177.175 199.772 177.474C199.642 177.773 199.576 178.155 199.576 178.622C199.576 179.033 199.763 179.397 200.136 179.714C200.519 180.031 200.981 180.302 201.522 180.526C202.064 180.75 202.605 180.979 203.146 181.212C203.697 181.445 204.159 181.744 204.532 182.108C204.915 182.472 205.106 182.892 205.106 183.368C205.106 184.301 204.873 184.997 204.406 185.454C203.949 185.911 203.16 186.14 202.04 186.14C201.126 186.14 200.407 185.958 199.884 185.594C199.362 185.221 199.002 184.647 198.806 183.872L199.198 183.704C199.385 184.46 199.702 184.987 200.15 185.286C200.608 185.575 201.238 185.72 202.04 185.72C202.936 185.72 203.599 185.547 204.028 185.202C204.467 184.857 204.686 184.245 204.686 183.368C204.686 182.957 204.495 182.593 204.112 182.276C203.739 181.959 203.277 181.688 202.726 181.464C202.185 181.24 201.644 181.011 201.102 180.778C200.561 180.545 200.099 180.246 199.716 179.882C199.343 179.518 199.156 179.098 199.156 178.622ZM206.836 186.504L206.458 186.35L210.756 175.696L211.134 175.85L206.836 186.504ZM212.76 178.622C212.76 177.717 212.989 177.063 213.446 176.662C213.903 176.261 214.645 176.06 215.672 176.06C216.391 176.06 216.969 176.247 217.408 176.62C217.847 176.993 218.164 177.563 218.36 178.328L217.058 179.308H216.372L217.884 178.174C217.688 177.549 217.403 177.11 217.03 176.858C216.666 176.606 216.213 176.48 215.672 176.48C215.299 176.48 214.981 176.503 214.72 176.55C214.468 176.597 214.211 176.69 213.95 176.83C213.698 176.961 213.507 177.175 213.376 177.474C213.245 177.773 213.18 178.155 213.18 178.622C213.18 179.033 213.367 179.397 213.74 179.714C214.123 180.031 214.585 180.302 215.126 180.526C215.667 180.75 216.209 180.979 216.75 181.212C217.301 181.445 217.763 181.744 218.136 182.108C218.519 182.472 218.71 182.892 218.71 183.368C218.71 184.301 218.477 184.997 218.01 185.454C217.553 185.911 216.764 186.14 215.644 186.14C214.729 186.14 214.011 185.958 213.488 185.594C212.965 185.221 212.606 184.647 212.41 183.872L212.802 183.704C212.989 184.46 213.306 184.987 213.754 185.286C214.211 185.575 214.841 185.72 215.644 185.72C216.54 185.72 217.203 185.547 217.632 185.202C218.071 184.857 218.29 184.245 218.29 183.368C218.29 182.957 218.099 182.593 217.716 182.276C217.343 181.959 216.881 181.688 216.33 181.464C215.789 181.24 215.247 181.011 214.706 180.778C214.165 180.545 213.703 180.246 213.32 179.882C212.947 179.518 212.76 179.098 212.76 178.622ZM226.978 184.208C226.726 184.824 226.371 185.3 225.914 185.636C225.456 185.972 224.77 186.14 223.856 186.14C222.708 186.14 221.877 185.79 221.364 185.09C220.85 184.381 220.594 183.279 220.594 181.786V180.414C220.594 178.921 220.85 177.824 221.364 177.124C221.877 176.415 222.708 176.06 223.856 176.06C224.77 176.06 225.456 176.228 225.914 176.564C226.371 176.9 226.726 177.376 226.978 177.992L226.6 178.174C226.385 177.633 226.082 177.217 225.69 176.928C225.298 176.629 224.686 176.48 223.856 176.48C223.398 176.48 223.006 176.541 222.68 176.662C222.353 176.774 222.059 176.97 221.798 177.25C221.536 177.53 221.34 177.936 221.21 178.468C221.079 178.991 221.014 179.639 221.014 180.414V181.786C221.014 182.561 221.079 183.214 221.21 183.746C221.34 184.269 221.536 184.67 221.798 184.95C222.059 185.23 222.353 185.431 222.68 185.552C223.006 185.664 223.398 185.72 223.856 185.72C224.686 185.72 225.298 185.575 225.69 185.286C226.082 184.987 226.385 184.567 226.6 184.026L226.978 184.208ZM228.824 178.622C228.824 177.717 229.053 177.063 229.51 176.662C229.968 176.261 230.71 176.06 231.736 176.06C232.455 176.06 233.034 176.247 233.472 176.62C233.911 176.993 234.228 177.563 234.424 178.328L233.122 179.308H232.436L233.948 178.174C233.752 177.549 233.468 177.11 233.094 176.858C232.73 176.606 232.278 176.48 231.736 176.48C231.363 176.48 231.046 176.503 230.784 176.55C230.532 176.597 230.276 176.69 230.014 176.83C229.762 176.961 229.571 177.175 229.44 177.474C229.31 177.773 229.244 178.155 229.244 178.622C229.244 179.033 229.431 179.397 229.804 179.714C230.187 180.031 230.649 180.302 231.19 180.526C231.732 180.75 232.273 180.979 232.814 181.212C233.365 181.445 233.827 181.744 234.2 182.108C234.583 182.472 234.774 182.892 234.774 183.368C234.774 184.301 234.541 184.997 234.074 185.454C233.617 185.911 232.828 186.14 231.708 186.14C230.794 186.14 230.075 185.958 229.552 185.594C229.03 185.221 228.67 184.647 228.474 183.872L228.866 183.704C229.053 184.46 229.37 184.987 229.818 185.286C230.276 185.575 230.906 185.72 231.708 185.72C232.604 185.72 233.267 185.547 233.696 185.202C234.135 184.857 234.354 184.245 234.354 183.368C234.354 182.957 234.163 182.593 233.78 182.276C233.407 181.959 232.945 181.688 232.394 181.464C231.853 181.24 231.312 181.011 230.77 180.778C230.229 180.545 229.767 180.246 229.384 179.882C229.011 179.518 228.824 179.098 228.824 178.622ZM236.672 178.622C236.672 177.717 236.901 177.063 237.358 176.662C237.815 176.261 238.557 176.06 239.584 176.06C240.303 176.06 240.881 176.247 241.32 176.62C241.759 176.993 242.076 177.563 242.272 178.328L240.97 179.308H240.284L241.796 178.174C241.6 177.549 241.315 177.11 240.942 176.858C240.578 176.606 240.125 176.48 239.584 176.48C239.211 176.48 238.893 176.503 238.632 176.55C238.38 176.597 238.123 176.69 237.862 176.83C237.61 176.961 237.419 177.175 237.288 177.474C237.157 177.773 237.092 178.155 237.092 178.622C237.092 179.033 237.279 179.397 237.652 179.714C238.035 180.031 238.497 180.302 239.038 180.526C239.579 180.75 240.121 180.979 240.662 181.212C241.213 181.445 241.675 181.744 242.048 182.108C242.431 182.472 242.622 182.892 242.622 183.368C242.622 184.301 242.389 184.997 241.922 185.454C241.465 185.911 240.676 186.14 239.556 186.14C238.641 186.14 237.923 185.958 237.4 185.594C236.877 185.221 236.518 184.647 236.322 183.872L236.714 183.704C236.901 184.46 237.218 184.987 237.666 185.286C238.123 185.575 238.753 185.72 239.556 185.72C240.452 185.72 241.115 185.547 241.544 185.202C241.983 184.857 242.202 184.245 242.202 183.368C242.202 182.957 242.011 182.593 241.628 182.276C241.255 181.959 240.793 181.688 240.242 181.464C239.701 181.24 239.159 181.011 238.618 180.778C238.077 180.545 237.615 180.246 237.232 179.882C236.859 179.518 236.672 179.098 236.672 178.622Z" fill="#111111"/>
</g>
<path id="tailwind" d="M83.52 43.72V44.2H80.16V53H79.68V44.2H76.32V43.72H83.52ZM86.2118 52.52H91.4278L88.1478 44.792L84.6598 53H84.1478L88.1478 43.56L92.1478 53H86.2118V52.52ZM93.9731 43.72H94.4531V53H93.9731V43.72ZM102.833 52.52V53H97.4888V43.72H97.9688V52.52H102.833ZM103.956 43.72L107.444 51.928L109.86 46.248L112.26 51.928L115.54 44.2H105.22V43.72H116.26L112.26 53.16L109.86 47.48L107.444 53.16L103.444 43.72H103.956ZM118.067 43.72H118.547V53H118.067V43.72ZM121.583 53V43.72H122.062L127.279 52.12V43.72H127.759V53H127.279L122.062 44.584V53H121.583ZM132.017 53H130.801V43.72H132.017C133.596 43.72 134.855 44.136 135.793 44.968C136.732 45.8 137.201 46.9307 137.201 48.36C137.201 49.7893 136.732 50.92 135.793 51.752C134.855 52.584 133.596 53 132.017 53ZM132.017 52.52C133.457 52.52 134.599 52.152 135.441 51.416C136.295 50.68 136.721 49.6613 136.721 48.36C136.721 47.0587 136.295 46.04 135.441 45.304C134.599 44.568 133.457 44.2 132.017 44.2H131.281V52.52H132.017Z" fill="white"/>
<path id="React" d="M68.372 95.92H78.308L73.952 83.968L75.968 82.816C77.624 81.904 78.452 80.452 78.452 78.46C78.452 74.74 75.62 72.88 69.956 72.88H66.644V97H65.564V71.8H69.956C73.124 71.8 75.512 72.388 77.12 73.564C78.728 74.716 79.532 76.348 79.532 78.46C79.532 80.86 78.524 82.624 76.508 83.752L75.284 84.436L79.856 97H68.372V95.92ZM99.181 94.876C97.861 96.532 95.701 97.36 92.701 97.36C89.701 97.36 87.553 96.508 86.257 94.804C84.961 93.1 84.313 90.352 84.313 86.56C84.313 82.768 84.961 80.02 86.257 78.316C87.553 76.612 89.701 75.76 92.701 75.76C96.181 75.76 98.545 76.9 99.793 79.18L90.973 86.56H89.281L98.389 78.964C97.333 77.548 95.437 76.84 92.701 76.84C91.501 76.84 90.493 76.972 89.677 77.236C88.861 77.476 88.105 77.944 87.409 78.64C86.737 79.312 86.233 80.308 85.897 81.628C85.561 82.924 85.393 84.568 85.393 86.56C85.393 88.552 85.561 90.208 85.897 91.528C86.233 92.824 86.737 93.82 87.409 94.516C88.105 95.188 88.861 95.656 89.677 95.92C90.493 96.16 91.501 96.28 92.701 96.28C95.437 96.28 97.333 95.572 98.389 94.156L99.181 94.876ZM106.844 95.92H118.58L111.2 78.532L103.352 97H102.2L111.2 75.76L120.2 97H106.844V95.92ZM125.351 94.804C124.055 93.1 123.407 90.352 123.407 86.56C123.407 82.768 124.055 80.02 125.351 78.316C126.647 76.612 128.795 75.76 131.795 75.76C134.795 75.76 136.955 76.588 138.275 78.244L137.483 78.964C136.427 77.548 134.531 76.84 131.795 76.84C130.595 76.84 129.587 76.972 128.771 77.236C127.955 77.476 127.199 77.944 126.503 78.64C125.831 79.312 125.327 80.308 124.991 81.628C124.655 82.924 124.487 84.568 124.487 86.56C124.487 88.552 124.655 90.208 124.991 91.528C125.327 92.824 125.831 93.82 126.503 94.516C127.199 95.188 127.955 95.656 128.771 95.92C129.587 96.16 130.595 96.28 131.795 96.28C134.531 96.28 136.427 95.572 137.483 94.156L138.275 94.876C136.955 96.532 134.795 97.36 131.795 97.36C128.795 97.36 126.647 96.508 125.351 94.804ZM157.143 76.12V77.2H149.583V97H148.503V77.2H140.943V76.12H157.143Z" fill="white"/>
<path id="NEXT.JS" d="M163.698 124.65H169.898L162.738 112.27V125.25H162.138V111.25H162.838L170.318 124.19V111.25H170.918V125.25H163.698V124.65ZM182.052 117.93H176.112L182.232 111.85H175.472V124.65H183.232V125.25H174.872V111.25H183.692L177.572 117.33H182.052V117.93ZM189.595 117.87L193.515 125.25H192.835L189.255 118.51L185.675 125.25H184.995L188.915 117.87L185.395 111.25H186.075L189.255 117.23L192.435 111.25H193.115L189.595 117.87ZM204.403 111.25V111.85H199.703V125.25H199.103V111.85H194.403V111.25H204.403ZM206.288 124.09H207.608V125.25H206.288V124.09ZM210.301 122.23C210.888 123.977 212.021 124.85 213.701 124.85C214.834 124.85 215.621 124.53 216.061 123.89C216.514 123.237 216.741 122.343 216.741 121.21V111.25H217.341V121.21C217.341 124.037 216.128 125.45 213.701 125.45C212.554 125.45 211.668 125.163 211.041 124.59C210.428 124.017 209.941 123.23 209.581 122.23H210.301ZM220.819 114.71C220.819 113.417 221.146 112.483 221.799 111.91C222.452 111.337 223.512 111.05 224.979 111.05C226.006 111.05 226.832 111.317 227.459 111.85C228.086 112.383 228.539 113.197 228.819 114.29L226.959 115.69H225.979L228.139 114.07C227.859 113.177 227.452 112.55 226.919 112.19C226.399 111.83 225.752 111.65 224.979 111.65C224.446 111.65 223.992 111.683 223.619 111.75C223.259 111.817 222.892 111.95 222.519 112.15C222.159 112.337 221.886 112.643 221.699 113.07C221.512 113.497 221.419 114.043 221.419 114.71C221.419 115.297 221.686 115.817 222.219 116.27C222.766 116.723 223.426 117.11 224.199 117.43C224.972 117.75 225.746 118.077 226.519 118.41C227.306 118.743 227.966 119.17 228.499 119.69C229.046 120.21 229.319 120.81 229.319 121.49C229.319 122.823 228.986 123.817 228.319 124.47C227.666 125.123 226.539 125.45 224.939 125.45C223.632 125.45 222.606 125.19 221.859 124.67C221.112 124.137 220.599 123.317 220.319 122.21L220.879 121.97C221.146 123.05 221.599 123.803 222.239 124.23C222.892 124.643 223.792 124.85 224.939 124.85C226.219 124.85 227.166 124.603 227.779 124.11C228.406 123.617 228.719 122.743 228.719 121.49C228.719 120.903 228.446 120.383 227.899 119.93C227.366 119.477 226.706 119.09 225.919 118.77C225.146 118.45 224.372 118.123 223.599 117.79C222.826 117.457 222.166 117.03 221.619 116.51C221.086 115.99 220.819 115.39 220.819 114.71Z" fill="white"/>
<path id="GATSBY" d="M144.06 26.41C143.907 26.0233 143.69 25.7267 143.41 25.52C143.13 25.3067 142.693 25.2 142.1 25.2C141.773 25.2 141.493 25.2433 141.26 25.33C141.027 25.41 140.817 25.55 140.63 25.75C140.443 25.95 140.303 26.24 140.21 26.62C140.117 26.9933 140.07 27.4567 140.07 28.01V28.99C140.07 29.5433 140.117 30.01 140.21 30.39C140.303 30.7633 140.443 31.05 140.63 31.25C140.817 31.45 141.027 31.5933 141.26 31.68C141.493 31.76 141.773 31.8 142.1 31.8C142.7 31.8 143.177 31.6733 143.53 31.42C143.883 31.16 144.06 30.8833 144.06 30.59V28.9H142.83V28.6H144.42V30.49C144.42 30.9367 144.217 31.3167 143.81 31.63C143.41 31.9433 142.84 32.1 142.1 32.1C141.28 32.1 140.687 31.85 140.32 31.35C139.953 30.8433 139.77 30.0567 139.77 28.99V28.01C139.77 26.9433 139.953 26.16 140.32 25.66C140.687 25.1533 141.28 24.9 142.1 24.9C142.76 24.9 143.253 25.0233 143.58 25.27C143.907 25.51 144.16 25.8533 144.34 26.3L144.06 26.41ZM146.322 31.7H150.002L147.882 25.87L145.652 32H145.332L147.882 24.99L150.432 32H146.322V31.7ZM155.761 25V25.3H153.411V32H153.111V25.3H150.761V25H155.761ZM156.694 26.73C156.694 26.0833 156.857 25.6167 157.184 25.33C157.511 25.0433 158.041 24.9 158.774 24.9C159.287 24.9 159.701 25.0333 160.014 25.3C160.327 25.5667 160.554 25.9733 160.694 26.52L159.764 27.22H159.274L160.354 26.41C160.214 25.9633 160.011 25.65 159.744 25.47C159.484 25.29 159.161 25.2 158.774 25.2C158.507 25.2 158.281 25.2167 158.094 25.25C157.914 25.2833 157.731 25.35 157.544 25.45C157.364 25.5433 157.227 25.6967 157.134 25.91C157.041 26.1233 156.994 26.3967 156.994 26.73C156.994 27.0233 157.127 27.2833 157.394 27.51C157.667 27.7367 157.997 27.93 158.384 28.09C158.771 28.25 159.157 28.4133 159.544 28.58C159.937 28.7467 160.267 28.96 160.534 29.22C160.807 29.48 160.944 29.78 160.944 30.12C160.944 30.7867 160.777 31.2833 160.444 31.61C160.117 31.9367 159.554 32.1 158.754 32.1C158.101 32.1 157.587 31.97 157.214 31.71C156.841 31.4433 156.584 31.0333 156.444 30.48L156.724 30.36C156.857 30.9 157.084 31.2767 157.404 31.49C157.731 31.6967 158.181 31.8 158.754 31.8C159.394 31.8 159.867 31.6767 160.174 31.43C160.487 31.1833 160.644 30.7467 160.644 30.12C160.644 29.8267 160.507 29.5667 160.234 29.34C159.967 29.1133 159.637 28.92 159.244 28.76C158.857 28.6 158.471 28.4367 158.084 28.27C157.697 28.1033 157.367 27.89 157.094 27.63C156.827 27.37 156.694 27.07 156.694 26.73ZM164.11 32H162.51V25H163.73C164.61 25 165.273 25.1633 165.72 25.49C166.166 25.81 166.39 26.2633 166.39 26.85C166.39 27.5167 166.11 28.0067 165.55 28.32C166.363 28.6267 166.77 29.2033 166.77 30.05C166.77 30.65 166.55 31.1267 166.11 31.48C165.67 31.8267 165.003 32 164.11 32ZM164.11 31.7C164.423 31.7 164.71 31.6767 164.97 31.63C165.23 31.5767 165.476 31.4933 165.71 31.38C165.95 31.26 166.136 31.0867 166.27 30.86C166.403 30.6333 166.47 30.3633 166.47 30.05C166.47 29.3367 166.126 28.8533 165.44 28.6L164.84 28.38L165.4 28.06C165.86 27.8067 166.09 27.4033 166.09 26.85C166.09 25.8167 165.303 25.3 163.73 25.3H162.81V31.7H164.11ZM168.641 25H172.691L170.191 29V32H169.891V29L167.391 25H167.741L170.041 28.67L172.151 25.3H168.641V25Z" fill="white"/>
<path id="AWS AMPLIFY" d="M176.171 64.9H183.531L179.291 53.24L174.831 65.5H174.191L179.291 51.48L184.391 65.5H176.171V64.9ZM187.089 52.1V51.5H200.469L195.369 65.52L192.769 58.4L190.189 65.52L185.089 51.5H185.729L190.189 63.76L192.769 56.64L195.369 63.76L199.609 52.1H187.089ZM202.364 54.96C202.364 53.6667 202.691 52.7333 203.344 52.16C203.997 51.5867 205.057 51.3 206.524 51.3C207.551 51.3 208.377 51.5667 209.004 52.1C209.631 52.6333 210.084 53.4467 210.364 54.54L208.504 55.94H207.524L209.684 54.32C209.404 53.4267 208.997 52.8 208.464 52.44C207.944 52.08 207.297 51.9 206.524 51.9C205.991 51.9 205.537 51.9333 205.164 52C204.804 52.0667 204.437 52.2 204.064 52.4C203.704 52.5867 203.431 52.8933 203.244 53.32C203.057 53.7467 202.964 54.2933 202.964 54.96C202.964 55.5467 203.231 56.0667 203.764 56.52C204.311 56.9733 204.971 57.36 205.744 57.68C206.517 58 207.291 58.3267 208.064 58.66C208.851 58.9933 209.511 59.42 210.044 59.94C210.591 60.46 210.864 61.06 210.864 61.74C210.864 63.0733 210.531 64.0667 209.864 64.72C209.211 65.3733 208.084 65.7 206.484 65.7C205.177 65.7 204.151 65.44 203.404 64.92C202.657 64.3867 202.144 63.5667 201.864 62.46L202.424 62.22C202.691 63.3 203.144 64.0533 203.784 64.48C204.437 64.8933 205.337 65.1 206.484 65.1C207.764 65.1 208.711 64.8533 209.324 64.36C209.951 63.8667 210.264 62.9933 210.264 61.74C210.264 61.1533 209.991 60.6333 209.444 60.18C208.911 59.7267 208.251 59.34 207.464 59.02C206.691 58.7 205.917 58.3733 205.144 58.04C204.371 57.7067 203.711 57.28 203.164 56.76C202.631 56.24 202.364 55.64 202.364 54.96ZM220.253 64.9H227.613L223.373 53.24L218.913 65.5H218.273L223.373 51.48L228.473 65.5H220.253V64.9ZM232.531 64.9H240.411V52.92L235.911 62.56L231.411 52.9V65.5L230.811 65.48V51.48H231.411L235.911 61.14L240.411 51.5L241.011 51.48V65.5L232.531 65.48V64.9ZM249.931 58.78L249.631 58.26L250.751 57.62C251.671 57.1133 252.131 56.3067 252.131 55.2C252.131 53.1333 250.558 52.1 247.411 52.1H245.571V65.5H244.971V51.5H247.411C249.171 51.5 250.498 51.8267 251.391 52.48C252.285 53.12 252.731 54.0267 252.731 55.2C252.731 56.5333 252.171 57.5133 251.051 58.14L249.931 58.78ZM263.859 64.9V65.5H255.499V51.5H256.099V64.9H263.859ZM266.743 65.5H266.143V51.5H266.743V65.5ZM277.874 58.18H271.934L278.054 52.1H271.294V65.5H270.694V51.5H279.514L273.394 57.58H277.874V58.18ZM282.37 51.5H290.47L285.47 59.5V65.5H284.87V59.5L279.87 51.5H280.57L285.17 58.84L289.39 52.1H282.37V51.5Z" fill="white"/>
<path id="GOOGLE FIRESTORE" d="M69.084 143.174C68.8693 142.633 68.566 142.217 68.174 141.928C67.782 141.629 67.1707 141.48 66.34 141.48C65.8827 141.48 65.4907 141.541 65.164 141.662C64.8373 141.774 64.5433 141.97 64.282 142.25C64.0207 142.53 63.8247 142.936 63.694 143.468C63.5633 143.991 63.498 144.639 63.498 145.414V146.786C63.498 147.561 63.5633 148.214 63.694 148.746C63.8247 149.269 64.0207 149.67 64.282 149.95C64.5433 150.23 64.8373 150.431 65.164 150.552C65.4907 150.664 65.8827 150.72 66.34 150.72C67.18 150.72 67.8473 150.543 68.342 150.188C68.8367 149.824 69.084 149.437 69.084 149.026V146.66H67.362V146.24H69.588V148.886C69.588 149.511 69.3033 150.043 68.734 150.482C68.174 150.921 67.376 151.14 66.34 151.14C65.192 151.14 64.3613 150.79 63.848 150.09C63.3347 149.381 63.078 148.279 63.078 146.786V145.414C63.078 143.921 63.3347 142.824 63.848 142.124C64.3613 141.415 65.192 141.06 66.34 141.06C67.264 141.06 67.9547 141.233 68.412 141.578C68.8693 141.914 69.224 142.395 69.476 143.02L69.084 143.174ZM77.4453 150.09C76.9319 150.79 76.1013 151.14 74.9533 151.14C73.8053 151.14 72.9746 150.79 72.4613 150.09C71.9479 149.381 71.6913 148.279 71.6913 146.786V145.414C71.6913 143.921 71.9479 142.824 72.4613 142.124C72.9746 141.415 73.8053 141.06 74.9533 141.06C76.1013 141.06 76.9319 141.415 77.4453 142.124C77.9586 142.824 78.2153 143.921 78.2153 145.414V146.786C78.2153 148.279 77.9586 149.381 77.4453 150.09ZM76.1293 141.662C75.8026 141.541 75.4106 141.48 74.9533 141.48C74.4959 141.48 74.1039 141.541 73.7773 141.662C73.4506 141.774 73.1566 141.97 72.8953 142.25C72.6339 142.53 72.4379 142.936 72.3073 143.468C72.1766 143.991 72.1113 144.639 72.1113 145.414V146.786C72.1113 147.561 72.1766 148.214 72.3073 148.746C72.4379 149.269 72.6339 149.67 72.8953 149.95C73.1566 150.23 73.4506 150.431 73.7773 150.552C74.1039 150.664 74.4959 150.72 74.9533 150.72C75.4106 150.72 75.8026 150.664 76.1293 150.552C76.4559 150.431 76.7499 150.23 77.0113 149.95C77.2726 149.67 77.4686 149.269 77.5993 148.746C77.7299 148.214 77.7953 147.561 77.7953 146.786V145.414C77.7953 144.639 77.7299 143.991 77.5993 143.468C77.4686 142.936 77.2726 142.53 77.0113 142.25C76.7499 141.97 76.4559 141.774 76.1293 141.662ZM86.1269 150.09C85.6136 150.79 84.7829 151.14 83.6349 151.14C82.4869 151.14 81.6563 150.79 81.1429 150.09C80.6296 149.381 80.3729 148.279 80.3729 146.786V145.414C80.3729 143.921 80.6296 142.824 81.1429 142.124C81.6563 141.415 82.4869 141.06 83.6349 141.06C84.7829 141.06 85.6136 141.415 86.1269 142.124C86.6403 142.824 86.8969 143.921 86.8969 145.414V146.786C86.8969 148.279 86.6403 149.381 86.1269 150.09ZM84.8109 141.662C84.4843 141.541 84.0923 141.48 83.6349 141.48C83.1776 141.48 82.7856 141.541 82.4589 141.662C82.1323 141.774 81.8383 141.97 81.5769 142.25C81.3156 142.53 81.1196 142.936 80.9889 143.468C80.8583 143.991 80.7929 144.639 80.7929 145.414V146.786C80.7929 147.561 80.8583 148.214 80.9889 148.746C81.1196 149.269 81.3156 149.67 81.5769 149.95C81.8383 150.23 82.1323 150.431 82.4589 150.552C82.7856 150.664 83.1776 150.72 83.6349 150.72C84.0923 150.72 84.4843 150.664 84.8109 150.552C85.1376 150.431 85.4316 150.23 85.6929 149.95C85.9543 149.67 86.1503 149.269 86.2809 148.746C86.4116 148.214 86.4769 147.561 86.4769 146.786V145.414C86.4769 144.639 86.4116 143.991 86.2809 143.468C86.1503 142.936 85.9543 142.53 85.6929 142.25C85.4316 141.97 85.1376 141.774 84.8109 141.662ZM95.0606 143.174C94.8459 142.633 94.5426 142.217 94.1506 141.928C93.7586 141.629 93.1472 141.48 92.3166 141.48C91.8592 141.48 91.4672 141.541 91.1406 141.662C90.8139 141.774 90.5199 141.97 90.2586 142.25C89.9972 142.53 89.8012 142.936 89.6706 143.468C89.5399 143.991 89.4746 144.639 89.4746 145.414V146.786C89.4746 147.561 89.5399 148.214 89.6706 148.746C89.8012 149.269 89.9972 149.67 90.2586 149.95C90.5199 150.23 90.8139 150.431 91.1406 150.552C91.4672 150.664 91.8592 150.72 92.3166 150.72C93.1566 150.72 93.8239 150.543 94.3186 150.188C94.8132 149.824 95.0606 149.437 95.0606 149.026V146.66H93.3386V146.24H95.5646V148.886C95.5646 149.511 95.2799 150.043 94.7106 150.482C94.1506 150.921 93.3526 151.14 92.3166 151.14C91.1686 151.14 90.3379 150.79 89.8246 150.09C89.3112 149.381 89.0546 148.279 89.0546 146.786V145.414C89.0546 143.921 89.3112 142.824 89.8246 142.124C90.3379 141.415 91.1686 141.06 92.3166 141.06C93.2406 141.06 93.9312 141.233 94.3886 141.578C94.8459 141.914 95.2006 142.395 95.4526 143.02L95.0606 143.174ZM103.828 150.58V151H97.9758V141.2H98.3958V150.58H103.828ZM110.453 145.876H106.295L110.579 141.62H105.847V150.58H111.279V151H105.427V141.2H111.601L107.317 145.456H110.453V145.876ZM122.648 145.876H118.49L122.774 141.62H118.042V151H117.622V141.2H123.796L119.512 145.456H122.648V145.876ZM125.74 151H125.32V141.2H125.74V151ZM129.597 150.58H133.461L131.767 145.932L132.551 145.484C133.195 145.129 133.517 144.565 133.517 143.79C133.517 142.343 132.416 141.62 130.213 141.62H128.925V151H128.505V141.2H130.213C131.445 141.2 132.374 141.429 132.999 141.886C133.624 142.334 133.937 142.969 133.937 143.79C133.937 144.723 133.545 145.409 132.761 145.848L132.285 146.114L134.063 151H129.597V150.58ZM141.228 145.876H137.07L141.354 141.62H136.622V150.58H142.054V151H136.202V141.2H142.376L138.092 145.456H141.228V145.876ZM143.975 143.622C143.975 142.717 144.203 142.063 144.661 141.662C145.118 141.261 145.86 141.06 146.887 141.06C147.605 141.06 148.184 141.247 148.623 141.62C149.061 141.993 149.379 142.563 149.575 143.328L148.273 144.308H147.587L149.099 143.174C148.903 142.549 148.618 142.11 148.245 141.858C147.881 141.606 147.428 141.48 146.887 141.48C146.513 141.48 146.196 141.503 145.935 141.55C145.683 141.597 145.426 141.69 145.165 141.83C144.913 141.961 144.721 142.175 144.591 142.474C144.46 142.773 144.395 143.155 144.395 143.622C144.395 144.033 144.581 144.397 144.955 144.714C145.337 145.031 145.799 145.302 146.341 145.526C146.882 145.75 147.423 145.979 147.965 146.212C148.515 146.445 148.977 146.744 149.351 147.108C149.733 147.472 149.925 147.892 149.925 148.368C149.925 149.301 149.691 149.997 149.225 150.454C148.767 150.911 147.979 151.14 146.859 151.14C145.944 151.14 145.225 150.958 144.703 150.594C144.18 150.221 143.821 149.647 143.625 148.872L144.017 148.704C144.203 149.46 144.521 149.987 144.969 150.286C145.426 150.575 146.056 150.72 146.859 150.72C147.755 150.72 148.417 150.547 148.847 150.202C149.285 149.857 149.505 149.245 149.505 148.368C149.505 147.957 149.313 147.593 148.931 147.276C148.557 146.959 148.095 146.688 147.545 146.464C147.003 146.24 146.462 146.011 145.921 145.778C145.379 145.545 144.917 145.246 144.535 144.882C144.161 144.518 143.975 144.098 143.975 143.622ZM157.94 141.2V141.62H154.65V151H154.23V141.62H150.94V141.2H157.94ZM164.986 150.09C164.473 150.79 163.642 151.14 162.494 151.14C161.346 151.14 160.516 150.79 160.002 150.09C159.489 149.381 159.232 148.279 159.232 146.786V145.414C159.232 143.921 159.489 142.824 160.002 142.124C160.516 141.415 161.346 141.06 162.494 141.06C163.642 141.06 164.473 141.415 164.986 142.124C165.5 142.824 165.756 143.921 165.756 145.414V146.786C165.756 148.279 165.5 149.381 164.986 150.09ZM163.67 141.662C163.344 141.541 162.952 141.48 162.494 141.48C162.037 141.48 161.645 141.541 161.318 141.662C160.992 141.774 160.698 141.97 160.436 142.25C160.175 142.53 159.979 142.936 159.848 143.468C159.718 143.991 159.652 144.639 159.652 145.414V146.786C159.652 147.561 159.718 148.214 159.848 148.746C159.979 149.269 160.175 149.67 160.436 149.95C160.698 150.23 160.992 150.431 161.318 150.552C161.645 150.664 162.037 150.72 162.494 150.72C162.952 150.72 163.344 150.664 163.67 150.552C163.997 150.431 164.291 150.23 164.552 149.95C164.814 149.67 165.01 149.269 165.14 148.746C165.271 148.214 165.336 147.561 165.336 146.786V145.414C165.336 144.639 165.271 143.991 165.14 143.468C165.01 142.936 164.814 142.53 164.552 142.25C164.291 141.97 163.997 141.774 163.67 141.662ZM169.314 150.58H173.178L171.484 145.932L172.268 145.484C172.912 145.129 173.234 144.565 173.234 143.79C173.234 142.343 172.133 141.62 169.93 141.62H168.642V151H168.222V141.2H169.93C171.162 141.2 172.091 141.429 172.716 141.886C173.341 142.334 173.654 142.969 173.654 143.79C173.654 144.723 173.262 145.409 172.478 145.848L172.002 146.114L173.78 151H169.314V150.58ZM180.945 145.876H176.787L181.071 141.62H176.339V150.58H181.771V151H175.919V141.2H182.093L177.809 145.456H180.945V145.876Z" fill="white"/>
</g>
</svg>
