<svg width="86" height="56" viewBox="0 0 86 56" fill="none" xmlns="http://www.w3.org/2000/svg">
<g id="TYPOFRAME" clip-path="url(#clip0_1_2)">
<path id="TT2" d="M23.846 47.7773C23.846 47.7773 23.2797 47.7773 22.1472 47.7773L20.3618 54.7565C20.3185 54.9188 20.2085 55 20.0318 55H19.7126C19.6224 55 19.5575 54.9675 19.5178 54.9026C19.4781 54.8341 19.4691 54.7529 19.4907 54.6592L21.2437 47.7773H19.4907C19.2815 47.7773 19.2004 47.6925 19.2473 47.523L19.323 47.1984C19.3447 47.1046 19.3771 47.0451 19.4204 47.0198C19.4673 46.991 19.5448 46.9766 19.653 46.9766H23.9759C24.1995 46.9766 24.2878 47.0812 24.241 47.2904L24.1869 47.5446C24.158 47.6997 24.0444 47.7773 23.846 47.7773ZM25.6254 50.8395C26.657 49.3066 27.3964 48.0676 27.8436 47.1226C27.8905 47.0144 28.0005 46.9657 28.1736 46.9766L28.5199 47.0198C28.6065 47.0271 28.6642 47.0667 28.693 47.1389C28.7255 47.211 28.7111 47.3048 28.6498 47.4202C27.7841 48.9387 26.8301 50.3904 25.7877 51.7755L25.0249 54.7565C24.9816 54.9188 24.8716 55 24.6948 55H24.3756C24.2855 55 24.2205 54.9675 24.1809 54.9026C24.1412 54.8341 24.1322 54.7529 24.1538 54.6592L24.9275 51.6023C24.9275 51.1154 24.8698 50.4229 24.7544 49.5248C24.6425 48.6231 24.5452 48.0243 24.4622 47.7286C24.3792 47.4292 24.363 47.2326 24.4135 47.1389C24.464 47.0451 24.5433 46.9946 24.6516 46.9874L24.9599 46.9441C25.0645 46.9369 25.1385 46.9495 25.1818 46.982C25.2287 47.0144 25.2629 47.0902 25.2846 47.2092C25.5154 48.5762 25.629 49.7863 25.6254 50.8395ZM29.4924 50.9206L30.1092 50.8882C30.6971 50.8665 31.1047 50.6447 31.3319 50.2227C31.4762 49.9558 31.5844 49.651 31.6565 49.3084C31.7323 48.9621 31.7702 48.6736 31.7702 48.4427C31.7702 48.0063 31.5195 47.7773 31.0181 47.7556C30.8558 47.7484 30.6178 47.743 30.304 47.7394L29.4924 50.9206ZM29.4059 47.734C29.2832 47.734 29.166 47.734 29.0542 47.734C28.946 47.734 28.8702 47.7033 28.827 47.642C28.7837 47.5771 28.7729 47.5032 28.7945 47.4202L28.8594 47.1984C28.8738 47.1335 28.9081 47.0812 28.9622 47.0415C29.0163 46.9982 29.0668 46.9766 29.1137 46.9766H30.8504C31.4455 46.9766 31.8964 47.101 32.203 47.3499C32.5132 47.5987 32.6683 48.0063 32.6683 48.5726C32.6683 48.991 32.5781 49.4527 32.3977 49.9576C32.221 50.4626 32.0082 50.8106 31.7593 51.0018C31.6367 51.0956 31.5501 51.1605 31.4996 51.1966C31.4527 51.229 31.3373 51.2885 31.1534 51.3751C30.9694 51.4617 30.7873 51.523 30.6069 51.5591C30.2282 51.6348 29.7918 51.6763 29.2977 51.6835L28.5132 54.7565C28.4699 54.9188 28.3599 55 28.1831 55H27.8639C27.7738 55 27.7088 54.9675 27.6692 54.9026C27.6295 54.8341 27.6205 54.7529 27.6421 54.6592L29.4059 47.734ZM33.7903 53.6691C33.9129 54.0911 34.1095 54.3021 34.38 54.3021C34.7732 54.3021 35.1176 54.1091 35.4134 53.7232C35.7741 53.2218 36.1203 52.4319 36.4522 51.3535C36.766 50.3327 36.8814 49.4815 36.7984 48.7998C36.7587 48.4896 36.6794 48.2462 36.5604 48.0694C36.4413 47.8891 36.288 47.7989 36.1005 47.7989C35.6929 47.7989 35.3304 48.0045 35.013 48.4157C34.6271 48.9279 34.2718 49.7466 33.9472 50.872C33.6262 51.9937 33.5739 52.9261 33.7903 53.6691ZM32.7515 52.5978C32.7515 51.6023 32.986 50.5582 33.4549 49.4653C33.9706 48.275 34.5946 47.4869 35.3268 47.101C35.5937 46.9603 35.8678 46.89 36.1492 46.89C36.4305 46.89 36.7497 46.9928 37.1068 47.1984C37.3412 47.339 37.5018 47.5627 37.5883 47.8693C37.6749 48.1758 37.7182 48.6231 37.7182 49.211C37.7182 49.7953 37.5883 50.5798 37.3286 51.5645C36.8742 53.2994 36.1708 54.394 35.2186 54.8485C34.9373 54.9856 34.6397 55.0541 34.3259 55.0541C34.077 55.0541 33.8192 54.9838 33.5522 54.8431C33.0184 54.5618 32.7515 53.8133 32.7515 52.5978ZM39.9908 51.2344C39.9908 51.2344 40.6635 51.2344 42.0088 51.2344C42.1279 51.2344 42.1603 51.3156 42.1062 51.4779L42.0521 51.6673C42.0449 51.6925 42.0215 51.7665 41.9818 51.8891C41.9457 52.0081 41.8718 52.2119 41.76 52.5005C41.6481 52.789 41.5345 53.0559 41.4191 53.3012C41.3037 53.5464 41.1684 53.7863 41.0133 54.0207C40.8619 54.2552 40.705 54.4445 40.5426 54.5888C40.1784 54.9062 39.7473 55.0649 39.2496 55.0649C38.9683 55.0649 38.6995 54.9802 38.4435 54.8106C37.9674 54.4968 37.7293 53.7628 37.7293 52.6087C37.7293 52.0027 37.8213 51.3336 38.0052 50.6014C38.1892 49.8656 38.4344 49.2254 38.741 48.6808C39.0512 48.1326 39.4119 47.6979 39.8231 47.3769C40.2343 47.0523 40.6563 46.89 41.0891 46.89C41.3776 46.89 41.6229 46.9693 41.8249 47.128C42.0305 47.2831 42.2018 47.5645 42.3389 47.972C42.4795 48.3796 42.5499 48.6862 42.5499 48.8918C42.5499 49.0974 42.4759 49.2272 42.328 49.2813L41.9439 49.395C41.8682 49.413 41.805 49.4022 41.7545 49.3625C41.7077 49.3192 41.6788 49.1839 41.668 48.9567C41.6572 48.7259 41.5995 48.4896 41.4949 48.248C41.3939 48.0027 41.2586 47.8602 41.0891 47.8206C40.7464 47.7268 40.3677 47.9504 39.9529 48.4914C39.5417 49.0289 39.2045 49.7773 38.9412 50.7367C38.6202 51.8945 38.5481 52.8485 38.7248 53.5987C38.8222 54.0243 38.9719 54.2444 39.1738 54.2588C39.5598 54.3021 39.897 54.1091 40.1856 53.6799C40.5138 53.1966 40.7627 52.6321 40.9322 51.9865H39.8718C39.7275 51.9865 39.6824 51.8837 39.7365 51.6781L39.8285 51.3643C39.8429 51.3102 39.8609 51.2759 39.8826 51.2615C39.9042 51.2435 39.9403 51.2344 39.9908 51.2344ZM44.1075 50.7313L44.8 50.6988C45.3014 50.6772 45.6855 50.4608 45.9524 50.0496C46.2085 49.6564 46.3366 49.1208 46.3366 48.4427C46.3366 48.2516 46.2716 48.0911 46.1418 47.9612C46.0155 47.8314 45.8388 47.7647 45.6116 47.761C45.3843 47.7574 45.1373 47.7538 44.8704 47.7502L44.1075 50.7313ZM43.9669 47.7448C43.8514 47.7448 43.7396 47.7448 43.6314 47.7448C43.5232 47.7448 43.4475 47.7142 43.4042 47.6528C43.3609 47.5879 43.3501 47.514 43.3717 47.431L43.4258 47.1984C43.4403 47.1335 43.4745 47.0812 43.5286 47.0415C43.5827 46.9982 43.6332 46.9766 43.6801 46.9766H45.5629C46.0715 46.9766 46.479 47.1046 46.7856 47.3607C47.0922 47.6132 47.2455 47.9883 47.2455 48.486C47.2455 48.9838 47.1499 49.4509 46.9587 49.8873C46.7712 50.3237 46.5638 50.6357 46.3366 50.8233C46.1129 51.0072 45.9416 51.1298 45.8226 51.1912C45.7036 51.2489 45.5737 51.3012 45.433 51.3481L45.9416 54.6213C45.9813 54.8738 45.9001 55 45.6981 55H45.3194C45.222 55 45.1517 54.9711 45.1084 54.9134C45.0687 54.8557 45.0399 54.7547 45.0219 54.6105L44.6053 51.4833L43.9128 51.4941L43.0796 54.7565C43.0363 54.9188 42.9263 55 42.7495 55H42.4303C42.3402 55 42.2752 54.9675 42.2356 54.9026C42.1959 54.8341 42.1869 54.7529 42.2085 54.6592L43.9669 47.7448ZM48.6606 52.5978L47.5893 54.7782C47.51 54.9441 47.3729 55.018 47.1782 55L46.9239 54.9784C46.794 54.9748 46.7093 54.9261 46.6696 54.8323C46.6299 54.7385 46.6371 54.6465 46.6912 54.5564L50.381 47.4418C50.5361 47.1461 50.7399 46.9982 50.9924 46.9982L51.4361 46.9874C51.5695 46.9874 51.6741 47.0325 51.7498 47.1226C51.8256 47.2128 51.8581 47.3463 51.8472 47.523L51.4577 54.7565C51.4505 54.9188 51.3405 55 51.1277 55L50.7489 54.9892C50.5686 54.9892 50.4838 54.89 50.4947 54.6916L50.6353 52.5978H48.6606ZM49.0555 51.7971H50.6894L50.9437 47.945L49.0555 51.7971ZM54.137 50.9206L54.7537 50.8882C55.3416 50.8665 55.7492 50.6447 55.9764 50.2227C56.1207 49.9558 56.2289 49.651 56.3011 49.3084C56.3768 48.9621 56.4147 48.6736 56.4147 48.4427C56.4147 48.0063 56.164 47.7773 55.6627 47.7556C55.5003 47.7484 55.2623 47.743 54.9485 47.7394L54.137 50.9206ZM54.0504 47.734C53.9278 47.734 53.8105 47.734 53.6987 47.734C53.5905 47.734 53.5148 47.7033 53.4715 47.642C53.4282 47.5771 53.4174 47.5032 53.439 47.4202L53.504 47.1984C53.5184 47.1335 53.5526 47.0812 53.6067 47.0415C53.6609 46.9982 53.7113 46.9766 53.7582 46.9766H55.4949C56.0901 46.9766 56.5409 47.101 56.8475 47.3499C57.1577 47.5987 57.3128 48.0063 57.3128 48.5726C57.3128 48.991 57.2226 49.4527 57.0423 49.9576C56.8655 50.4626 56.6527 50.8106 56.4039 51.0018C56.2812 51.0956 56.1947 51.1605 56.1442 51.1966C56.0973 51.229 55.9819 51.2885 55.7979 51.3751C55.614 51.4617 55.4318 51.523 55.2515 51.5591C54.8728 51.6348 54.4363 51.6763 53.9422 51.6835L53.1577 54.7565C53.1144 54.9188 53.0044 55 52.8277 55H52.5085C52.4183 55 52.3534 54.9675 52.3137 54.9026C52.274 54.8341 52.265 54.7529 52.2866 54.6592L54.0504 47.734ZM59.149 47.22C59.1923 47.0577 59.3023 46.9766 59.479 46.9766H59.8036C59.8938 46.9766 59.9587 47.0108 59.9984 47.0794C60.0381 47.1479 60.0471 47.229 60.0255 47.3228L59.2626 50.3039H61.8974L62.6819 47.22C62.7252 47.0577 62.837 46.9766 63.0173 46.9766H63.3365C63.4267 46.9766 63.4916 47.0108 63.5313 47.0794C63.571 47.1479 63.58 47.229 63.5584 47.3228L61.6648 54.7565C61.6215 54.9188 61.5097 55 61.3293 55H61.0101C60.92 55 60.855 54.9675 60.8154 54.9026C60.7757 54.8341 60.7667 54.7529 60.7883 54.6592L61.7026 51.0667H59.0678L58.1264 54.7565C58.0832 54.9188 57.9732 55 57.7964 55H57.4772C57.387 55 57.3221 54.9675 57.2824 54.9026C57.2428 54.8341 57.2337 54.7529 57.2554 54.6592L59.149 47.22ZM65.5746 50.8395C66.6062 49.3066 67.3456 48.0676 67.7928 47.1226C67.8397 47.0144 67.9497 46.9657 68.1229 46.9766L68.4691 47.0198C68.5557 47.0271 68.6134 47.0667 68.6423 47.1389C68.6747 47.211 68.6603 47.3048 68.599 47.4202C67.7333 48.9387 66.7793 50.3904 65.7369 51.7755L64.9741 54.7565C64.9308 54.9188 64.8208 55 64.6441 55H64.3248C64.2347 55 64.1698 54.9675 64.1301 54.9026C64.0904 54.8341 64.0814 54.7529 64.103 54.6592L64.8767 51.6023C64.8767 51.1154 64.819 50.4229 64.7036 49.5248C64.5918 48.6231 64.4944 48.0243 64.4114 47.7286C64.3285 47.4292 64.3122 47.2326 64.3627 47.1389C64.4132 47.0451 64.4926 46.9946 64.6008 46.9874L64.9092 46.9441C65.0138 46.9369 65.0877 46.9495 65.131 46.982C65.1779 47.0144 65.2121 47.0902 65.2338 47.2092C65.4646 48.5762 65.5782 49.7863 65.5746 50.8395Z" fill="black"/>
<path id="TT1" d="M19.8934 25C19.8934 25 17.2369 25 11.9241 25C11.6535 25 11.4588 24.9026 11.3397 24.7078C11.2207 24.5023 11.1937 24.2588 11.2586 23.9775L16.5336 3.23444H15.2027C14.8672 3.23444 14.6617 3.18575 14.5859 3.08837C14.5102 2.98016 14.5156 2.7367 14.6021 2.35798L14.8131 1.59513C14.8889 1.30298 14.9809 1.11903 15.0891 1.04328C15.1973 0.967537 15.4029 0.929665 15.7058 0.929665H26.548C26.8618 0.929665 27.062 0.989179 27.1486 1.10821C27.246 1.21641 27.2568 1.43282 27.181 1.75744L26.9376 2.60144C26.8402 3.02344 26.5643 3.23444 26.1098 3.23444H19.2442L17.3127 10.8142H23.1883C23.383 10.8142 23.5237 10.89 23.6103 11.0415C23.6968 11.1821 23.7131 11.3607 23.659 11.5771L23.4155 12.4049C23.3073 12.8702 22.9773 13.1028 22.4254 13.1028H16.7284L14.2775 22.7115H20.6562C20.851 22.7115 20.9917 22.7872 21.0782 22.9387C21.1648 23.0794 21.181 23.2579 21.1269 23.4743L20.8997 24.3021C20.7915 24.7674 20.4561 25 19.8934 25ZM27.3854 13.33C27.4503 13.092 27.6099 12.9702 27.8642 12.9648H28.3673C28.5891 12.9648 28.7325 13.138 28.7974 13.4842L30.2663 21.8999L32.4494 13.33C32.5143 13.0866 32.682 12.9648 32.9525 12.9648H33.4313C33.5666 12.9648 33.664 13.0162 33.7235 13.119C33.783 13.2218 33.7965 13.3436 33.7641 13.4842L30.9237 24.6348C30.8588 24.8783 30.691 25 30.4205 25H29.8281C29.6874 25 29.5982 24.9351 29.5603 24.8052C29.5386 24.7241 29.5224 24.6564 29.5116 24.6023C29.5062 24.5482 29.5008 24.5104 29.4954 24.4887L28.0265 16.1055L25.8515 24.6348C25.7866 24.8783 25.6216 25 25.3565 25H24.8696C24.7343 25 24.6369 24.9513 24.5774 24.8539C24.5179 24.7511 24.5044 24.6294 24.5368 24.4887L27.3854 13.33ZM36.8075 19.3517C36.8075 19.3517 37.8165 19.3517 39.8345 19.3517C40.0131 19.3517 40.0618 19.4734 39.9806 19.7169L39.8995 20.0009C39.8886 20.0388 39.8535 20.1497 39.794 20.3336C39.7399 20.5122 39.6289 20.8179 39.4612 21.2507C39.2935 21.6835 39.1231 22.0839 38.95 22.4518C38.7768 22.8197 38.5739 23.1794 38.3413 23.5311C38.1141 23.8828 37.8787 24.1668 37.6353 24.3832C37.0888 24.8593 36.4423 25.0974 35.6957 25.0974C35.2737 25.0974 34.8706 24.9702 34.4865 24.716C33.7723 24.2453 33.4152 23.1443 33.4152 21.413C33.4152 20.5041 33.5532 19.5005 33.8291 18.4022C34.105 17.2985 34.4729 16.3381 34.9328 15.5212C35.3981 14.6988 35.9391 14.0469 36.5559 13.5654C37.1727 13.0784 37.8057 12.835 38.4549 12.835C38.8877 12.835 39.2556 12.954 39.5586 13.1921C39.867 13.4247 40.124 13.8467 40.3296 14.4581C40.5406 15.0694 40.6461 15.5293 40.6461 15.8377C40.6461 16.1461 40.5352 16.3408 40.3133 16.422L39.7371 16.5924C39.6235 16.6195 39.5289 16.6032 39.4531 16.5437C39.3828 16.4788 39.3395 16.2759 39.3233 15.9351C39.307 15.5888 39.2205 15.2344 39.0636 14.872C38.9121 14.5041 38.7092 14.2904 38.4549 14.2308C37.9409 14.0902 37.3729 14.4256 36.7507 15.2372C36.1339 16.0433 35.628 17.1659 35.2331 18.605C34.7516 20.3417 34.6434 21.7728 34.9085 22.8981C35.0546 23.5365 35.2791 23.8665 35.5821 23.8882C36.161 23.9531 36.6668 23.6637 37.0996 23.0198C37.592 22.2949 37.9653 21.4482 38.2196 20.4797H36.6289C36.4125 20.4797 36.3449 20.3255 36.4261 20.0171L36.564 19.5464C36.5857 19.4653 36.6127 19.4139 36.6452 19.3922C36.6776 19.3652 36.7317 19.3517 36.8075 19.3517ZM42.4997 21.3968L40.8928 24.6673C40.7738 24.9161 40.5682 25.0271 40.276 25L39.8946 24.9675C39.6998 24.9621 39.5727 24.8891 39.5132 24.7484C39.4537 24.6078 39.4645 24.4698 39.5456 24.3345L45.0804 13.6628C45.313 13.2191 45.6187 12.9973 45.9974 12.9973L46.6629 12.9811C46.863 12.9811 47.0199 13.0487 47.1336 13.1839C47.2472 13.3192 47.2959 13.5194 47.2796 13.7845L46.6953 24.6348C46.6845 24.8783 46.5195 25 46.2003 25L45.6322 24.9838C45.3617 24.9838 45.2346 24.835 45.2508 24.5374L45.4618 21.3968H42.4997ZM43.0921 20.1957H45.5429L45.9244 14.4175L43.0921 20.1957ZM51.5907 19.3517C51.5907 19.3517 52.5997 19.3517 54.6177 19.3517C54.7963 19.3517 54.845 19.4734 54.7638 19.7169L54.6827 20.0009C54.6718 20.0388 54.6367 20.1497 54.5772 20.3336C54.5231 20.5122 54.4121 20.8179 54.2444 21.2507C54.0767 21.6835 53.9063 22.0839 53.7332 22.4518C53.56 22.8197 53.3571 23.1794 53.1245 23.5311C52.8973 23.8828 52.6619 24.1668 52.4185 24.3832C51.872 24.8593 51.2255 25.0974 50.4789 25.0974C50.0569 25.0974 49.6538 24.9702 49.2697 24.716C48.5555 24.2453 48.1984 23.1443 48.1984 21.413C48.1984 20.5041 48.3364 19.5005 48.6123 18.4022C48.8883 17.2985 49.2562 16.3381 49.716 15.5212C50.1813 14.6988 50.7223 14.0469 51.3391 13.5654C51.9559 13.0784 52.5889 12.835 53.2381 12.835C53.6709 12.835 54.0388 12.954 54.3418 13.1921C54.6502 13.4247 54.9072 13.8467 55.1128 14.4581C55.3238 15.0694 55.4293 15.5293 55.4293 15.8377C55.4293 16.1461 55.3184 16.3408 55.0965 16.422L54.5204 16.5924C54.4067 16.6195 54.3121 16.6032 54.2363 16.5437C54.166 16.4788 54.1227 16.2759 54.1065 15.9351C54.0902 15.5888 54.0037 15.2344 53.8468 14.872C53.6953 14.5041 53.4924 14.2904 53.2381 14.2308C52.7241 14.0902 52.1561 14.4256 51.5339 15.2372C50.9171 16.0433 50.4112 17.1659 50.0163 18.605C49.5348 20.3417 49.4266 21.7728 49.6917 22.8981C49.8378 23.5365 50.0623 23.8665 50.3653 23.8882C50.9442 23.9531 51.45 23.6637 51.8828 23.0198C52.3752 22.2949 52.7485 21.4482 53.0028 20.4797H51.4121C51.1957 20.4797 51.1281 20.3255 51.2093 20.0171L51.3472 19.5464C51.3689 19.4653 51.3959 19.4139 51.4284 19.3922C51.4608 19.3652 51.5149 19.3517 51.5907 19.3517ZM57.8834 13.33C57.9483 13.0866 58.1133 12.9648 58.3784 12.9648H58.8654C59.0006 12.9648 59.0953 13.0162 59.1494 13.119C59.2089 13.2218 59.2224 13.3436 59.19 13.4842L56.3496 24.6348C56.2847 24.8783 56.1197 25 55.8545 25H55.3676C55.2324 25 55.135 24.9513 55.0755 24.8539C55.016 24.7511 55.0024 24.6294 55.0349 24.4887L57.8834 13.33ZM61.5748 13.33C61.6397 13.092 61.7993 12.9702 62.0536 12.9648H62.5568C62.7786 12.9648 62.922 13.138 62.9869 13.4842L64.4558 21.8999L66.6388 13.33C66.7038 13.0866 66.8715 12.9648 67.142 12.9648H67.6208C67.7561 12.9648 67.8534 13.0162 67.913 13.119C67.9725 13.2218 67.986 13.3436 67.9535 13.4842L65.1131 24.6348C65.0482 24.8783 64.8805 25 64.61 25H64.0175C63.8769 25 63.7876 24.9351 63.7497 24.8052C63.7281 24.7241 63.7119 24.6564 63.701 24.6023C63.6956 24.5482 63.6902 24.5104 63.6848 24.4887L62.2159 16.1055L60.041 24.6348C59.9761 24.8783 59.8111 25 59.546 25H59.059C58.9238 25 58.8264 24.9513 58.7669 24.8539C58.7074 24.7511 58.6938 24.6294 58.7263 24.4887L61.5748 13.33ZM70.9969 19.3517C70.9969 19.3517 72.006 19.3517 74.024 19.3517C74.2025 19.3517 74.2512 19.4734 74.1701 19.7169L74.0889 20.0009C74.0781 20.0388 74.0429 20.1497 73.9834 20.3336C73.9293 20.5122 73.8184 20.8179 73.6507 21.2507C73.483 21.6835 73.3125 22.0839 73.1394 22.4518C72.9663 22.8197 72.7634 23.1794 72.5308 23.5311C72.3035 23.8828 72.0682 24.1668 71.8247 24.3832C71.2783 24.8593 70.6317 25.0974 69.8851 25.0974C69.4631 25.0974 69.0601 24.9702 68.6759 24.716C67.9618 24.2453 67.6047 23.1443 67.6047 21.413C67.6047 20.5041 67.7427 19.5005 68.0186 18.4022C68.2945 17.2985 68.6624 16.3381 69.1223 15.5212C69.5876 14.6988 70.1286 14.0469 70.7454 13.5654C71.3621 13.0784 71.9951 12.835 72.6444 12.835C73.0772 12.835 73.4451 12.954 73.7481 13.1921C74.0564 13.4247 74.3134 13.8467 74.519 14.4581C74.73 15.0694 74.8355 15.5293 74.8355 15.8377C74.8355 16.1461 74.7246 16.3408 74.5028 16.422L73.9266 16.5924C73.813 16.6195 73.7183 16.6032 73.6426 16.5437C73.5722 16.4788 73.5289 16.2759 73.5127 15.9351C73.4965 15.5888 73.4099 15.2344 73.253 14.872C73.1015 14.5041 72.8986 14.2904 72.6444 14.2308C72.1304 14.0902 71.5623 14.4256 70.9401 15.2372C70.3234 16.0433 69.8175 17.1659 69.4225 18.605C68.941 20.3417 68.8328 21.7728 69.0979 22.8981C69.244 23.5365 69.4685 23.8665 69.7715 23.8882C70.3504 23.9531 70.8563 23.6637 71.2891 23.0198C71.7814 22.2949 72.1547 21.4482 72.409 20.4797H70.8184C70.602 20.4797 70.5344 20.3255 70.6155 20.0171L70.7535 19.5464C70.7751 19.4653 70.8022 19.4139 70.8346 19.3922C70.8671 19.3652 70.9212 19.3517 70.9969 19.3517Z" fill="black"/>
<path id="TV2" d="M13 32.6461C35.78 41.6113 48.5 26.1461 73 32.6461" stroke="black"/>
<path id="TV1" d="M29.5 1.5H82.5V29" stroke="black"/>
</g>
<defs>
<clipPath id="clip0_1_2">
<rect width="86" height="56" fill="white"/>
</clipPath>
</defs>
</svg>
